{"glyphs":{"0":{"ha":710,"x_min":32,"x_max":774,"o":"m 774 776 q 720 535 774 665 q 581 272 667 404 q 377 46 479 117 q 182 -25 275 -25 q 104 -8 133 -25 q 59 40 75 10 q 38 110 43 69 q 32 200 32 151 q 56 333 32 253 q 126 503 81 414 q 233 683 171 593 q 372 842 296 772 q 488 928 439 904 q 564 956 538 951 q 667 978 614 978 q 719 960 699 978 q 752 913 740 942 q 769 849 764 885 q 774 776 774 813 m 658 739 q 643 847 658 803 q 581 892 628 892 q 415 825 490 892 q 258 619 339 758 q 216 526 236 581 q 181 416 196 472 q 156 309 165 360 q 147 226 147 258 q 172 96 147 140 q 260 51 196 51 q 313 63 282 51 q 375 96 343 74 q 439 151 407 118 q 499 226 471 183 q 558 340 529 274 q 608 478 586 407 q 644 617 631 549 q 658 739 658 686 z "},"1":{"ha":710,"x_min":174,"x_max":635,"o":"m 635 967 q 627 947 635 965 q 608 903 619 929 q 583 846 596 876 q 560 789 569 815 q 517 683 539 738 q 477 578 496 628 q 444 487 458 528 q 421 421 429 446 q 403 367 414 399 q 382 301 393 335 q 360 233 371 267 q 343 172 350 199 q 339 154 342 168 q 332 123 336 140 q 324 90 328 106 q 317 65 319 74 q 297 26 311 47 q 240 -22 282 4 q 203 -36 217 -36 q 174 -17 174 -36 q 188 33 174 -4 q 222 139 201 71 q 276 304 244 210 q 347 506 308 399 q 383 602 364 551 q 419 702 401 653 q 455 797 438 751 q 485 875 472 842 q 467 872 486 881 q 424 853 449 864 q 374 831 399 842 q 343 821 350 821 q 330 825 332 821 q 328 835 328 829 q 340 851 328 842 q 370 870 353 860 q 408 892 388 881 q 447 914 429 903 q 468 926 454 918 q 498 943 482 935 q 530 960 514 951 q 558 972 546 968 q 588 978 571 976 q 619 981 604 981 q 633 977 631 981 q 635 967 635 974 z "},"2":{"ha":894,"x_min":67,"x_max":801,"o":"m 801 817 q 780 711 801 763 q 722 611 758 660 q 638 516 686 563 q 539 425 590 469 q 397 301 464 361 q 280 192 331 240 q 199 110 229 143 q 169 72 169 78 q 290 95 228 83 q 436 114 353 107 q 519 117 476 117 q 597 117 563 117 q 626 115 610 117 q 657 107 643 113 q 681 93 671 101 q 689 71 690 85 q 669 32 688 51 q 626 1 651 13 q 548 20 601 13 q 433 28 494 28 q 357 23 401 28 q 272 11 313 18 q 174 -6 225 4 q 138 -11 157 -8 q 100 -14 119 -14 q 67 13 67 -14 q 90 50 67 21 q 156 123 114 79 q 255 222 197 167 q 382 335 313 276 q 467 408 417 364 q 565 509 518 453 q 648 634 613 565 q 689 781 683 703 q 681 853 692 824 q 652 901 671 883 q 608 928 633 919 q 557 936 583 936 q 475 926 514 936 q 406 895 436 915 q 356 845 375 875 q 336 778 338 815 q 322 751 335 754 q 297 747 308 747 q 276 756 281 747 q 272 786 272 764 q 304 856 272 821 q 384 917 336 890 q 489 961 432 944 q 596 978 546 978 q 667 972 631 978 q 734 949 704 967 q 783 900 764 932 q 801 817 801 868 z "},"3":{"ha":710,"x_min":-24,"x_max":793,"o":"m 793 914 q 776 891 793 910 q 733 846 760 872 q 674 788 707 819 q 610 726 642 756 q 549 669 578 696 q 504 628 521 643 q 616 559 583 610 q 642 414 649 508 q 610 306 638 358 q 543 210 582 254 q 462 133 504 167 q 386 79 419 99 q 289 31 333 49 q 207 6 244 14 q 138 -4 169 -3 q 82 -6 107 -6 q 9 6 42 -6 q -24 36 -24 17 q -16 65 -24 53 q 3 86 -8 78 q 25 99 14 94 q 44 103 36 103 q 54 86 49 96 q 72 67 60 76 q 103 51 83 57 q 157 44 124 44 q 297 73 229 44 q 415 151 364 101 q 497 268 467 201 q 528 411 528 335 q 522 467 528 444 q 507 503 517 489 q 485 527 497 518 q 460 543 474 536 q 440 550 451 547 q 417 555 428 553 q 398 560 406 557 q 390 567 390 563 q 399 585 390 575 q 419 604 407 594 q 443 623 431 614 q 464 639 456 632 q 526 696 493 665 q 588 756 558 726 q 642 810 618 785 q 678 853 665 836 q 637 851 667 851 q 565 849 607 850 q 472 845 524 847 q 364 840 419 843 q 341 838 353 840 q 319 836 329 836 q 301 839 308 836 q 294 850 294 842 q 313 886 296 871 q 353 913 329 901 q 403 929 378 924 q 450 935 429 935 l 590 935 q 635 935 608 935 q 688 938 663 936 q 733 940 714 939 q 757 940 753 940 q 784 936 775 940 q 793 914 793 932 z "},"4":{"ha":710,"x_min":49,"x_max":719,"o":"m 718 857 q 700 819 718 854 q 661 732 682 785 q 597 576 629 653 q 542 436 565 499 q 580 432 565 436 q 594 410 594 428 q 581 377 594 392 q 558 363 567 363 q 546 363 553 363 q 532 364 539 363 q 515 365 524 364 q 485 286 504 332 q 451 194 467 240 q 433 133 442 167 q 419 81 424 100 q 414 53 418 72 q 403 25 410 35 q 384 7 396 15 q 360 -8 372 -1 q 338 -19 349 -15 q 318 -24 326 -24 q 298 -19 303 -24 q 293 -3 293 -14 q 310 54 294 13 q 344 150 325 96 q 363 200 356 181 q 378 240 371 219 q 397 288 386 260 q 424 363 407 315 q 358 358 396 361 q 275 347 319 354 q 215 338 246 343 q 158 328 185 333 q 110 321 131 324 q 76 318 89 318 q 57 322 65 318 q 50 339 49 325 q 69 369 51 349 q 97 401 86 389 q 194 510 142 450 q 311 657 246 569 q 370 745 342 700 q 422 832 399 790 q 460 909 444 874 q 481 968 475 944 q 509 989 490 979 q 546 999 528 999 q 563 993 553 999 q 536 935 554 969 q 497 866 518 901 q 452 796 475 831 q 411 735 429 761 q 333 627 378 686 q 249 517 289 568 q 151 396 201 457 q 175 400 158 397 q 213 406 192 403 q 259 412 235 408 q 307 418 283 415 q 355 423 329 421 q 403 428 381 425 q 454 433 428 431 q 504 564 479 497 q 551 687 529 631 q 589 782 572 743 q 613 829 606 821 q 633 849 624 842 q 658 863 643 856 q 683 868 669 867 q 710 869 696 869 q 718 857 719 869 z "},"5":{"ha":710,"x_min":-47,"x_max":824,"o":"m 824 943 q 809 917 822 935 q 779 885 796 900 q 729 858 749 858 q 712 865 718 858 q 686 872 706 872 q 640 876 674 872 q 572 879 606 879 q 521 878 549 879 q 468 875 493 876 q 408 871 439 872 l 318 604 q 365 608 336 607 q 431 610 394 610 q 482 603 449 610 q 547 574 515 596 q 603 512 579 551 q 628 408 628 472 q 584 257 628 326 q 474 133 540 188 q 332 43 408 79 q 190 -8 256 7 q 130 -19 163 -15 q 61 -22 97 -22 q -19 -11 8 -22 q -44 19 -47 0 q -19 59 -42 43 q 15 78 4 75 q 68 33 35 44 q 143 22 101 22 q 263 49 199 22 q 383 124 328 76 q 474 238 438 172 q 510 378 510 303 q 357 536 510 536 q 325 533 339 536 q 299 528 311 531 q 271 513 285 521 q 250 506 257 506 q 232 507 239 506 q 225 519 225 508 q 230 539 225 531 q 238 558 235 547 q 249 585 242 567 q 265 630 256 604 q 284 685 274 656 q 306 746 294 715 q 360 900 331 815 q 365 924 358 913 q 383 939 372 935 q 401 945 393 943 q 426 949 410 947 q 485 953 458 951 q 538 956 513 954 q 592 958 564 957 q 654 958 621 958 l 746 958 l 797 958 q 824 943 824 958 z "},"6":{"ha":760,"x_min":49,"x_max":861,"o":"m 861 961 q 851 947 860 953 q 843 944 847 944 q 788 934 835 944 q 678 901 742 924 q 544 842 614 878 q 419 754 475 806 q 328 660 374 711 q 245 548 282 608 q 185 419 208 488 q 163 275 163 350 q 168 204 163 243 q 189 131 174 165 q 232 74 204 97 q 304 50 260 50 q 396 69 350 50 q 478 128 442 89 q 540 224 515 167 q 571 358 565 282 q 561 446 575 411 q 526 501 547 481 q 478 528 504 521 q 432 536 453 536 q 352 524 404 536 q 238 463 300 511 l 235 486 q 303 542 267 519 q 376 579 340 565 q 446 599 413 593 q 504 606 479 606 q 569 597 538 606 q 625 566 600 588 q 665 509 650 544 q 679 422 679 474 q 658 302 679 360 q 602 194 638 244 q 520 104 567 144 q 424 35 474 64 q 324 -9 374 7 q 229 -25 274 -25 q 147 -7 181 -25 q 91 43 113 11 q 59 118 69 75 q 49 213 49 161 q 84 408 49 315 q 179 582 119 501 q 318 730 239 663 q 485 849 397 797 q 665 933 574 900 q 840 981 756 967 q 851 981 846 982 q 861 961 861 978 z "},"7":{"ha":710,"x_min":104,"x_max":751,"o":"m 751 928 q 737 860 751 899 q 694 783 722 822 q 585 654 651 725 q 444 499 518 583 q 309 331 363 403 q 229 201 256 260 q 211 153 218 178 q 204 103 204 128 q 206 83 204 93 q 213 67 207 72 q 224 50 224 58 q 189 10 224 36 q 164 -7 176 0 q 140 -14 151 -14 q 104 28 104 -14 q 128 110 104 56 q 197 231 153 164 q 243 299 219 265 q 294 367 267 332 q 353 442 321 403 q 425 528 385 482 q 506 626 467 576 q 576 719 544 675 q 628 799 607 764 q 654 856 650 835 q 592 851 642 853 q 471 847 543 850 q 393 844 422 846 q 344 840 364 842 q 306 838 324 839 q 267 838 289 838 q 244 850 244 838 q 263 882 244 865 q 301 910 282 899 q 351 930 326 925 q 400 935 376 935 l 540 935 l 707 940 q 723 941 718 940 q 735 942 728 942 q 751 928 751 942 z "},"8":{"ha":760,"x_min":26,"x_max":797,"o":"m 797 825 q 760 708 797 760 q 673 619 722 657 q 578 559 624 582 q 515 528 532 536 q 554 493 531 514 q 601 445 578 472 q 640 385 624 418 q 657 314 657 353 q 619 159 657 225 q 522 49 581 93 q 392 -17 463 6 q 257 -39 321 -39 q 167 -26 208 -39 q 94 13 125 -14 q 44 78 63 39 q 26 172 26 118 q 58 281 26 231 q 138 374 89 332 q 249 451 188 417 q 371 510 310 485 q 338 541 358 522 q 297 585 317 560 q 264 644 278 611 q 250 717 250 676 q 282 831 250 783 q 363 909 314 879 q 469 953 411 939 q 579 967 526 967 q 737 934 676 967 q 797 825 797 901 m 699 797 q 667 886 699 850 q 568 922 635 922 q 481 911 521 922 q 411 880 440 900 q 366 831 382 860 q 350 769 350 803 q 363 685 350 719 q 397 628 376 651 q 439 587 417 604 q 481 553 461 569 q 638 658 578 599 q 699 797 699 717 m 564 256 q 546 326 564 292 q 503 391 528 361 q 450 444 478 421 q 404 482 422 468 q 331 447 375 467 q 243 394 286 426 q 169 315 200 361 q 139 206 139 269 q 160 104 139 142 q 211 48 182 67 q 272 24 240 29 q 325 19 304 19 q 415 35 372 19 q 492 81 458 50 q 544 155 525 111 q 564 256 564 199 z "},"9":{"ha":760,"x_min":3,"x_max":821,"o":"m 821 768 q 817 710 821 744 q 803 633 814 675 q 774 545 793 592 q 724 450 754 499 q 560 249 647 332 q 383 113 474 167 q 200 28 292 58 q 25 -15 108 -1 q 14 -15 19 -17 q 4 4 3 -12 q 8 13 4 10 q 14 18 11 15 q 22 21 18 21 q 76 31 31 21 q 185 65 121 40 q 321 128 249 89 q 457 229 393 168 q 592 382 540 311 q 672 532 643 453 q 592 465 635 492 q 507 420 549 438 q 429 395 465 403 q 371 388 393 388 q 246 433 296 388 q 196 571 196 479 q 240 733 196 660 q 349 860 283 807 q 493 942 415 913 q 639 971 571 971 q 726 954 690 971 q 782 910 761 938 q 812 845 803 882 q 821 768 821 808 m 710 742 q 681 874 710 826 q 569 921 651 921 q 487 901 533 921 q 399 844 440 882 q 331 749 358 806 q 303 621 303 693 q 317 535 303 568 q 351 485 331 503 q 397 463 372 468 q 442 457 421 457 q 549 484 482 457 q 690 590 617 511 q 704 664 699 626 q 710 742 710 701 z "}," ":{"ha":660,"x_min":0,"x_max":0,"o":""},"!":{"ha":456,"x_min":64,"x_max":543,"o":"m 543 989 q 515 926 529 958 q 491 868 504 899 q 468 811 478 838 q 449 761 457 782 q 435 720 442 740 q 419 678 428 700 q 400 628 411 657 q 305 391 347 485 q 239 257 263 297 q 190 214 214 214 q 168 236 165 214 q 182 282 168 242 q 217 381 196 322 q 263 512 238 440 q 314 651 289 583 q 359 774 339 718 q 390 861 379 831 q 423 940 410 914 q 449 976 436 965 q 465 989 457 983 q 493 999 472 994 q 512 1000 501 1000 q 535 1001 522 1000 q 543 989 540 1001 m 206 64 q 179 3 201 31 q 114 -24 157 -24 q 74 -12 85 -24 q 68 35 64 0 q 95 104 75 79 q 165 129 115 129 q 203 113 196 129 q 206 64 210 96 z "},"\"":{"ha":556,"x_min":211,"x_max":572,"o":"m 571 964 q 565 942 571 957 q 550 907 558 926 q 531 867 542 888 q 511 828 521 846 q 465 748 483 775 q 428 701 447 721 q 409 688 417 690 q 394 685 401 685 q 379 693 379 685 q 390 733 379 703 q 413 800 400 764 q 436 869 425 836 q 451 917 447 901 q 488 966 461 950 q 553 982 514 982 q 572 977 572 982 q 571 964 571 972 m 390 964 q 384 942 390 957 q 369 906 378 926 q 351 865 361 886 q 333 825 342 843 q 295 751 313 781 q 250 706 278 721 q 236 698 244 703 q 221 693 228 693 q 213 703 211 693 q 221 733 213 706 q 240 797 229 761 q 259 867 250 832 q 271 917 268 901 q 306 966 278 950 q 372 982 333 982 q 391 977 392 982 q 390 964 390 972 z "},"#":{"ha":833,"x_min":14,"x_max":843,"o":"m 843 939 q 836 916 843 933 q 818 874 829 899 q 794 819 807 849 q 768 761 781 790 q 740 693 753 725 q 721 639 728 661 l 789 642 q 817 631 817 643 q 788 600 814 617 q 754 582 772 589 q 697 574 736 575 q 663 471 681 522 q 625 367 644 419 l 715 371 q 735 369 729 372 q 742 356 742 367 q 735 341 742 349 q 714 326 729 333 q 685 315 701 319 q 649 307 668 310 q 622 303 632 304 q 600 303 611 303 q 576 227 589 267 q 550 144 563 188 q 544 120 547 132 q 538 89 542 108 q 526 44 531 61 q 515 15 521 28 q 500 -9 511 4 q 474 -35 489 -22 q 442 -56 458 -47 q 411 -64 425 -64 q 391 -61 400 -64 q 382 -44 382 -58 q 386 -20 382 -37 q 401 29 390 -3 q 419 78 411 56 q 431 111 426 100 q 460 200 446 154 q 490 299 474 246 q 453 297 472 297 q 411 296 433 296 q 352 294 376 294 q 310 293 328 293 q 276 292 292 293 q 243 292 261 292 q 224 234 233 264 q 206 172 215 204 q 193 117 199 144 q 189 92 190 101 q 182 71 188 83 q 163 42 176 60 q 133 6 150 24 q 97 -24 115 -11 q 65 -36 79 -36 q 36 -17 36 -36 q 41 9 36 -8 q 57 57 46 26 q 72 103 63 75 q 92 163 82 131 q 113 228 103 196 q 133 289 124 261 q 83 288 111 289 q 39 288 54 288 q 14 303 14 288 q 46 347 15 333 q 81 356 61 354 q 121 358 101 357 q 142 359 136 360 q 156 358 147 358 q 192 460 171 407 q 228 560 213 514 q 166 560 200 561 q 113 558 132 558 q 89 574 89 558 q 119 618 89 607 q 153 626 135 624 q 196 629 172 628 l 254 629 q 303 765 283 713 q 333 842 324 818 q 363 913 353 888 q 376 942 372 938 q 400 961 386 953 q 446 976 414 969 q 465 978 454 978 q 489 979 476 979 q 497 976 496 979 q 497 967 497 974 l 422 789 q 396 721 410 760 q 364 632 382 682 q 447 633 411 632 q 510 634 482 633 q 562 635 538 635 q 611 635 586 635 q 651 747 636 706 q 678 814 667 788 q 694 853 688 838 q 704 881 700 869 q 713 899 708 892 q 721 914 717 907 q 747 937 732 929 q 792 949 761 944 q 808 951 800 950 q 828 951 817 951 q 841 948 839 951 q 843 939 843 944 m 588 569 q 457 567 524 569 q 338 563 390 564 q 304 465 321 514 q 269 368 288 417 q 267 364 267 365 q 265 360 267 363 q 346 360 311 360 q 409 362 381 361 q 462 363 438 363 q 513 364 486 364 q 533 420 522 392 q 554 478 543 449 q 572 526 564 503 q 588 569 579 549 z "},"$":{"ha":690,"x_min":-12,"x_max":740,"o":"m 740 893 q 733 845 740 861 q 721 822 725 829 q 710 808 717 817 q 696 793 704 800 q 678 781 688 786 q 661 775 669 775 q 638 851 664 815 q 571 897 613 886 q 510 724 543 815 q 446 546 476 633 q 535 463 500 499 q 590 397 569 428 q 617 338 610 367 q 622 278 624 310 q 591 172 618 226 q 515 72 564 117 q 394 -3 465 26 q 232 -32 324 -32 q 215 -62 225 -46 q 196 -92 206 -78 q 177 -115 186 -106 q 163 -125 168 -125 q 142 -121 151 -125 q 133 -106 132 -117 q 137 -78 133 -92 q 143 -54 140 -65 q 153 -31 147 -42 q 92 -16 122 -28 q 39 13 63 -4 q 1 51 15 29 q -11 96 -12 72 q 17 157 -8 133 q 83 192 42 181 q 110 105 90 143 q 179 47 129 67 q 265 291 228 183 q 335 486 303 399 q 272 553 296 524 q 236 608 249 582 q 220 656 224 633 q 218 703 217 679 q 304 872 226 807 q 507 957 382 938 q 531 1000 518 979 q 564 1029 544 1021 q 603 1035 579 1035 q 614 1029 613 1035 q 615 1019 615 1024 q 612 1006 615 1015 q 604 985 608 996 q 594 960 599 972 q 650 951 624 958 q 697 933 676 943 q 728 912 717 922 q 740 893 740 901 m 488 904 q 372 859 417 897 q 324 758 328 821 q 324 724 322 739 q 331 693 325 708 q 349 659 338 678 q 381 615 361 640 q 425 735 407 688 q 455 813 443 782 q 474 865 467 844 q 488 904 481 885 m 518 236 q 509 283 519 258 q 481 332 499 307 q 442 381 464 357 q 400 424 421 404 q 369 336 388 388 q 329 230 350 285 q 289 122 308 175 q 256 31 269 68 q 326 30 283 28 q 409 51 368 32 q 481 114 450 71 q 518 236 513 157 z "},"%":{"ha":938,"x_min":129,"x_max":853,"o":"m 536 835 q 510 744 533 790 q 448 661 486 699 q 359 600 410 624 q 250 576 308 576 q 192 587 215 576 q 154 614 168 597 q 135 652 140 631 q 131 697 129 674 q 165 792 135 746 q 263 892 194 839 q 337 935 303 924 q 379 949 371 946 q 418 960 397 957 q 454 963 439 963 q 517 928 494 963 q 536 835 540 894 m 853 1001 q 831 950 851 976 q 788 883 811 924 q 666 691 731 789 q 535 496 601 593 q 405 305 469 399 q 283 125 340 211 q 266 98 272 107 q 256 83 260 89 q 246 70 251 76 q 229 50 240 64 q 181 10 206 22 q 142 -3 156 -3 q 133 6 133 -3 q 157 47 135 17 q 201 108 179 78 q 226 144 204 113 q 283 226 249 176 q 360 340 317 276 q 449 473 403 404 q 542 611 496 542 q 629 742 589 681 q 701 851 669 803 q 750 926 733 899 q 782 966 764 949 q 816 993 800 983 q 842 1005 832 1003 q 853 1001 853 1007 m 836 274 q 812 183 833 229 q 754 99 790 136 q 669 38 718 61 q 561 14 619 14 q 503 24 526 14 q 465 51 479 35 q 446 90 451 68 q 442 135 440 111 q 472 238 444 183 q 571 350 499 292 q 664 401 619 389 q 751 413 708 413 q 816 373 792 413 q 836 274 840 333 m 443 800 q 433 868 446 843 q 399 894 421 894 q 385 895 394 894 q 367 896 376 896 q 299 875 325 896 q 257 828 272 854 q 235 775 242 801 q 229 739 229 749 q 231 700 228 719 q 242 665 233 681 q 263 638 250 649 q 296 628 276 628 q 340 634 315 628 q 385 659 364 640 q 423 711 407 678 q 443 800 439 744 m 743 239 q 731 330 747 304 q 688 356 715 356 q 614 338 642 356 q 571 294 586 321 q 549 237 556 268 q 540 176 542 206 q 542 138 539 157 q 552 102 544 118 q 573 76 560 86 q 606 65 586 65 q 648 76 625 65 q 691 108 671 86 q 726 163 711 131 q 743 239 740 194 z "},"&":{"ha":999,"x_min":43,"x_max":1003,"o":"m 1003 492 q 984 453 1000 467 q 932 433 968 440 q 879 427 911 429 q 828 424 847 425 q 794 376 817 407 q 740 308 772 346 q 667 228 707 269 q 582 146 628 186 q 654 81 611 106 q 750 56 697 56 q 829 65 796 56 q 886 86 863 74 q 926 112 910 99 q 956 135 943 125 q 966 140 961 139 q 976 140 971 140 q 981 135 981 140 q 976 122 981 131 q 969 111 972 114 q 926 75 951 96 q 866 35 901 54 q 784 4 831 17 q 679 -8 738 -8 q 607 3 639 -8 q 551 31 575 15 q 514 62 528 47 q 497 82 500 76 q 469 63 490 78 q 413 31 447 47 q 335 0 379 14 q 240 -14 290 -14 q 165 -4 200 -14 q 102 28 129 6 q 59 83 75 50 q 43 165 43 117 q 63 249 43 210 q 113 321 83 288 q 180 381 143 354 q 250 428 217 407 q 309 462 283 449 q 344 482 335 475 q 343 518 343 500 q 342 553 342 533 q 342 592 342 572 q 378 727 342 657 q 467 855 414 797 q 583 949 521 913 q 696 986 644 986 q 752 978 731 986 q 785 956 774 969 q 799 923 796 942 q 801 883 803 904 q 776 808 799 847 q 719 731 753 769 q 644 655 685 692 q 564 588 603 618 q 493 535 525 557 q 446 501 461 513 q 466 412 453 460 q 496 319 479 364 q 530 238 513 275 q 563 179 547 200 q 654 280 621 236 q 706 356 688 324 q 732 421 725 392 q 708 420 717 421 q 694 419 700 419 q 681 419 688 419 q 667 418 675 418 q 639 417 649 418 q 631 435 629 417 q 643 460 632 450 q 672 476 654 471 q 710 485 689 482 q 753 488 732 488 l 850 490 q 889 492 868 490 q 928 494 910 493 q 959 495 946 494 q 976 496 972 496 q 999 497 994 496 q 1003 492 1003 497 m 696 850 q 644 928 701 928 q 557 901 596 928 q 491 832 518 875 q 449 733 464 789 q 435 619 435 678 q 435 592 435 607 q 436 567 435 578 q 439 539 438 551 q 525 601 481 568 q 606 672 569 633 q 667 754 643 710 q 696 850 692 799 m 472 114 q 426 198 444 160 q 395 273 408 236 q 372 350 382 310 q 349 440 361 390 q 290 407 325 425 q 223 362 256 389 q 167 295 190 335 q 143 197 143 256 q 178 81 143 122 q 278 40 213 40 q 335 47 307 40 q 388 65 363 54 q 434 89 413 76 q 472 114 456 101 z "},"'":{"ha":358,"x_min":101,"x_max":282,"o":"m 281 964 q 274 942 281 957 q 260 906 268 926 q 242 865 251 886 q 224 825 232 843 q 185 751 203 781 q 140 706 168 721 q 126 698 135 703 q 111 693 118 693 q 103 703 101 693 q 111 733 103 706 q 130 797 119 761 q 149 867 140 832 q 161 917 158 901 q 196 966 168 950 q 263 982 224 982 q 281 977 282 982 q 281 964 281 972 z "},"(":{"ha":436,"x_min":54,"x_max":581,"o":"m 581 1007 q 454 899 522 961 q 326 744 386 836 q 221 526 265 653 q 164 225 176 399 q 162 123 160 167 q 170 46 164 79 q 187 -12 176 13 q 208 -58 197 -37 q 201 -81 206 -69 q 193 -100 199 -90 q 181 -117 188 -110 q 170 -131 172 -125 q 146 -136 168 -136 q 112 -114 129 -136 q 81 -53 94 -92 q 61 36 68 -15 q 58 146 54 88 q 122 465 71 319 q 247 724 174 611 q 405 913 319 836 q 571 1025 490 990 l 581 1007 l 581 1007 z "},")":{"ha":471,"x_min":-125,"x_max":401,"o":"m -125 -118 q 1 -10 -67 -72 q 130 144 69 53 q 235 363 190 236 q 292 664 279 490 q 294 766 296 722 q 285 843 292 810 q 269 901 279 876 q 247 947 258 926 q 254 969 250 958 q 275 1006 261 992 q 281 1013 279 1010 q 285 1019 282 1017 q 293 1024 288 1022 q 310 1025 299 1025 q 344 1003 326 1025 q 374 942 361 981 q 394 853 388 904 q 397 743 401 801 q 333 424 385 569 q 209 165 282 278 q 51 -24 136 53 q -115 -136 -35 -101 l -125 -118 l -125 -118 z "},"*":{"ha":513,"x_min":113,"x_max":564,"o":"m 564 958 q 558 933 564 947 q 541 905 551 919 q 518 876 531 890 q 494 853 506 863 q 435 801 464 825 q 372 757 406 776 q 453 709 417 726 q 504 679 490 692 q 494 656 501 668 q 479 634 488 644 q 460 617 471 624 q 440 610 450 610 q 393 626 425 610 q 328 663 361 642 q 319 631 325 647 q 306 594 313 614 q 287 561 294 568 q 264 554 279 554 q 240 558 249 554 q 228 565 232 561 q 246 635 238 607 q 263 694 254 663 q 181 654 217 669 q 132 639 146 639 q 113 656 113 639 q 148 681 114 667 q 240 728 182 694 q 199 765 218 746 q 166 803 181 785 q 144 836 151 821 q 138 864 136 851 q 144 886 138 874 q 159 910 150 899 q 180 928 168 921 q 204 936 192 936 q 224 925 218 936 q 236 903 231 914 q 263 860 247 879 q 296 822 278 840 q 323 922 308 875 q 347 982 338 968 q 363 994 353 990 q 390 1001 374 997 q 406 1006 399 1004 q 424 1007 414 1007 q 432 1001 432 1007 q 431 989 432 994 q 411 926 421 958 q 392 867 403 899 q 371 808 381 836 q 437 863 406 833 q 507 932 468 892 q 528 958 515 942 q 554 974 542 974 q 564 958 564 974 z "},"+":{"ha":625,"x_min":69,"x_max":643,"o":"m 642 483 q 567 433 639 447 q 503 429 551 431 q 393 426 454 428 q 364 342 378 389 q 336 254 350 294 q 299 188 321 211 q 235 164 278 164 q 204 183 204 164 q 210 209 204 192 q 226 249 217 226 q 247 298 236 272 q 268 351 257 324 q 274 369 271 357 q 282 394 278 382 q 293 425 288 410 q 230 424 260 424 q 178 424 200 424 l 129 424 q 109 422 119 424 q 90 422 99 421 q 75 426 81 422 q 69 438 69 429 q 81 469 71 458 q 107 485 92 481 q 141 492 122 490 q 176 493 160 493 l 219 493 q 264 492 239 493 q 315 492 289 492 q 338 562 326 528 q 358 624 349 596 q 372 663 364 642 q 391 705 381 685 q 415 740 401 725 q 443 763 428 756 q 468 769 454 768 q 497 771 482 771 q 508 750 508 771 q 505 732 508 743 q 494 702 501 721 q 474 654 486 683 q 447 583 463 625 q 430 535 438 558 q 415 493 422 513 l 447 493 q 492 494 465 493 q 546 497 519 496 q 592 498 572 497 q 615 499 611 499 q 638 494 633 499 q 642 483 643 489 z "},",":{"ha":324,"x_min":-53,"x_max":203,"o":"m 197 25 q 159 -108 192 -47 q 87 -214 126 -169 q 10 -283 47 -258 q -42 -308 -28 -308 q -51 -306 -53 -308 q -50 -297 -50 -304 q -39 -283 -50 -292 q -12 -263 -28 -275 q 19 -236 3 -251 q 50 -201 36 -221 q 78 -142 69 -174 q 89 -79 86 -110 q 88 -44 90 -58 q 81 -16 85 -29 q 75 12 78 -3 q 74 46 72 26 q 87 76 75 64 q 110 99 99 89 q 142 122 132 117 q 164 128 153 128 q 193 108 183 128 q 197 25 203 89 z "},"-":{"ha":450,"x_min":47,"x_max":404,"o":"m 382 324 l 47 324 l 72 394 l 404 394 l 382 324 z "},".":{"ha":340,"x_min":100,"x_max":240,"o":"m 240 94 q 235 54 240 75 q 220 16 231 33 q 192 -12 210 -1 q 147 -24 174 -24 q 100 17 100 -24 q 121 95 100 61 q 199 129 142 129 q 240 94 240 129 z "},"/":{"ha":493,"x_min":35,"x_max":624,"o":"m 107 -86 q 78 -126 97 -108 q 47 -144 58 -143 q 38 -142 40 -144 q 35 -129 35 -140 q 56 -67 35 -121 q 113 69 78 -14 q 194 255 149 151 q 289 466 240 358 q 385 678 338 574 q 472 865 433 782 q 538 1003 511 949 q 572 1068 565 1058 q 592 1076 581 1072 q 613 1079 604 1079 q 622 1076 621 1079 q 622 1067 624 1072 l 107 -86 z "},":":{"ha":324,"x_min":72,"x_max":315,"o":"m 213 94 q 208 54 213 75 q 192 16 203 33 q 164 -12 182 -1 q 119 -24 146 -24 q 72 17 72 -24 q 93 95 72 61 q 171 129 114 129 q 213 94 213 129 m 315 569 q 310 529 315 550 q 295 491 306 508 q 267 463 285 474 q 222 451 249 451 q 175 492 175 451 q 196 570 175 536 q 274 604 217 604 q 315 569 315 604 z "},";":{"ha":324,"x_min":-53,"x_max":315,"o":"m 197 25 q 159 -108 192 -47 q 87 -214 126 -169 q 10 -283 47 -258 q -42 -308 -28 -308 q -51 -306 -53 -308 q -50 -297 -50 -304 q -39 -283 -50 -292 q -12 -263 -28 -275 q 19 -236 3 -251 q 50 -201 36 -221 q 78 -142 69 -174 q 89 -79 86 -110 q 88 -44 90 -58 q 81 -16 85 -29 q 75 12 78 -3 q 74 46 72 26 q 87 76 75 64 q 110 99 99 89 q 142 122 132 117 q 164 128 153 128 q 193 108 183 128 q 197 25 203 89 m 315 569 q 310 529 315 550 q 295 491 306 508 q 267 463 285 474 q 222 451 249 451 q 175 492 175 451 q 196 570 175 536 q 274 604 217 604 q 315 569 315 604 z "},"<":{"ha":713,"x_min":68,"x_max":643,"o":"m 643 804 q 627 781 643 792 q 596 760 611 771 l 167 444 q 303 340 236 392 q 426 249 360 296 q 547 169 492 201 q 528 129 536 150 q 497 108 519 108 q 471 122 492 108 q 419 158 450 136 q 349 209 388 181 q 272 268 311 238 q 68 428 181 338 l 603 815 q 615 822 610 819 q 629 825 619 825 q 643 804 643 825 z "},"=":{"ha":625,"x_min":99,"x_max":574,"o":"m 574 483 q 499 433 574 446 q 450 429 483 431 q 364 426 417 428 q 258 426 313 425 q 158 424 203 426 q 138 422 146 422 q 122 422 129 422 q 99 438 99 422 q 129 482 101 472 q 206 493 157 493 l 421 493 l 547 499 q 574 483 574 500 m 544 289 q 515 263 544 276 q 482 250 503 256 q 429 238 461 244 q 391 233 417 235 q 325 232 365 232 q 290 232 310 232 q 249 232 269 232 q 210 231 229 232 q 176 229 190 231 q 156 228 164 228 q 140 228 149 228 q 115 243 115 228 q 147 288 115 275 q 222 299 175 299 l 390 299 l 517 304 q 544 289 544 307 z "},">":{"ha":682,"x_min":68,"x_max":643,"o":"m 68 129 q 84 152 68 142 q 115 174 100 163 l 544 489 q 408 593 475 542 q 348 638 379 615 q 285 683 317 661 q 222 726 253 706 q 164 764 190 747 q 174 785 169 774 q 183 805 178 796 q 196 819 189 814 q 214 825 203 825 q 240 811 218 825 q 292 775 261 797 q 362 724 324 753 q 439 665 400 694 q 643 506 531 594 l 108 118 q 97 111 101 114 q 82 108 92 108 q 68 129 68 108 z "},"?":{"ha":657,"x_min":94,"x_max":675,"o":"m 671 817 q 644 726 668 771 q 585 635 621 681 q 504 547 549 590 q 415 461 460 503 q 351 397 378 425 q 309 345 325 368 q 286 305 293 322 q 278 274 279 288 q 268 256 278 265 q 246 238 258 246 q 220 224 233 229 q 199 218 207 218 q 190 233 188 218 q 199 264 192 249 q 223 302 206 279 q 271 359 240 325 q 351 447 301 393 q 416 515 382 481 q 479 588 450 550 q 528 671 508 626 q 551 769 547 715 q 533 894 558 857 q 461 932 508 932 q 380 920 419 932 q 310 884 340 908 q 260 822 279 860 q 236 731 240 783 q 223 706 233 707 q 201 706 213 706 q 180 714 185 706 q 176 744 175 722 q 202 811 178 772 q 269 886 226 850 q 371 948 313 922 q 500 974 429 974 q 561 969 529 974 q 619 950 593 965 q 660 903 644 935 q 671 817 675 871 m 235 93 q 230 53 235 74 q 215 15 225 32 q 186 -14 204 -3 q 142 -25 168 -25 q 94 15 94 -25 q 115 94 94 60 q 193 128 136 128 q 235 93 235 128 z "},"@":{"ha":1233,"x_min":72,"x_max":1267,"o":"m 1267 660 q 1236 476 1267 563 q 1153 317 1206 389 q 1033 188 1101 244 q 890 94 965 132 q 830 69 857 78 q 768 61 803 61 q 724 90 736 61 q 713 157 713 118 q 717 193 713 165 q 742 290 722 221 q 474 67 571 69 q 416 98 433 65 q 401 175 399 131 q 554 468 410 325 q 808 614 683 596 q 851 619 819 614 q 879 623 868 622 q 896 625 890 624 q 928 611 928 625 q 916 589 928 599 q 883 579 904 579 q 849 582 872 579 q 814 585 825 585 q 785 582 797 585 q 758 572 772 579 q 713 544 738 563 q 661 498 688 525 q 609 438 635 471 q 563 367 583 404 q 527 284 539 325 q 513 206 515 243 q 539 138 508 138 q 593 167 557 138 q 683 263 629 196 q 733 328 711 297 q 771 390 754 358 q 783 422 776 403 q 798 460 790 440 q 813 496 806 479 q 829 522 821 513 q 865 551 846 542 q 915 564 883 561 q 925 554 924 564 q 918 533 925 550 q 902 491 911 515 q 883 439 893 467 q 864 386 872 411 q 844 320 854 354 q 826 256 835 286 q 813 200 818 225 q 807 163 807 175 q 812 133 806 147 q 838 119 818 119 q 951 163 888 119 q 1069 279 1014 207 q 1163 444 1125 351 q 1201 638 1201 538 q 1181 783 1201 718 q 1119 895 1160 849 q 1016 967 1078 942 q 871 992 954 992 q 697 967 785 992 q 530 894 610 942 q 381 775 450 846 q 260 613 311 704 q 181 408 210 521 q 151 165 151 296 q 182 -15 151 64 q 267 -147 213 -93 q 394 -229 321 -201 q 553 -257 468 -257 q 712 -231 633 -257 q 859 -161 790 -204 q 985 -66 928 -118 q 1081 39 1042 -14 q 1107 57 1092 54 q 1121 38 1121 57 q 1117 25 1121 32 q 1107 11 1113 18 q 985 -116 1044 -60 q 858 -210 926 -172 q 708 -269 790 -249 q 515 -290 625 -290 q 344 -258 425 -290 q 203 -164 264 -226 q 108 -9 143 -101 q 72 204 72 83 q 106 439 72 329 q 196 639 139 549 q 330 799 253 729 q 494 918 407 869 q 675 992 582 967 q 860 1017 768 1017 q 1045 992 968 1017 q 1172 922 1122 968 q 1244 810 1221 876 q 1267 660 1267 744 z "},"A":{"ha":819,"x_min":29,"x_max":894,"o":"m 894 942 q 872 862 894 926 q 815 690 850 797 q 794 626 806 663 q 769 551 782 590 q 744 472 757 513 q 721 393 732 431 q 770 392 738 392 q 826 389 803 392 q 783 353 814 364 q 707 338 753 342 q 686 263 696 299 q 668 196 678 231 q 651 133 658 161 q 616 55 636 76 q 568 33 596 33 q 536 53 551 33 q 505 102 521 74 q 472 161 489 131 q 438 211 456 192 q 353 274 393 260 q 290 292 314 289 q 261 247 281 276 q 219 181 242 217 q 170 107 196 144 q 122 39 144 69 q 82 -12 100 8 q 57 -33 64 -32 q 33 -27 38 -31 q 29 -3 29 -24 q 49 51 29 13 q 97 134 69 89 q 152 224 124 179 q 199 300 181 269 q 166 298 182 301 q 118 294 150 294 q 74 305 82 294 q 65 336 65 315 q 94 381 65 368 q 168 394 124 393 q 214 395 189 394 q 264 394 239 396 q 389 543 318 465 q 537 696 460 621 q 693 839 614 771 q 843 958 772 907 q 850 961 846 960 q 869 964 858 964 q 894 942 894 964 m 760 854 q 699 797 739 836 q 608 699 660 758 q 492 562 556 640 q 361 388 429 483 q 487 388 418 390 q 613 389 556 386 q 660 538 632 451 q 717 710 689 624 q 751 815 742 786 q 760 854 760 844 m 642 772 q 469 601 560 700 q 297 392 378 503 l 307 392 q 403 503 350 442 q 509 623 447 554 q 644 771 571 692 l 642 772 m 600 326 q 556 326 572 326 q 524 325 539 325 q 492 325 510 325 q 443 328 474 325 q 492 293 468 311 q 533 258 511 278 q 568 217 554 238 q 572 225 571 222 q 576 237 574 228 q 584 266 579 246 q 600 326 589 286 z "},"B":{"ha":807,"x_min":99,"x_max":818,"o":"m 818 839 q 799 781 818 810 q 750 724 779 751 q 687 671 721 696 q 624 625 653 646 q 575 588 594 604 q 556 561 556 571 q 574 525 556 544 q 619 483 592 506 q 678 433 646 460 q 737 376 710 406 q 782 312 764 346 q 800 242 800 278 q 768 133 800 181 q 683 52 736 85 q 560 3 629 19 q 417 -14 492 -14 q 347 -8 379 -14 q 287 8 314 -1 q 240 27 260 17 q 208 44 219 38 q 167 4 189 19 q 118 -11 146 -11 q 105 -8 111 -11 q 99 3 99 -4 q 102 24 99 11 q 110 50 106 36 q 119 77 114 64 q 126 97 124 90 q 114 119 119 108 q 108 153 108 129 q 115 181 108 171 q 131 194 122 190 q 149 199 140 199 q 163 199 158 199 q 235 418 199 310 q 268 515 250 464 q 305 615 286 565 q 342 713 324 665 q 379 800 361 760 q 424 851 403 835 q 461 875 444 868 q 497 881 481 882 q 469 808 486 854 q 431 703 451 761 q 387 580 410 644 q 343 453 364 515 q 306 344 325 403 q 272 235 288 285 q 236 117 254 175 q 270 83 247 100 q 321 53 293 67 q 379 31 349 40 q 438 22 410 22 q 545 31 497 22 q 628 59 593 39 q 681 113 663 79 q 700 197 700 147 q 683 279 700 244 q 641 341 665 314 q 590 389 617 368 q 542 428 563 410 q 488 476 508 457 q 467 522 467 496 q 477 556 467 542 q 502 583 488 571 q 532 603 517 594 q 558 619 547 613 q 669 707 625 664 q 714 808 714 750 q 676 902 714 874 q 572 931 639 931 q 393 897 485 931 q 214 775 301 863 q 192 742 197 758 q 182 713 186 726 q 172 692 178 700 q 153 683 167 683 q 126 687 138 683 q 114 714 114 690 q 160 794 114 749 q 281 878 207 839 q 447 946 356 918 q 628 974 538 974 q 767 942 715 974 q 818 839 818 911 z "},"C":{"ha":663,"x_min":69,"x_max":746,"o":"m 746 903 q 696 796 746 847 q 678 779 690 789 q 653 760 667 769 q 624 744 639 751 q 596 738 608 738 q 588 747 588 738 q 623 795 610 767 q 636 858 636 824 q 619 889 636 881 q 578 897 601 897 q 490 875 536 897 q 398 812 443 853 q 312 715 353 771 q 240 592 271 660 q 190 450 208 525 q 172 296 172 375 q 215 113 172 179 q 354 47 257 47 q 479 71 421 47 q 583 123 538 94 q 658 175 628 151 q 697 199 688 199 q 704 178 708 199 q 681 152 703 172 q 619 106 658 132 q 526 50 579 79 q 410 -1 472 21 q 335 -21 374 -14 q 261 -28 296 -28 q 124 27 179 -28 q 69 189 69 82 q 83 329 69 260 q 132 488 96 399 q 282 744 193 638 q 478 917 371 851 q 571 960 526 946 q 651 975 615 975 q 685 972 668 975 q 715 961 701 969 q 737 939 728 953 q 746 903 746 925 z "},"D":{"ha":1100,"x_min":103,"x_max":1108,"o":"m 1108 364 q 1088 272 1108 319 q 1032 181 1067 225 q 954 102 997 138 q 865 44 911 67 q 755 2 808 17 q 649 -19 701 -12 q 542 -28 596 -26 q 429 -29 488 -29 q 378 -29 397 -29 q 348 -30 360 -29 q 329 -31 336 -31 q 317 -31 322 -31 q 288 -29 301 -31 q 274 -17 274 -28 q 299 31 274 -10 q 356 139 325 71 q 469 389 415 274 q 565 594 522 504 q 639 747 608 685 q 683 833 669 808 q 629 863 661 847 q 559 890 597 878 q 476 911 521 903 q 381 919 431 919 q 285 906 328 919 q 217 867 242 892 q 189 828 199 847 q 174 794 179 810 q 169 765 169 778 q 168 749 168 753 q 178 711 168 729 q 189 678 189 693 q 172 640 189 660 q 140 619 156 619 q 113 631 124 619 q 103 671 103 642 q 124 787 103 729 q 203 894 144 844 q 255 929 225 914 q 316 956 285 944 q 376 973 347 967 q 426 979 406 979 q 606 961 536 979 q 729 914 675 943 q 757 958 739 929 q 794 1014 775 986 q 833 1063 814 1042 q 865 1083 853 1083 q 880 1083 872 1083 q 888 1071 888 1082 q 874 1035 888 1057 q 840 985 860 1014 q 822 956 832 971 q 801 927 811 940 q 785 903 792 914 q 776 889 778 893 q 901 794 840 847 q 1007 676 961 742 q 1081 533 1053 611 q 1108 364 1108 456 m 1006 328 q 985 470 1006 401 q 927 599 964 539 q 839 711 890 660 q 726 803 788 763 q 674 708 704 767 q 612 581 644 650 q 546 438 579 513 q 483 294 513 363 q 431 167 454 225 q 396 72 407 108 q 429 69 410 71 q 472 68 446 68 q 538 68 499 68 q 615 67 567 68 q 715 67 663 65 q 819 79 768 69 q 904 111 869 89 q 953 157 933 129 q 984 215 972 185 q 1001 274 996 244 q 1006 328 1006 304 z "},"E":{"ha":758,"x_min":67,"x_max":853,"o":"m 853 931 q 844 890 853 908 q 821 859 835 872 q 790 837 807 846 q 758 824 774 828 l 750 828 q 767 860 765 844 q 769 888 769 876 q 740 934 769 915 q 650 953 710 953 q 540 933 588 953 q 459 883 492 914 q 410 815 426 853 q 393 739 393 776 q 423 649 393 682 q 488 599 453 617 q 553 572 524 581 q 583 550 583 563 q 567 519 583 533 q 528 501 551 506 q 409 483 469 501 q 301 430 349 465 q 222 341 253 394 q 192 217 192 288 q 203 138 192 175 q 238 74 214 101 q 301 32 263 47 q 393 17 339 17 q 533 38 465 17 q 656 86 600 58 q 751 142 711 114 q 811 186 792 171 l 826 167 q 753 114 804 147 q 635 47 703 81 q 485 -10 567 14 q 321 -35 404 -35 q 131 18 194 -35 q 67 163 67 71 q 90 265 67 217 q 148 353 113 313 q 226 426 183 394 q 310 481 269 458 q 383 517 350 504 q 429 531 415 529 q 391 550 414 538 q 347 582 368 563 q 311 628 326 601 q 296 692 296 656 q 333 813 296 756 q 433 912 371 869 q 574 978 494 954 q 736 1003 653 1003 q 778 999 757 1003 q 815 986 799 994 q 842 964 832 978 q 853 931 853 950 z "},"F":{"ha":719,"x_min":38,"x_max":869,"o":"m 869 921 q 853 877 869 897 q 813 842 836 857 q 764 815 790 826 q 719 800 738 804 l 715 810 q 756 843 747 828 q 764 874 764 858 q 656 910 764 910 q 614 908 636 910 q 571 902 592 906 q 533 896 550 899 q 507 892 515 893 q 476 776 493 840 q 443 656 458 713 q 406 522 425 589 q 458 521 432 521 q 508 521 482 521 q 557 524 533 521 q 638 533 606 526 q 685 539 671 539 q 693 535 693 539 q 677 513 693 524 q 635 494 661 503 q 576 478 608 485 q 508 465 543 471 q 484 462 499 464 q 451 458 469 460 q 415 456 433 457 q 381 456 397 456 q 304 256 343 347 q 230 100 265 165 q 163 -2 194 35 q 107 -39 131 -39 q 62 2 75 -39 q 49 99 49 43 l 58 100 q 82 81 68 89 q 115 72 96 72 q 143 82 126 72 q 182 129 160 92 q 231 242 204 167 q 289 449 257 317 q 281 447 286 447 q 272 446 276 446 q 261 444 267 446 q 240 440 253 443 q 222 436 228 436 q 214 444 214 436 q 231 478 214 460 q 260 504 247 497 q 308 518 279 517 q 351 667 331 597 q 369 726 360 696 q 385 784 378 757 q 399 833 393 811 q 408 869 406 856 q 283 836 335 853 q 195 803 231 819 q 138 774 160 788 q 101 751 115 761 q 82 734 89 742 q 63 726 75 726 q 44 731 51 726 q 38 750 38 735 q 73 780 38 760 q 167 825 108 800 q 301 876 225 850 q 457 922 376 901 q 617 957 538 943 q 763 971 696 971 q 842 960 814 971 q 869 921 869 949 z "},"G":{"ha":729,"x_min":61,"x_max":825,"o":"m 825 429 q 789 385 818 406 q 707 361 760 364 q 674 360 688 360 q 650 360 660 360 q 631 361 639 360 q 619 299 631 338 q 586 218 608 261 q 532 131 564 175 q 459 52 500 88 q 368 -6 418 17 q 261 -28 318 -28 q 113 32 164 -28 q 61 214 61 92 q 88 381 61 293 q 160 553 114 468 q 267 714 206 638 q 398 849 329 790 q 540 941 467 907 q 682 975 613 975 q 712 973 696 975 q 741 963 728 971 q 763 940 754 954 q 771 900 771 925 q 759 847 771 872 q 731 804 747 822 q 699 776 715 786 q 672 765 682 765 q 664 775 664 765 q 669 792 664 781 q 675 840 675 804 q 655 885 675 872 q 608 897 635 897 q 503 872 556 897 q 405 803 451 847 q 318 701 358 760 q 247 576 278 643 q 196 437 215 508 q 172 296 176 365 q 173 188 168 238 q 194 101 178 138 q 238 42 210 64 q 306 21 265 21 q 381 40 347 21 q 440 90 414 60 q 486 159 467 121 q 518 235 506 197 q 536 306 531 272 q 540 361 542 339 q 514 360 528 361 q 488 360 500 358 q 469 369 476 363 q 461 390 461 375 q 478 424 461 413 q 514 435 494 435 q 569 432 549 435 q 622 428 590 429 q 680 426 658 426 q 731 425 701 425 q 786 426 763 425 q 825 429 810 428 z "},"H":{"ha":790,"x_min":-7,"x_max":863,"o":"m 863 183 q 785 112 826 149 q 689 39 744 75 q 636 7 658 19 q 597 -12 614 -6 q 567 -20 581 -18 q 539 -22 553 -22 q 499 -12 514 -22 q 475 13 483 -1 q 464 45 467 28 q 461 78 461 63 q 467 142 461 103 q 483 226 474 181 q 506 320 493 272 q 530 411 518 368 q 552 490 542 454 q 569 544 563 525 q 467 485 518 510 q 374 443 422 461 q 285 425 325 425 q 258 426 269 425 q 239 428 246 426 q 224 432 231 429 q 209 383 218 415 q 189 310 200 350 q 165 227 178 271 q 142 145 153 183 q 120 78 131 107 q 104 40 110 50 q 65 0 86 11 q 32 -11 44 -11 q -1 0 6 -11 q -7 35 -7 11 q 2 74 -7 43 q 24 142 11 104 q 49 219 36 181 q 71 281 63 257 l 142 463 q 130 483 135 471 q 125 519 125 496 q 131 544 125 532 q 145 566 136 556 q 165 582 154 576 q 189 588 176 588 q 236 726 214 663 q 255 780 246 753 q 272 830 264 807 q 288 869 281 853 q 300 892 296 885 q 330 927 317 915 q 354 943 343 939 q 373 947 365 947 q 388 947 381 947 q 399 928 399 947 q 385 872 399 908 q 353 786 372 836 l 264 553 q 279 532 268 540 q 308 517 289 524 q 358 511 326 511 q 436 524 397 511 q 507 553 475 536 q 560 586 539 569 q 586 611 582 603 q 606 675 597 639 q 625 743 614 711 q 656 827 642 794 q 683 879 671 860 q 706 908 696 899 q 725 924 717 918 q 757 942 740 935 q 782 949 774 949 q 794 943 793 949 q 794 926 794 938 q 786 894 794 918 q 763 831 778 869 q 729 741 749 792 q 689 631 710 690 q 646 500 668 571 q 606 358 624 429 q 577 221 589 286 q 565 107 565 156 q 566 91 565 101 q 571 71 567 81 q 583 54 575 61 q 608 47 592 47 q 663 60 635 47 q 720 94 690 72 q 782 144 750 115 q 849 206 814 174 l 863 183 l 863 183 z "},"I":{"ha":456,"x_min":36,"x_max":497,"o":"m 497 967 q 493 956 497 964 q 481 928 489 947 q 458 876 472 910 q 422 789 443 843 q 386 695 403 740 q 351 601 369 650 q 313 495 333 551 q 269 368 293 439 q 238 275 254 324 q 206 172 221 226 q 188 101 196 136 q 169 43 181 67 q 154 23 165 36 q 128 -3 143 10 q 96 -26 113 -17 q 65 -36 79 -36 q 44 -33 53 -36 q 36 -17 36 -31 q 42 13 36 -8 q 57 58 49 35 q 73 105 65 82 q 85 139 81 128 q 141 306 111 215 q 210 506 171 397 q 290 727 260 644 q 333 842 321 810 q 363 912 353 888 q 376 942 372 936 q 402 963 388 954 q 446 976 417 971 q 466 979 454 979 q 489 979 478 979 q 496 975 494 979 q 497 967 497 971 z "},"J":{"ha":456,"x_min":-89,"x_max":503,"o":"m 503 967 q 496 948 503 963 q 473 897 489 933 q 431 799 457 861 q 369 639 406 738 q 351 591 358 611 q 338 550 344 571 q 322 503 331 529 q 299 439 313 478 q 254 317 275 374 q 212 213 233 261 q 167 122 190 164 q 114 42 143 79 q 75 -1 99 22 q 24 -44 51 -24 q -31 -78 -3 -64 q -79 -92 -58 -92 q -87 -87 -87 -92 q -89 -79 -87 -83 q -81 -73 -89 -78 q -63 -61 -74 -68 q -42 -47 -53 -54 q -25 -32 -32 -39 q 6 4 -7 -12 q 29 38 19 21 q 47 74 39 54 q 67 121 56 93 q 121 261 86 168 q 210 506 156 354 l 328 831 q 343 872 338 856 q 351 894 349 888 q 369 932 361 918 q 385 953 378 946 q 401 965 393 961 q 422 972 410 968 q 453 977 429 975 q 494 979 478 979 q 503 967 503 979 z "},"K":{"ha":850,"x_min":39,"x_max":904,"o":"m 904 919 q 892 874 904 897 q 861 831 881 851 q 817 792 842 810 q 769 763 793 774 l 764 771 q 788 803 778 786 q 797 838 797 821 q 769 863 797 863 q 703 842 744 863 q 617 776 663 821 q 553 713 586 747 q 493 649 521 678 q 428 579 460 613 q 438 558 432 571 q 447 533 442 547 q 458 501 451 519 q 481 432 468 468 q 505 361 493 396 q 528 294 517 326 q 550 235 540 261 q 624 83 585 142 q 708 25 663 25 q 780 42 747 25 q 861 100 813 60 l 871 71 q 740 -28 800 0 q 622 -57 681 -57 q 578 -47 601 -57 q 531 -14 556 -37 q 483 49 507 10 q 439 149 460 89 q 406 244 422 194 q 376 338 390 294 q 350 417 361 382 q 333 467 339 451 q 291 406 322 447 q 229 288 260 365 q 209 235 218 261 q 193 188 200 208 q 179 139 185 163 q 168 101 172 118 q 158 74 164 83 q 142 46 151 57 q 109 16 131 31 q 68 1 88 1 q 39 26 39 1 q 47 61 39 33 q 67 132 54 89 q 98 231 81 175 q 135 349 115 286 q 172 469 153 407 q 209 592 190 531 q 246 709 228 653 q 281 814 264 765 q 293 848 286 829 q 307 885 300 867 q 321 918 314 903 q 333 942 328 933 q 356 963 342 954 q 386 978 371 972 q 416 988 401 985 q 440 990 431 990 q 446 972 446 990 q 441 953 446 965 q 429 925 436 940 q 415 894 422 910 q 403 864 408 878 q 368 765 389 828 q 326 635 347 701 q 286 509 304 568 q 260 421 268 450 l 264 419 l 319 494 q 328 530 322 508 q 357 575 333 551 q 379 589 367 585 q 399 593 392 593 q 462 663 433 632 q 517 722 490 694 q 568 776 543 750 q 621 829 593 801 q 680 879 649 857 q 742 917 711 901 q 802 942 774 933 q 854 950 831 950 q 868 949 860 950 q 885 946 876 949 q 899 937 893 943 q 904 919 904 931 z "},"L":{"ha":536,"x_min":36,"x_max":506,"o":"m 506 29 q 478 3 506 17 q 442 -11 463 -4 q 392 -22 421 -18 q 353 -26 379 -25 q 283 -28 326 -26 q 203 -28 243 -29 q 124 -31 164 -28 q 102 -30 113 -31 q 81 -32 92 -29 q 72 -35 78 -33 q 63 -36 68 -36 q 56 -36 58 -36 q 40 -30 44 -36 q 36 -17 36 -24 q 47 32 36 -1 q 85 139 58 65 l 326 811 q 353 877 340 850 q 383 921 367 904 q 435 961 406 943 q 494 979 464 979 q 503 967 503 979 q 496 947 503 963 q 478 908 489 932 q 454 854 468 885 q 428 789 440 824 q 382 667 406 732 q 337 543 358 603 q 299 436 315 483 q 275 368 282 389 q 255 307 267 343 q 230 228 243 271 q 202 137 217 185 q 174 39 188 89 l 353 39 q 449 42 419 39 q 489 46 478 46 q 506 29 506 46 z "},"M":{"ha":1138,"x_min":-35,"x_max":1218,"o":"m 1218 189 q 1181 162 1199 175 q 1144 135 1164 149 q 1100 105 1125 121 q 1042 69 1075 89 q 963 24 996 42 q 905 -3 929 7 q 865 -18 881 -14 q 839 -22 850 -22 q 799 -3 806 -22 q 792 33 792 17 q 799 75 792 46 q 816 144 806 104 q 840 230 826 183 q 869 322 854 276 q 947 560 904 431 l 942 561 q 800 381 888 490 q 569 106 713 271 q 542 75 558 93 q 508 40 525 57 q 476 13 492 24 q 450 1 460 1 q 428 10 432 1 q 424 38 424 19 q 438 110 424 54 q 472 241 451 167 q 516 397 493 315 q 556 544 539 478 l 578 632 l 571 635 q 548 597 565 625 q 506 531 531 569 q 453 447 482 492 q 395 360 424 403 q 341 281 367 318 q 299 222 315 244 q 203 106 244 151 q 130 35 163 61 q 72 -1 97 8 q 22 -11 46 -11 q -10 -2 1 -11 q -26 19 -21 7 q -33 46 -32 32 q -35 68 -35 60 q -7 157 -35 118 q 53 213 21 196 l 61 211 q 60 179 60 196 q 65 148 61 163 q 77 124 69 133 q 100 114 85 114 q 128 122 111 114 q 167 148 144 129 q 221 199 190 167 q 292 283 251 232 q 371 393 326 328 q 458 528 415 458 q 539 662 501 597 q 597 769 576 726 q 614 816 608 799 q 624 844 619 833 q 632 865 628 856 q 644 889 636 874 q 675 921 656 908 q 711 933 694 933 q 747 932 735 933 q 758 911 758 931 q 739 817 758 865 q 700 706 719 768 q 657 565 679 640 q 616 423 635 490 q 584 304 597 356 q 567 235 571 253 q 563 219 565 231 q 558 197 560 208 q 556 176 556 185 q 560 167 556 167 q 590 192 564 167 q 653 262 615 218 q 737 363 690 306 q 831 482 783 419 q 922 608 878 544 q 997 728 965 671 q 1019 793 1010 765 q 1038 843 1029 821 q 1055 883 1046 865 q 1078 919 1064 901 q 1119 955 1099 947 q 1161 963 1140 963 q 1179 949 1176 963 q 1182 917 1182 936 q 1172 870 1182 901 q 1147 803 1161 839 q 1116 735 1132 768 q 1088 681 1100 701 q 1063 610 1079 658 q 1028 504 1047 563 q 988 383 1008 446 q 951 267 968 321 q 923 176 933 214 q 913 132 913 139 q 910 113 913 124 q 910 94 908 103 q 919 81 911 86 q 947 75 926 75 q 998 88 968 75 q 1062 119 1028 100 q 1133 163 1096 139 q 1204 211 1169 188 l 1218 189 l 1218 189 z "},"N":{"ha":793,"x_min":13,"x_max":863,"o":"m 863 967 q 856 944 863 963 q 839 900 849 926 q 818 844 829 874 q 797 789 807 815 q 763 690 779 739 q 731 591 747 642 q 697 485 714 540 q 663 368 681 431 q 635 269 647 318 q 612 178 622 219 q 593 106 601 136 q 578 65 585 76 q 513 -22 544 8 q 481 -36 497 -36 q 456 -21 465 -36 q 438 26 446 -6 q 427 75 433 40 q 414 154 421 110 q 399 249 407 199 q 386 346 392 300 q 370 472 378 413 q 356 585 363 531 q 343 693 350 640 q 331 803 336 746 q 311 749 326 790 q 276 649 296 708 q 234 517 257 590 q 190 368 211 444 q 156 238 171 294 q 131 143 140 182 q 111 65 118 97 q 100 33 104 46 q 74 4 96 21 q 51 -8 67 0 q 22 -15 36 -15 q 13 -1 13 -15 q 17 20 13 6 q 26 47 22 35 q 67 174 40 89 q 128 368 94 260 q 198 597 161 476 q 268 831 235 718 q 278 865 272 847 q 291 899 285 883 q 302 926 297 915 q 310 940 307 938 q 316 949 313 944 q 325 957 319 953 q 348 971 332 963 q 383 979 364 979 q 407 978 401 979 q 418 969 413 976 q 425 953 424 963 q 430 915 428 931 q 435 876 432 899 q 442 808 438 851 q 453 713 447 765 q 467 600 460 660 q 481 482 474 540 q 493 396 486 442 q 508 306 500 350 q 523 224 515 263 q 536 158 531 185 q 611 413 575 288 q 643 522 626 465 q 676 634 660 579 q 707 740 692 689 q 735 833 722 792 q 744 865 739 849 q 753 897 749 882 q 761 924 757 913 q 769 940 765 936 q 791 963 776 951 q 831 978 806 974 q 843 979 838 979 q 856 979 849 979 q 863 967 863 979 z "},"O":{"ha":921,"x_min":81,"x_max":892,"o":"m 892 739 q 885 644 892 697 q 863 532 879 592 q 816 407 846 472 q 739 274 786 342 q 527 56 643 136 q 281 -25 411 -25 q 190 -4 228 -25 q 128 50 153 17 q 92 125 104 83 q 81 208 81 167 q 114 419 81 321 q 194 595 147 518 q 294 726 242 672 q 386 803 347 779 q 517 939 433 894 q 689 983 600 983 q 783 962 744 983 q 847 905 822 940 q 881 826 871 869 q 892 739 892 782 m 783 711 q 778 780 783 742 q 756 851 772 818 q 708 907 739 885 q 625 929 676 929 q 560 919 590 929 q 508 894 531 910 q 469 860 485 878 q 444 825 453 842 q 528 864 482 849 q 607 879 575 879 q 649 876 636 879 q 663 858 663 872 q 653 847 663 847 q 633 851 642 847 q 607 856 624 856 q 563 851 588 856 q 514 836 539 846 q 467 813 489 826 q 428 782 444 799 q 426 763 425 771 q 425 744 428 756 q 408 726 421 731 q 383 722 394 722 q 372 732 374 722 q 372 750 369 742 q 316 681 346 721 q 261 585 286 642 q 219 454 236 529 q 203 281 203 379 q 211 197 203 238 q 239 123 219 156 q 291 71 258 90 q 372 51 324 51 q 513 97 447 51 q 639 226 579 143 q 700 335 674 274 q 745 461 726 396 q 774 591 764 526 q 783 711 783 656 z "},"P":{"ha":893,"x_min":58,"x_max":983,"o":"m 983 808 q 938 665 983 735 q 817 540 892 596 q 647 447 742 483 q 453 403 551 410 q 413 283 431 332 q 389 189 396 235 q 384 126 382 149 q 386 83 386 103 q 377 58 386 78 q 361 28 368 38 q 328 -8 346 7 q 283 -22 310 -22 q 265 -12 275 -22 q 254 21 254 -3 q 272 133 254 69 q 314 264 290 197 q 328 303 319 281 q 343 344 336 325 q 360 393 351 368 q 301 403 322 394 q 279 426 279 411 q 282 455 279 439 q 300 472 285 471 q 318 461 313 472 q 339 443 324 450 q 364 436 353 436 q 378 436 369 435 q 448 627 413 529 q 528 844 483 725 q 567 870 547 863 q 603 881 588 878 q 639 881 621 883 q 612 806 632 858 q 566 690 592 754 q 514 559 540 626 q 469 439 488 492 q 615 468 542 440 q 746 541 688 496 q 841 647 804 586 q 878 775 878 707 q 824 889 878 847 q 657 931 769 931 q 504 917 582 931 q 356 878 426 903 q 229 821 286 854 q 139 750 172 788 q 125 724 128 738 q 120 700 122 711 q 114 682 118 689 q 97 675 110 675 q 70 678 82 675 q 58 706 58 682 q 84 750 58 722 q 156 809 110 778 q 265 872 203 840 q 401 931 328 904 q 556 973 475 957 q 719 989 636 989 q 844 976 793 989 q 926 938 894 963 q 970 881 957 914 q 983 808 983 847 z "},"Q":{"ha":860,"x_min":38,"x_max":892,"o":"m 885 758 q 867 640 881 700 q 831 518 854 581 q 763 376 803 446 q 675 242 724 306 q 572 127 626 179 q 460 40 517 75 q 499 -17 481 11 q 538 -74 517 -46 q 582 -128 561 -106 q 622 -167 603 -151 q 599 -187 614 -179 q 553 -194 585 -194 q 505 -178 531 -194 q 451 -122 479 -161 q 414 -65 433 -97 q 375 -1 394 -33 q 249 -25 308 -25 q 53 186 38 -28 q 87 341 58 257 q 163 510 115 425 q 276 678 211 596 q 419 828 342 760 q 540 911 476 876 q 650 946 603 946 q 701 963 675 956 q 768 971 726 971 q 861 914 831 971 q 885 758 892 857 m 767 704 q 749 846 774 803 q 664 889 725 889 q 558 866 607 889 q 460 803 510 843 q 364 699 413 763 q 274 558 315 635 q 206 395 233 481 q 172 226 178 310 q 203 92 165 140 q 310 47 242 44 l 342 49 q 327 71 333 64 q 311 86 321 78 q 383 106 321 106 q 408 99 394 106 q 433 79 422 92 q 586 209 521 117 q 703 435 651 301 q 767 704 756 575 z "},"R":{"ha":793,"x_min":14,"x_max":808,"o":"m 808 847 q 783 747 808 793 q 717 660 757 700 q 633 587 678 621 q 548 523 588 553 q 483 468 508 493 q 457 422 457 443 q 490 319 457 375 q 561 200 524 263 q 624 109 593 149 q 683 38 654 69 q 718 1 704 14 q 732 -17 732 -12 q 719 -34 732 -29 q 683 -39 706 -39 q 624 -25 653 -39 q 568 13 594 -11 q 517 67 542 36 q 472 133 493 99 q 427 207 449 169 q 388 278 406 244 q 359 340 369 313 q 349 385 349 368 q 353 406 349 396 q 378 435 357 415 q 416 464 389 444 q 478 510 443 483 q 552 571 514 538 q 622 642 590 604 q 674 720 653 679 q 694 803 694 761 q 496 932 694 932 q 398 922 454 932 q 285 894 342 913 q 176 846 228 875 q 94 778 125 817 q 81 751 85 765 q 72 723 76 736 q 62 701 68 710 q 42 692 56 692 q 20 694 26 692 q 14 719 14 696 q 34 763 14 736 q 91 820 54 790 q 178 880 128 850 q 290 934 229 910 q 417 974 350 958 q 556 989 485 989 q 681 976 632 989 q 759 944 731 964 q 798 899 788 925 q 808 847 808 874 m 450 881 q 378 670 415 782 q 306 459 340 558 q 247 285 272 360 q 213 183 222 210 q 208 165 211 176 q 200 133 204 153 q 188 82 193 100 q 171 46 182 64 q 151 22 164 35 q 122 -3 138 8 q 92 -21 107 -14 q 67 -28 78 -28 q 38 -8 38 -28 q 51 48 38 11 q 76 125 64 85 q 96 181 86 154 q 119 244 106 208 q 150 326 132 279 q 194 444 168 374 q 255 612 219 514 q 339 844 290 710 q 378 870 358 863 q 414 881 399 878 q 450 881 432 883 z "},"S":{"ha":690,"x_min":-12,"x_max":754,"o":"m 750 925 q 752 892 754 914 q 735 851 750 871 q 709 826 726 840 q 672 806 692 811 q 664 852 672 826 q 633 897 656 878 q 533 936 592 936 q 460 925 496 936 q 394 891 424 914 q 344 834 364 868 q 322 756 325 800 q 342 662 318 703 q 401 584 365 621 q 480 513 438 547 q 557 442 522 479 q 609 364 592 406 q 624 286 626 322 q 581 157 618 215 q 484 56 543 99 q 350 -10 425 14 q 196 -33 275 -33 q 128 -26 165 -33 q 60 -3 92 -18 q 8 38 29 13 q -11 96 -12 63 q 22 169 -8 139 q 100 201 51 200 q 103 134 97 165 q 127 80 108 103 q 179 44 146 57 q 265 31 213 31 q 376 52 329 31 q 453 105 422 74 q 500 172 485 136 q 518 236 515 208 q 503 310 521 272 q 444 382 485 347 q 392 430 418 406 q 343 476 365 454 q 303 515 321 497 q 276 543 286 533 q 218 703 211 614 q 251 810 222 758 q 328 903 281 863 q 439 967 376 943 q 571 992 501 992 q 690 972 644 992 q 750 925 735 951 z "},"T":{"ha":658,"x_min":-1,"x_max":867,"o":"m 867 910 q 851 875 867 892 q 812 844 835 858 q 763 819 789 831 q 717 803 736 808 l 713 813 q 761 882 761 842 q 653 913 761 913 q 627 911 644 913 q 589 908 610 910 q 546 902 568 906 q 504 894 524 899 q 444 669 481 794 q 342 396 407 544 q 245 188 288 272 q 169 51 203 103 q 108 -24 135 -1 q 57 -47 81 -47 q 12 -6 25 -47 q -1 90 -1 35 l 8 92 q 32 72 18 81 q 65 64 46 64 q 94 68 76 64 q 138 106 113 72 q 199 215 164 139 q 281 436 235 292 q 364 715 333 603 q 406 872 394 828 q 234 823 297 847 q 136 778 171 799 q 88 746 101 758 q 63 733 74 733 q 41 735 47 733 q 35 753 35 738 q 70 783 35 763 q 164 828 106 803 q 297 878 222 853 q 451 925 372 904 q 607 960 531 946 q 746 974 683 974 q 835 959 804 974 q 867 910 867 944 z "},"U":{"ha":1032,"x_min":33,"x_max":1081,"o":"m 1081 144 q 867 -5 951 38 q 744 -47 782 -47 q 709 -40 722 -47 q 690 -21 696 -32 q 682 5 683 -10 q 681 33 681 19 q 695 131 681 68 q 733 276 710 194 q 785 451 756 357 q 844 639 814 544 q 812 599 826 617 q 780 560 797 581 q 742 515 763 540 q 691 456 721 490 q 619 372 661 421 q 518 257 576 324 q 452 183 482 217 q 394 119 422 149 q 337 62 365 89 q 276 6 308 35 q 235 -18 265 -6 q 190 -31 210 -29 q 161 -11 171 -31 q 157 38 156 7 q 208 194 160 67 q 274 358 247 292 q 319 473 300 425 q 352 555 339 521 q 377 620 365 589 q 401 687 389 651 q 429 774 413 722 q 440 806 436 794 q 444 826 443 818 q 446 839 446 833 q 446 851 446 844 q 440 878 446 867 q 410 890 435 890 q 361 881 388 890 q 312 858 335 871 q 271 833 289 846 q 247 817 253 821 q 191 769 221 794 q 133 703 161 743 q 113 658 118 682 q 104 613 108 633 q 92 580 100 593 q 64 567 83 567 q 42 572 51 567 q 33 589 33 576 q 58 663 33 622 q 119 742 83 703 q 193 813 154 781 q 261 864 232 846 q 391 936 332 908 q 514 964 450 964 q 539 956 531 964 q 551 938 547 949 q 556 912 556 926 q 557 883 557 897 q 526 748 557 857 q 411 431 494 639 q 375 337 392 383 q 344 251 358 290 q 322 185 331 213 q 314 149 314 158 q 322 133 313 135 q 384 172 339 133 q 500 289 429 210 q 548 345 514 306 q 627 439 582 385 q 724 558 672 493 q 825 689 776 622 q 864 742 850 722 q 887 774 878 761 q 903 799 896 788 q 921 828 910 810 q 959 873 942 860 q 996 897 976 886 q 1029 905 1010 904 q 1056 906 1049 906 q 1067 893 1067 906 q 1060 876 1065 886 q 1043 842 1054 867 q 1007 763 1024 801 q 974 682 990 724 q 940 592 957 640 q 900 486 922 544 q 868 391 886 449 q 833 273 850 333 q 806 158 817 213 q 794 69 794 103 q 795 56 794 64 q 799 42 796 49 q 809 32 801 36 q 831 28 817 28 q 883 40 853 28 q 944 73 913 53 q 1008 118 976 93 q 1067 167 1039 143 l 1081 144 l 1081 144 z "},"V":{"ha":758,"x_min":61,"x_max":1022,"o":"m 1022 946 q 1021 935 1021 939 q 1019 928 1021 931 q 1001 864 1017 910 q 946 747 985 818 q 779 476 865 600 q 614 256 693 351 q 470 95 535 160 q 371 3 406 31 q 333 -23 356 -10 q 288 -36 311 -36 q 264 -18 268 -36 q 260 24 260 0 q 271 93 260 43 q 300 212 282 143 q 340 363 318 281 q 386 526 363 444 q 397 567 390 542 q 413 624 404 593 q 429 689 421 656 q 444 753 438 722 q 456 810 451 785 q 460 851 460 836 q 454 878 460 867 q 424 890 449 890 q 359 873 396 890 q 285 828 322 856 q 215 767 249 801 q 161 699 182 733 q 142 653 147 676 q 131 610 136 629 q 117 579 125 592 q 92 567 110 567 q 70 572 79 567 q 61 589 61 576 q 85 661 61 621 q 144 740 110 701 q 217 813 179 779 q 285 864 256 846 q 409 936 354 908 q 528 964 464 964 q 553 956 544 964 q 565 938 561 949 q 570 912 569 926 q 571 883 571 897 q 567 844 571 871 q 556 786 563 818 q 540 720 549 754 q 524 656 532 686 q 481 493 504 578 q 439 335 458 408 q 407 208 419 261 q 394 143 394 156 q 399 127 394 132 q 411 122 404 122 q 470 166 425 122 q 577 285 515 210 q 708 460 639 360 q 842 675 778 561 q 880 756 867 719 q 899 821 893 793 q 906 869 904 849 q 907 904 907 890 q 950 942 921 922 q 1003 961 979 961 q 1022 946 1021 961 z "},"W":{"ha":1322,"x_min":63,"x_max":1454,"o":"m 1454 951 q 1453 940 1453 944 q 1451 933 1453 936 q 1443 905 1450 925 q 1426 860 1436 885 q 1403 806 1415 835 q 1378 753 1390 778 q 1243 518 1318 632 q 1093 306 1168 404 q 951 131 1018 208 q 842 6 885 53 q 782 -45 815 -24 q 725 -67 749 -67 q 703 -53 706 -67 q 701 -28 701 -39 q 708 36 701 -3 q 725 124 714 75 q 744 208 733 161 q 769 306 756 256 q 796 410 782 357 q 822 513 810 463 q 886 753 853 629 l 879 756 q 841 694 863 729 q 794 621 819 660 q 743 542 769 582 q 692 464 717 501 q 526 238 608 340 q 358 39 444 135 q 299 -12 332 10 q 242 -33 265 -33 q 220 -19 222 -33 q 218 6 218 -6 q 224 69 218 31 q 242 157 231 108 q 268 262 251 199 q 304 397 285 325 q 344 542 324 468 q 380 678 364 615 q 406 788 396 742 q 417 851 417 835 q 411 878 417 867 q 381 890 406 890 q 317 874 350 890 q 255 834 285 858 q 201 781 225 810 q 163 725 176 751 q 144 675 150 700 q 133 631 138 650 q 119 601 128 613 q 93 589 111 589 q 72 594 81 589 q 63 611 63 599 q 83 688 63 647 q 139 768 104 729 q 218 842 174 807 q 310 905 263 878 q 402 948 357 932 q 485 964 447 964 q 510 956 501 964 q 522 938 518 949 q 527 912 526 926 q 528 883 528 897 q 517 827 528 878 q 488 703 506 776 q 449 544 469 629 q 407 385 428 458 q 385 301 396 347 q 365 217 374 256 q 356 151 357 178 q 365 125 354 125 q 415 163 379 125 q 493 257 450 201 q 581 375 536 313 q 658 486 625 438 q 730 594 694 540 q 797 699 765 649 q 856 791 829 749 q 904 863 883 833 q 954 894 935 886 q 986 904 974 901 q 1001 895 997 904 q 1006 878 1006 886 q 1003 844 1006 860 q 997 814 1000 828 q 960 674 978 740 q 924 542 942 608 q 888 402 906 475 q 850 242 869 329 q 841 194 846 221 q 834 145 836 168 q 835 107 832 122 q 849 92 838 92 q 898 130 863 92 q 976 224 933 168 q 1064 342 1019 279 q 1142 453 1108 404 q 1223 594 1189 522 q 1294 753 1257 665 q 1306 788 1300 768 q 1316 828 1311 807 q 1326 870 1321 849 q 1339 910 1332 892 q 1382 947 1353 928 q 1435 967 1411 967 q 1454 951 1453 967 z "},"X":{"ha":701,"x_min":8,"x_max":767,"o":"m 767 163 q 708 113 743 142 q 633 56 674 83 q 547 8 592 28 q 456 -11 501 -11 q 342 80 386 -11 q 275 360 299 171 q 213 279 251 329 q 128 139 175 229 q 101 78 113 111 q 81 19 90 46 q 62 -26 71 -8 q 44 -44 53 -44 q 16 -32 24 -44 q 8 -1 8 -19 q 35 53 14 13 q 90 150 57 94 q 167 272 124 206 q 261 404 210 338 q 228 634 240 549 q 214 747 217 719 q 202 799 210 783 q 186 819 194 814 q 166 825 176 825 q 156 842 156 825 q 160 862 156 850 q 170 888 164 874 q 185 916 176 901 q 203 942 194 931 q 226 965 214 957 q 244 972 238 972 q 258 972 250 972 q 272 965 265 971 q 285 944 279 958 q 296 904 292 931 q 309 810 303 863 q 321 705 315 758 q 331 600 326 651 q 343 508 336 549 q 416 609 378 558 q 491 706 454 660 q 558 792 528 753 q 610 856 589 831 q 672 928 642 896 q 717 960 701 960 q 736 954 726 960 q 746 929 746 949 q 740 898 746 910 q 720 874 733 886 q 687 844 707 861 q 638 797 667 826 q 584 740 619 779 q 508 653 549 701 q 426 551 467 604 q 356 454 385 499 q 388 274 371 349 q 424 153 404 200 q 468 83 444 106 q 522 61 492 61 q 581 73 549 61 q 644 103 613 85 q 703 142 675 121 q 753 185 732 164 l 767 163 l 767 163 z "},"Y":{"ha":865,"x_min":35,"x_max":963,"o":"m 963 949 q 952 899 963 925 q 927 847 942 874 q 895 794 913 819 q 865 747 878 768 q 791 532 826 635 q 713 339 756 429 q 506 67 631 165 q 231 -32 381 -32 q 141 -21 172 -32 q 111 11 110 -10 q 116 26 111 14 q 138 39 121 39 q 157 32 150 39 q 172 17 164 25 q 190 3 179 10 q 219 -4 200 -4 q 324 9 278 -4 q 411 51 371 22 q 489 128 451 81 q 568 244 526 175 q 607 319 589 279 q 644 406 625 358 q 685 508 664 453 q 733 626 707 563 l 729 628 q 683 580 714 608 q 612 519 651 551 q 528 453 572 486 q 446 392 485 419 q 420 376 436 385 q 386 361 404 368 q 349 349 368 354 q 314 344 331 344 q 290 358 296 344 q 285 399 285 371 q 294 440 285 411 q 318 506 304 469 q 348 581 332 543 q 376 650 364 619 q 405 720 392 685 q 427 787 418 756 q 442 842 436 818 q 447 882 447 867 q 442 909 447 897 q 411 921 436 921 q 363 911 389 921 q 313 889 336 901 q 272 864 290 876 q 249 847 254 851 q 192 799 222 825 q 135 733 163 774 q 115 688 119 713 q 106 644 110 664 q 93 610 101 624 q 65 597 85 597 q 44 602 53 597 q 35 619 35 607 q 60 693 35 653 q 120 772 85 733 q 194 844 156 811 q 263 894 233 876 q 392 967 333 939 q 515 994 451 994 q 540 987 532 994 q 553 968 549 979 q 558 942 557 957 q 558 914 558 928 q 551 869 558 897 q 534 808 544 840 q 512 741 524 775 q 489 676 500 707 q 467 617 479 651 q 443 551 454 583 q 424 494 432 519 q 417 464 417 469 q 435 449 417 449 q 453 452 446 449 q 475 463 461 456 q 547 508 506 475 q 630 581 588 540 q 709 665 672 621 q 768 746 746 710 q 793 816 781 785 q 818 874 806 847 q 861 939 842 922 q 944 971 897 969 q 963 949 963 971 z "},"Z":{"ha":738,"x_min":35,"x_max":892,"o":"m 892 926 q 840 843 892 899 q 747 743 785 783 q 684 674 710 703 q 640 623 658 644 q 603 581 621 601 q 563 536 585 560 q 508 479 540 513 q 428 394 476 446 q 326 283 379 342 q 222 165 272 225 q 138 58 172 106 q 206 71 167 63 q 290 88 246 79 q 380 102 335 96 q 464 108 425 108 q 562 107 518 108 q 628 99 606 106 q 651 90 643 94 q 658 74 658 85 q 639 28 658 56 q 594 -12 619 1 q 519 6 572 -3 q 403 14 465 14 q 347 10 382 14 q 274 1 313 7 q 200 -10 236 -4 q 142 -19 164 -15 q 97 -26 121 -24 q 69 -28 74 -28 q 35 -1 35 -28 q 114 114 36 19 q 253 270 168 179 q 432 463 338 361 q 578 619 519 556 q 674 722 636 682 q 731 785 711 763 q 760 820 750 807 q 776 840 771 833 q 788 857 781 847 q 723 859 763 860 q 633 854 683 858 q 524 843 582 850 q 407 828 467 836 q 292 811 299 811 q 279 815 285 811 q 274 828 274 818 q 352 891 300 857 q 501 942 404 925 q 563 949 529 947 q 636 950 596 950 q 759 949 697 950 q 857 944 821 949 q 892 926 892 940 z "},"[":{"ha":539,"x_min":67,"x_max":679,"o":"m 679 986 q 668 969 679 978 q 640 955 657 961 q 604 943 624 949 q 568 935 585 938 q 529 931 550 932 q 489 928 508 929 q 470 875 481 906 q 446 804 460 844 q 431 753 440 788 q 410 679 421 719 q 390 598 400 639 q 374 526 381 557 q 344 394 363 474 q 304 230 325 315 q 264 63 283 144 q 231 -74 244 -18 q 210 -165 218 -128 q 189 -221 201 -203 l 213 -221 q 251 -220 231 -221 q 290 -218 272 -219 q 322 -216 308 -217 q 339 -215 335 -215 q 362 -220 357 -215 q 367 -231 367 -225 q 356 -247 367 -239 q 328 -262 344 -256 q 292 -274 311 -268 q 256 -282 272 -279 q 215 -286 238 -285 q 174 -289 193 -287 q 128 -290 150 -290 q 108 -292 118 -290 q 88 -292 97 -293 q 73 -288 79 -292 q 67 -276 67 -285 q 74 -240 67 -261 q 90 -189 81 -219 q 105 -138 100 -158 q 113 -107 110 -118 q 138 -1 122 -68 q 172 144 154 67 q 207 297 190 221 q 236 426 224 372 q 271 572 251 497 q 308 708 290 646 q 349 851 328 782 q 359 885 354 871 q 369 915 364 900 q 374 927 372 922 q 379 938 376 932 q 465 1000 407 1000 q 490 999 476 1000 q 506 996 504 999 l 525 996 q 564 997 543 996 q 603 999 585 997 q 634 1001 621 1000 q 651 1001 647 1001 q 674 997 669 1001 q 679 986 679 992 z "},"\\":{"ha":513,"x_min":58,"x_max":514,"o":"m 514 -97 q 483 -122 514 -122 q 467 -121 472 -122 q 451 -100 463 -119 l 58 1033 q 81 1058 68 1049 q 111 1067 93 1068 q 139 1004 118 1057 q 189 870 160 951 q 252 688 218 789 q 322 483 286 588 q 390 278 357 379 q 451 98 424 178 q 494 -35 478 18 q 514 -97 511 -87 z "},"]":{"ha":533,"x_min":-60,"x_max":553,"o":"m -60 -278 q -49 -261 -60 -269 q -21 -247 -37 -253 q 15 -235 -4 -240 q 51 -226 35 -229 q 90 -222 69 -224 q 131 -219 111 -221 q 149 -167 139 -197 q 174 -96 160 -136 q 189 -45 179 -79 q 209 29 199 -11 q 229 110 219 69 q 246 182 239 151 q 276 313 257 233 q 315 478 294 393 q 356 645 336 564 q 389 782 375 726 q 410 874 401 836 q 431 929 418 911 l 407 929 q 368 928 389 929 q 329 926 347 928 q 298 924 311 925 q 281 924 285 924 q 258 928 263 924 q 253 939 253 933 q 264 956 253 947 q 292 970 275 964 q 328 982 308 976 q 364 990 347 988 q 404 994 382 993 q 446 997 426 996 q 492 999 469 999 q 512 1000 501 999 q 531 1001 522 1001 q 547 997 540 1000 q 553 985 553 993 q 546 949 553 969 q 529 897 539 928 q 515 847 519 867 q 507 815 510 826 q 481 709 497 776 q 447 565 465 642 q 413 412 429 488 q 383 282 396 336 q 348 137 368 211 q 311 0 328 63 q 271 -143 290 -74 q 260 -177 265 -162 q 250 -207 256 -192 q 245 -219 247 -214 q 240 -229 243 -224 q 154 -292 213 -292 q 129 -291 143 -292 q 114 -287 115 -290 l 94 -287 q 56 -288 76 -287 q 17 -290 35 -289 q -15 -292 -1 -292 q -32 -293 -28 -293 q -55 -288 -50 -293 q -60 -278 -60 -283 z "},"^":{"ha":603,"x_min":115,"x_max":560,"o":"m 558 750 q 545 719 560 736 q 518 703 531 703 q 508 703 511 703 q 500 710 506 704 l 313 883 l 150 718 q 146 710 149 714 q 132 703 142 703 q 116 715 117 703 q 124 738 115 726 l 333 951 l 342 953 q 426 878 386 914 q 498 811 461 846 q 558 750 535 776 z "},"_":{"ha":782,"x_min":-10,"x_max":797,"o":"m -10 -161 l -10 -106 l 797 -106 l 797 -161 l -10 -161 z "},"`":{"ha":379,"x_min":183,"x_max":379,"o":"m 379 808 q 365 781 379 797 q 331 763 350 765 q 295 797 319 767 q 233 879 271 826 q 219 899 228 886 q 203 924 211 911 q 189 947 194 936 q 183 964 183 958 q 203 985 183 974 q 242 997 222 997 q 267 967 249 997 q 311 900 286 938 q 356 842 332 868 q 379 808 379 817 z "},"a":{"ha":683,"x_min":13,"x_max":731,"o":"m 731 171 q 651 105 699 142 q 553 35 603 68 q 458 -22 503 1 q 388 -44 414 -44 q 356 -27 367 -44 q 344 17 344 -10 q 347 50 344 31 q 351 88 349 69 q 358 124 354 107 q 364 153 361 142 l 358 153 q 226 30 296 75 q 99 -15 156 -15 q 29 18 46 -15 q 13 108 13 51 q 24 192 13 146 q 56 286 35 239 q 106 378 76 333 q 172 458 135 422 q 343 577 263 544 q 500 610 424 610 q 535 606 514 610 q 576 594 556 603 q 610 569 596 585 q 625 531 625 554 q 623 505 625 515 q 615 486 621 494 q 600 468 610 478 q 576 446 590 458 q 551 390 565 415 q 519 319 536 364 q 466 169 488 232 q 444 93 444 107 q 452 53 444 63 q 471 44 460 44 q 526 58 496 44 q 588 92 556 71 q 653 138 619 113 q 718 188 686 164 l 731 171 l 731 171 m 532 517 q 519 535 529 526 q 497 549 510 543 q 472 558 485 556 q 454 561 460 561 q 386 553 418 561 q 324 526 354 544 q 265 476 294 507 q 206 400 236 446 q 174 340 189 375 q 148 270 160 306 q 130 202 136 235 q 124 149 124 169 q 141 88 124 104 q 178 72 158 72 q 285 119 225 72 q 393 269 344 165 q 426 352 414 314 q 451 422 438 390 q 465 450 456 433 q 485 481 474 467 q 509 506 497 496 q 532 517 521 517 z "},"b":{"ha":585,"x_min":24,"x_max":679,"o":"m 679 997 q 664 942 679 976 q 615 860 649 907 q 524 753 581 813 q 386 625 468 694 q 298 550 344 589 q 211 478 251 511 q 192 429 200 453 q 176 388 185 410 q 164 354 168 367 l 168 354 q 228 422 194 393 q 297 470 263 451 q 362 498 331 489 q 414 507 393 507 q 506 471 482 507 q 529 378 529 435 q 519 310 529 349 q 489 229 508 271 q 440 147 469 188 q 372 72 410 106 q 432 83 397 72 q 503 108 467 93 q 572 142 539 124 q 625 175 604 160 l 626 147 q 568 113 601 131 q 497 79 535 94 q 417 53 458 64 q 339 40 376 43 q 303 11 324 26 q 258 -17 282 -4 q 207 -37 233 -29 q 154 -44 181 -44 q 83 -28 110 -44 q 44 14 57 -11 q 27 69 31 39 q 24 128 24 100 q 30 183 24 150 q 46 253 36 215 q 68 331 56 290 q 93 408 81 371 q 75 417 75 399 q 90 436 75 426 q 106 446 96 442 q 144 539 122 489 q 190 636 167 589 q 234 724 213 683 q 274 792 256 765 q 460 1005 375 940 q 610 1069 546 1069 q 651 1063 636 1069 q 672 1044 665 1056 q 678 1021 678 1033 q 679 997 679 1008 m 585 953 q 576 993 585 981 q 540 1006 567 1006 q 473 974 510 1006 q 396 881 436 942 q 312 732 356 821 q 225 531 268 643 q 299 591 251 554 q 406 688 346 628 q 482 767 449 731 q 538 834 515 803 q 573 894 561 865 q 585 953 585 924 m 422 333 q 405 417 422 394 q 350 440 388 440 q 297 427 326 440 q 242 386 268 414 q 199 316 217 358 q 181 214 181 274 q 190 142 181 171 q 217 97 200 114 q 257 75 233 81 q 310 71 281 69 q 343 108 326 85 q 380 170 365 138 q 404 234 394 203 q 418 292 414 265 q 422 333 422 318 m 269 38 q 183 60 213 35 q 138 118 153 85 l 133 117 q 153 40 131 68 q 204 13 176 13 q 228 16 217 13 q 250 25 240 19 q 269 38 261 31 z "},"c":{"ha":518,"x_min":11,"x_max":581,"o":"m 579 163 q 540 128 579 157 q 438 65 500 99 q 302 6 376 32 q 158 -21 228 -21 q 51 17 90 -21 q 11 142 11 54 q 23 223 11 179 q 57 313 35 267 q 112 404 79 358 q 185 492 144 450 q 261 558 221 529 q 340 606 301 586 q 410 636 378 626 q 463 646 442 646 q 506 638 486 646 q 525 593 525 631 q 515 540 525 574 q 478 483 506 507 q 434 458 454 464 q 404 451 414 451 q 393 460 397 451 l 407 490 q 419 527 418 515 q 421 546 421 539 q 415 568 421 561 q 392 575 408 575 q 302 541 347 575 q 220 453 257 507 q 160 331 183 399 q 136 197 136 264 q 139 147 136 174 q 152 97 142 119 q 183 60 163 75 q 238 46 203 46 q 319 57 278 46 q 386 79 361 68 q 457 114 425 96 q 512 147 489 132 q 547 171 535 161 q 563 181 560 181 q 574 179 568 181 q 579 163 581 178 z "},"d":{"ha":742,"x_min":36,"x_max":808,"o":"m 808 165 q 714 95 765 128 q 614 38 663 63 q 526 0 565 14 q 468 -14 486 -14 q 423 4 436 -14 q 410 69 410 22 q 413 98 410 79 q 419 138 415 117 q 427 182 422 160 q 436 224 432 204 l 432 225 q 364 144 400 183 q 279 61 328 104 q 228 19 250 35 q 188 -7 206 3 q 155 -21 169 -17 q 126 -26 140 -25 q 58 6 81 -26 q 40 92 36 38 q 210 438 53 274 q 361 558 283 514 q 522 611 439 601 l 571 617 q 619 750 597 689 q 638 802 629 776 q 656 851 647 828 q 669 891 664 874 q 678 917 675 908 q 691 942 682 932 q 717 964 700 953 q 746 980 732 975 q 771 988 760 985 q 796 992 785 990 q 808 978 808 992 q 788 928 797 953 q 769 881 779 906 q 751 833 760 857 q 724 757 735 786 q 706 708 713 728 q 693 673 699 688 q 681 640 688 658 q 665 597 674 622 q 640 529 656 571 q 606 431 624 482 q 572 336 588 381 q 546 257 557 292 q 531 207 535 222 q 518 156 524 181 q 513 110 513 131 q 520 81 513 99 q 547 63 528 63 q 604 74 572 63 q 670 105 636 86 q 738 146 704 124 q 797 189 771 168 l 808 165 l 808 165 m 497 554 q 351 501 422 554 q 226 338 279 447 q 186 234 200 283 q 168 139 172 185 q 171 90 165 107 q 193 67 176 74 q 217 71 206 68 q 244 82 229 74 q 278 108 258 90 q 331 161 299 126 q 364 197 344 176 q 402 242 383 218 q 438 294 421 267 q 467 350 456 321 l 547 554 l 497 554 z "},"e":{"ha":528,"x_min":22,"x_max":597,"o":"m 596 144 q 560 113 596 139 q 466 56 524 86 q 338 3 408 26 q 197 -21 267 -21 q 66 21 110 -21 q 22 153 22 63 q 55 296 22 211 q 160 467 88 381 q 245 553 201 517 q 329 611 289 589 q 405 644 369 633 q 465 654 440 654 q 521 644 506 654 q 536 607 536 633 q 490 520 536 574 q 369 397 443 467 q 302 335 340 369 q 231 268 264 300 q 150 194 190 232 q 179 74 144 107 q 278 42 214 42 q 388 62 332 42 q 488 106 443 82 q 589 171 540 133 q 596 158 594 163 q 596 144 597 154 m 418 544 q 406 572 418 567 q 378 578 393 578 q 312 557 351 578 q 238 492 272 536 q 207 444 222 472 q 178 383 192 417 q 156 313 165 350 q 146 240 147 276 q 203 289 174 264 q 257 338 228 311 q 313 392 286 364 q 388 476 358 439 q 418 544 418 514 z "},"f":{"ha":461,"x_min":-272,"x_max":699,"o":"m 699 958 q 682 917 696 935 q 647 892 672 900 q 607 924 631 910 q 553 939 583 939 q 518 935 531 939 q 499 925 506 931 q 413 800 457 896 q 317 532 368 704 l 383 532 l 510 538 q 535 528 535 539 q 506 501 532 515 q 442 480 493 494 q 321 465 390 465 l 293 465 l 254 343 q 208 201 229 264 q 166 84 186 138 q 125 -17 146 31 q 81 -112 104 -65 q -31 -292 28 -219 q -144 -399 -90 -364 q -206 -432 -176 -418 q -260 -446 -236 -446 q -272 -437 -272 -446 q -268 -425 -272 -428 q -224 -400 -249 -412 q -164 -361 -199 -387 q -114 -310 -142 -344 q -53 -210 -86 -275 q 21 -44 -19 -146 q 110 207 61 57 l 193 465 l 167 465 q 141 465 156 465 q 111 463 126 465 q 99 461 106 461 q 88 461 93 461 l 75 461 q 51 476 51 461 q 60 504 53 493 q 79 522 68 515 q 107 531 93 529 q 146 533 121 533 q 169 533 157 533 q 192 532 181 532 l 215 532 q 269 685 243 619 q 322 796 294 751 q 425 917 365 869 q 518 969 465 950 q 619 989 571 989 q 699 958 699 989 z "},"g":{"ha":651,"x_min":-260,"x_max":671,"o":"m 671 531 q 669 505 671 515 q 661 486 667 494 q 646 468 656 478 q 622 446 636 458 q 595 387 611 415 q 565 319 579 358 q 503 149 535 235 q 443 -10 472 64 q 390 -143 414 -85 q 347 -233 365 -201 q 283 -337 315 -292 q 217 -420 251 -383 q 144 -485 182 -457 q 60 -537 106 -514 q -149 -586 -35 -586 q -193 -584 -174 -586 q -232 -575 -212 -582 q -260 -546 -260 -564 q -244 -540 -258 -540 q -201 -551 -217 -549 q -164 -554 -185 -554 q -72 -544 -115 -554 q 11 -511 -29 -535 q 53 -485 29 -501 q 103 -440 76 -468 q 161 -372 131 -412 q 225 -274 192 -332 q 276 -176 250 -231 q 328 -62 303 -121 q 374 52 353 -4 q 410 153 396 108 l 404 153 q 272 30 342 75 q 144 -15 201 -15 q 75 18 92 -15 q 58 108 58 51 q 69 194 58 147 q 101 288 81 240 q 151 378 122 335 q 218 458 181 422 q 389 577 308 544 q 546 610 469 610 q 581 606 560 610 q 622 594 601 603 q 656 569 642 585 q 671 531 671 554 m 578 517 q 565 535 575 526 q 543 549 556 543 q 518 558 531 556 q 500 561 506 561 q 432 553 464 561 q 370 526 400 544 q 311 476 340 507 q 251 400 282 446 q 220 340 235 375 q 194 270 206 306 q 176 202 182 235 q 169 149 169 169 q 187 88 169 104 q 224 72 204 72 q 331 119 271 72 q 439 269 390 165 q 472 352 460 314 q 497 422 483 390 q 510 450 501 433 q 531 481 519 467 q 555 506 543 496 q 578 517 567 517 z "},"h":{"ha":606,"x_min":-17,"x_max":682,"o":"m 682 171 q 650 145 671 160 q 606 116 629 131 q 558 87 582 101 q 518 61 535 72 q 398 -8 447 15 q 328 -32 349 -32 q 313 -23 315 -32 q 310 -3 310 -14 q 315 33 310 8 q 330 90 321 58 q 349 158 339 122 q 369 228 360 194 q 394 306 382 268 q 415 375 406 343 q 430 431 424 407 q 438 469 436 456 q 437 481 438 476 q 421 486 436 486 q 391 471 413 486 q 342 429 369 456 q 281 368 314 403 q 218 296 249 333 q 152 194 179 249 q 106 100 125 140 q 72 34 86 58 q 45 -3 57 10 q 23 -19 33 -15 q 1 -24 13 -24 q -15 -12 -12 -24 q -17 3 -17 -1 q -11 40 -17 18 q 10 94 -6 63 q 31 149 21 118 q 47 196 40 179 q 101 351 74 272 q 153 500 125 419 q 207 656 181 581 q 269 827 239 746 q 317 958 300 908 q 331 984 322 974 q 356 1006 339 994 q 385 1022 371 1017 q 410 1029 399 1026 q 435 1033 424 1032 q 447 1019 447 1033 q 426 969 436 994 q 408 923 418 947 q 390 875 399 899 q 283 590 339 733 q 174 303 226 446 l 178 303 q 317 444 254 388 q 427 536 381 501 q 505 585 474 571 q 551 599 536 599 q 566 591 563 599 q 568 572 569 583 q 544 466 565 536 q 494 304 522 396 q 480 255 490 288 q 458 188 469 222 q 439 124 447 153 q 431 89 431 96 q 430 74 431 79 q 443 68 429 68 q 484 79 458 68 q 540 107 510 90 q 603 145 569 124 q 669 188 638 167 l 682 171 l 682 171 z "},"i":{"ha":421,"x_min":21,"x_max":540,"o":"m 379 821 q 356 759 379 785 q 286 733 333 733 q 240 792 240 733 q 263 859 240 833 q 338 886 285 885 q 370 874 361 888 q 379 821 379 860 m 540 228 q 490 191 518 211 q 434 150 463 171 q 377 110 406 129 q 324 75 349 90 q 225 19 267 40 q 153 -12 183 -1 q 105 -27 124 -24 q 76 -31 86 -31 q 46 -24 57 -31 q 29 -7 35 -17 q 22 15 24 3 q 21 36 21 26 q 24 68 21 47 q 34 114 28 89 q 48 167 40 139 q 64 218 56 194 q 128 408 96 314 q 185 572 161 503 q 202 599 189 585 q 240 622 215 613 q 270 630 256 628 q 294 632 285 632 q 306 617 306 632 q 299 593 306 611 q 284 550 293 575 q 265 495 275 525 q 244 438 254 465 q 208 331 228 388 q 172 226 189 275 q 144 140 156 176 q 133 92 133 104 q 136 56 133 69 q 163 42 139 42 q 247 67 193 42 q 356 128 300 93 q 463 201 413 164 q 538 261 513 238 l 540 228 l 540 228 z "},"j":{"ha":319,"x_min":-308,"x_max":379,"o":"m 379 821 q 356 759 379 785 q 286 733 333 733 q 240 792 240 733 q 263 859 240 833 q 338 886 285 885 q 370 874 361 888 q 379 821 379 860 m 315 617 q 309 590 315 610 q 294 545 303 571 q 274 491 285 519 q 254 438 263 463 q 215 326 236 385 q 175 219 194 268 q 132 106 153 163 q 58 -78 101 22 q -50 -267 15 -179 q -147 -373 -99 -332 q -244 -436 -196 -414 q -293 -449 -274 -449 q -308 -437 -308 -449 q -291 -422 -308 -426 q -262 -411 -274 -418 q -185 -342 -219 -381 q -121 -251 -151 -303 q -62 -133 -90 -199 q 0 15 -33 -68 q 49 144 21 68 q 106 301 78 221 q 158 453 135 381 q 194 572 182 526 q 213 600 197 585 q 250 622 228 615 q 279 630 265 628 q 304 632 293 632 q 315 617 315 632 z "},"k":{"ha":697,"x_min":-12,"x_max":758,"o":"m 758 110 q 679 49 721 78 q 595 -4 638 19 q 510 -42 553 -28 q 431 -56 468 -56 q 333 -19 379 -56 q 264 107 288 17 q 251 158 257 131 q 239 213 244 186 q 228 262 233 239 q 222 299 224 285 q 201 269 211 283 q 179 228 190 254 q 161 185 169 207 q 146 147 153 164 q 131 110 138 128 q 113 63 118 78 q 93 36 107 49 q 57 14 82 26 q 17 1 32 1 q -6 6 0 1 q -12 21 -12 10 q -6 49 -12 32 q 18 111 1 67 q 33 150 26 132 q 45 186 39 168 q 58 224 51 204 q 74 267 65 243 q 186 575 140 449 q 261 784 232 701 q 303 910 290 867 q 317 967 317 953 q 316 978 317 974 q 315 989 315 982 q 318 999 315 993 q 329 1013 321 1006 q 353 1028 338 1019 q 396 1046 368 1038 q 423 1053 415 1053 q 450 1056 431 1054 q 461 1053 457 1056 q 463 1043 465 1050 q 378 807 415 913 q 346 717 361 761 q 317 638 331 674 q 295 577 304 601 q 285 547 286 553 q 242 438 263 489 q 207 343 222 388 l 214 342 q 264 399 244 376 q 303 440 283 421 q 349 482 324 460 q 419 539 375 504 q 478 578 447 561 q 539 608 508 596 q 598 628 569 621 q 649 635 626 635 q 663 634 654 635 q 679 630 671 633 q 693 620 688 626 q 699 603 699 614 q 664 533 699 567 q 553 450 629 499 l 547 460 q 583 506 574 479 q 593 546 593 532 q 565 565 593 565 q 500 549 540 565 q 415 497 460 533 q 363 453 386 474 q 324 415 339 432 q 292 379 306 396 l 300 379 q 307 380 303 379 q 314 381 311 381 q 328 376 321 381 q 339 354 336 371 q 355 265 346 315 q 375 169 364 214 q 421 60 390 100 q 504 19 451 19 q 576 31 542 19 q 642 61 611 43 q 700 99 674 79 q 746 135 726 118 l 758 110 l 758 110 z "},"l":{"ha":518,"x_min":42,"x_max":724,"o":"m 724 1017 q 702 924 724 979 q 643 804 681 869 q 555 667 606 739 q 444 524 504 596 q 320 385 385 453 q 192 263 256 318 q 180 231 186 251 q 168 190 174 211 q 159 149 163 168 q 156 121 156 131 q 156 100 156 113 q 162 76 157 88 q 176 57 167 65 q 206 49 186 49 q 312 72 254 49 q 427 131 369 96 q 538 203 485 165 q 632 269 592 240 l 633 233 q 461 112 539 161 q 320 32 383 63 q 206 -12 257 1 q 114 -25 156 -25 q 59 -1 76 -25 q 42 67 42 24 q 54 167 42 111 q 86 282 67 222 q 131 403 106 342 q 183 521 157 464 q 325 794 246 654 q 510 1008 426 943 q 661 1072 593 1072 q 697 1067 685 1072 q 716 1055 710 1063 q 723 1037 722 1047 q 724 1017 724 1026 m 632 961 q 627 998 632 986 q 594 1010 622 1010 q 561 1001 576 1010 q 526 972 546 993 q 482 911 507 950 q 419 811 457 872 q 382 739 403 782 q 340 646 361 696 q 299 544 319 596 q 260 446 278 492 q 229 365 243 400 q 210 315 215 331 q 268 372 229 332 q 353 469 307 413 q 450 591 400 525 q 540 724 500 657 q 606 852 581 790 q 632 961 632 914 z "},"m":{"ha":925,"x_min":-28,"x_max":964,"o":"m 964 171 q 899 126 929 147 q 844 90 872 108 q 800 61 817 72 q 680 -8 729 15 q 610 -32 631 -32 q 590 -19 593 -32 q 586 7 586 -7 q 592 35 586 14 q 607 88 597 57 q 628 154 617 118 q 651 228 639 190 q 676 305 664 267 q 697 375 688 343 q 712 431 706 407 q 719 469 718 456 q 721 483 719 476 q 714 489 722 489 q 684 474 706 489 q 647 443 663 458 q 584 376 622 418 q 497 267 546 333 q 466 219 483 247 q 433 165 449 192 q 407 119 418 139 q 393 96 396 99 q 373 78 386 89 q 344 56 360 67 q 314 36 329 44 q 286 28 299 28 q 281 33 281 28 q 282 45 281 39 q 286 63 283 51 q 295 92 289 74 q 311 138 301 110 l 399 388 q 426 486 424 460 q 419 499 426 497 q 306 406 396 499 q 231 317 265 365 q 167 222 196 269 q 115 132 138 175 q 78 58 92 89 q 62 42 72 51 q 39 25 51 33 q 13 11 26 17 q -12 6 0 6 q -25 12 -22 6 q -28 26 -28 18 q -25 43 -28 32 q -17 69 -22 54 q -7 99 -12 83 q 4 129 -1 115 q 29 197 18 167 q 49 255 40 228 q 65 308 57 282 q 81 361 72 333 q 91 400 85 376 q 105 448 97 424 q 119 494 113 472 q 132 528 126 515 q 156 565 140 549 q 190 592 172 581 q 225 610 208 604 q 251 615 242 615 q 261 600 261 615 q 251 558 260 589 q 232 499 242 528 q 204 415 219 460 q 174 332 189 371 q 139 242 157 286 l 144 238 q 180 291 158 261 q 226 352 201 321 q 276 413 250 383 q 325 464 301 442 q 449 572 396 531 q 533 613 501 614 q 549 607 543 613 q 556 586 556 601 q 544 531 556 571 q 517 444 532 490 q 486 355 501 399 q 463 288 471 311 l 467 288 q 602 437 542 376 q 708 533 663 497 q 785 583 754 568 q 833 599 817 599 q 847 591 843 599 q 850 572 850 583 q 844 534 850 560 q 827 472 838 508 q 803 393 817 436 q 776 304 790 350 q 761 256 772 288 q 740 190 750 224 q 721 126 729 156 q 713 89 713 97 q 714 74 713 79 q 725 68 715 68 q 766 79 740 68 q 822 107 792 90 q 885 145 851 124 q 951 188 919 167 l 964 171 l 964 171 z "},"n":{"ha":644,"x_min":18,"x_max":744,"o":"m 744 204 q 707 174 733 193 q 650 133 681 154 q 590 92 619 111 q 544 61 561 72 q 354 -32 400 -32 q 340 -23 343 -32 q 336 -3 336 -14 q 342 33 336 8 q 356 90 347 58 q 376 158 365 122 q 396 228 386 194 q 420 309 408 269 q 441 381 432 349 q 456 434 450 413 q 461 461 461 456 q 460 481 461 475 q 447 488 458 488 q 417 472 439 488 q 368 429 396 456 q 308 368 340 403 q 244 296 275 333 q 183 211 206 249 q 140 133 160 174 q 106 67 121 92 q 81 31 92 43 q 59 14 69 18 q 36 10 49 10 q 20 19 22 10 q 18 36 18 29 q 44 128 18 67 q 63 169 56 151 q 74 196 71 186 l 129 388 q 140 427 135 406 q 151 469 146 449 q 161 507 157 490 q 168 531 165 524 q 190 569 174 553 q 224 597 206 586 q 260 613 243 607 q 288 618 278 618 q 297 603 297 618 q 285 560 296 592 q 265 500 275 529 q 244 435 253 461 q 228 387 236 408 q 215 346 221 365 q 200 303 208 326 l 204 303 q 322 422 264 368 q 428 516 379 476 q 517 577 478 556 q 578 599 556 599 q 592 591 589 599 q 594 572 596 583 q 570 466 592 536 q 521 304 549 396 q 506 255 517 288 q 485 188 496 222 q 465 124 474 153 q 457 89 457 96 q 458 74 457 79 q 469 68 460 68 q 519 84 488 68 q 588 124 551 100 q 663 174 625 147 q 732 221 701 200 l 744 204 l 744 204 z "},"o":{"ha":642,"x_min":19,"x_max":696,"o":"m 696 153 q 523 49 607 89 q 335 8 439 8 q 289 14 306 8 q 151 -21 224 -21 q 103 -13 126 -21 q 60 13 79 -6 q 31 60 42 31 q 19 131 19 89 q 26 203 19 169 q 46 278 33 236 q 69 344 56 311 q 96 405 82 376 q 124 456 110 433 q 151 492 139 479 q 176 509 161 501 q 211 517 192 517 q 231 513 225 517 q 242 504 238 508 l 246 504 q 292 545 268 525 q 342 581 315 565 q 401 608 369 597 q 475 618 433 618 q 563 584 528 618 q 599 468 599 550 q 579 358 599 418 q 525 241 560 299 q 444 133 490 183 q 344 51 399 83 q 358 48 346 50 q 393 46 371 46 q 528 78 453 46 q 683 169 604 111 l 696 153 l 696 153 m 488 422 q 467 505 488 472 q 393 538 446 538 q 348 529 378 538 q 294 501 318 521 q 264 468 281 490 q 232 414 247 446 q 205 340 217 382 q 189 246 193 297 q 190 206 189 233 q 200 149 190 179 q 232 94 210 119 q 297 61 254 68 q 377 126 342 83 q 437 219 413 168 q 474 324 461 269 q 488 422 488 378 m 218 39 q 169 92 185 60 q 147 158 153 124 q 144 224 142 192 q 149 278 146 256 l 144 278 q 134 243 140 265 q 125 174 128 221 q 131 104 122 131 q 154 63 140 78 q 183 44 168 49 q 204 39 197 39 l 218 39 l 218 39 z "},"p":{"ha":606,"x_min":-211,"x_max":617,"o":"m 617 506 q 589 372 617 440 q 520 240 561 303 q 432 127 479 178 q 344 49 385 76 q 265 2 308 24 q 178 -19 221 -19 q 140 -8 150 -19 q 129 17 129 3 q 145 79 129 46 q 186 144 161 113 q 242 208 211 176 q 306 264 274 239 q 410 338 363 308 q 497 389 458 368 q 504 428 504 411 q 504 464 504 444 q 497 516 504 496 q 478 548 490 536 q 452 564 467 560 q 421 568 438 568 q 341 538 389 568 q 231 440 293 507 q 199 362 217 408 q 162 259 182 315 q 119 138 142 203 q 72 4 96 72 q 28 -120 50 -58 q -12 -238 7 -182 q -46 -342 -31 -294 q -71 -425 -61 -390 q -73 -446 -72 -432 q -76 -474 -74 -460 q -88 -503 -79 -486 q -121 -539 -97 -519 q -183 -562 -151 -562 q -203 -554 -194 -562 q -211 -526 -211 -546 q -206 -487 -211 -514 q -181 -411 -200 -460 q -107 -212 -144 -311 q -38 -30 -75 -128 q 31 153 -1 68 q 63 242 49 201 q 91 320 78 282 q 119 398 104 358 q 150 486 133 438 q 179 569 165 526 q 204 622 193 611 q 251 655 225 643 q 283 667 276 667 q 292 666 289 667 q 296 658 296 665 q 292 640 296 654 q 281 603 288 625 q 266 557 275 582 q 249 510 257 532 l 256 508 q 313 558 281 533 q 380 601 346 582 q 446 633 414 621 q 503 644 478 644 q 589 614 561 644 q 617 506 617 583 m 488 342 q 456 327 476 338 q 413 302 436 317 q 363 269 389 288 q 317 229 338 250 q 281 192 299 211 q 249 151 263 172 q 226 110 235 131 q 217 67 217 89 q 256 42 217 42 q 299 52 275 42 q 347 88 322 63 q 383 128 363 103 q 423 185 403 153 q 460 258 443 218 q 488 342 478 297 z "},"q":{"ha":601,"x_min":40,"x_max":654,"o":"m 654 585 q 650 569 654 581 q 640 544 646 558 q 626 513 633 529 q 614 481 619 496 q 592 425 606 461 q 563 343 579 389 q 526 245 546 297 q 488 142 507 193 q 390 -119 442 21 q 373 -167 381 -146 q 358 -206 365 -187 q 343 -245 350 -225 q 326 -292 336 -265 q 299 -377 311 -335 q 285 -439 286 -419 q 285 -456 283 -449 q 286 -472 288 -462 q 282 -492 285 -486 q 271 -507 279 -499 q 249 -526 263 -515 q 219 -547 235 -537 q 189 -562 204 -556 q 163 -568 174 -568 q 140 -564 146 -568 q 132 -549 135 -560 q 156 -469 133 -532 q 221 -297 179 -407 l 419 224 l 415 226 q 344 138 382 186 q 261 47 306 90 q 184 -12 214 1 q 126 -26 154 -26 q 59 8 78 -26 q 40 92 40 42 q 51 166 40 124 q 82 255 61 208 q 133 349 103 301 q 200 440 163 397 q 279 515 236 479 q 369 576 322 550 q 462 618 415 603 q 551 633 508 633 q 599 624 576 633 q 624 596 621 615 q 630 597 626 596 q 636 597 633 597 l 642 597 q 654 585 654 597 m 561 569 q 544 587 554 579 q 528 594 535 594 q 428 565 479 594 q 336 497 376 536 q 276 425 306 468 q 223 333 247 382 q 183 231 199 283 q 164 129 168 179 q 167 85 163 108 q 190 61 171 61 q 241 88 208 61 q 311 155 274 114 q 385 247 349 196 q 450 347 422 297 q 467 385 461 367 q 479 419 474 404 q 502 483 493 458 q 519 524 511 507 q 538 550 528 540 q 561 569 547 560 z "},"r":{"ha":579,"x_min":101,"x_max":631,"o":"m 631 158 q 561 109 607 139 q 458 47 515 79 q 324 -16 372 -1 q 254 -31 275 -31 q 228 -17 232 -31 q 225 7 225 -4 q 227 33 225 17 q 235 74 229 49 q 253 135 242 99 q 282 219 264 171 q 306 281 292 244 q 334 352 319 317 q 361 417 349 388 q 379 458 374 446 l 375 464 q 324 447 354 457 q 249 436 293 436 q 197 448 228 436 q 149 496 167 460 l 138 488 q 124 477 129 481 q 111 474 118 474 q 101 486 101 474 q 108 500 101 493 q 124 515 114 507 l 140 529 q 139 578 138 547 q 150 641 140 610 q 180 695 160 672 q 236 718 200 718 q 266 710 251 718 q 281 679 281 701 q 267 612 281 649 q 236 554 253 575 q 245 526 238 536 q 263 510 253 515 q 285 503 274 504 q 303 501 296 501 q 347 505 322 501 q 406 524 371 508 q 443 541 425 533 q 476 549 461 549 q 493 533 493 549 q 489 508 493 524 q 479 476 485 493 q 467 444 474 460 q 457 418 461 428 q 424 331 443 383 q 387 228 404 279 q 357 138 369 176 q 344 90 344 99 q 353 63 344 67 q 381 60 361 60 q 424 70 397 60 q 483 97 451 81 q 551 133 515 113 q 618 175 586 154 l 631 158 l 631 158 z "},"s":{"ha":525,"x_min":-31,"x_max":561,"o":"m 561 588 q 528 539 549 554 q 475 513 508 524 q 459 538 471 528 q 431 555 447 549 q 396 564 414 561 q 364 567 378 567 q 319 561 343 567 q 274 543 294 556 q 240 511 253 531 q 226 465 226 492 q 251 413 226 433 q 293 382 269 397 q 340 351 317 367 q 385 322 364 336 q 421 293 406 307 q 449 255 442 274 q 456 213 456 236 q 440 153 456 186 q 394 90 424 121 q 326 31 365 58 q 240 -11 286 4 q 187 -24 213 -21 q 115 -28 161 -28 q 66 -22 90 -28 q 21 -4 42 -15 q -14 22 0 7 q -31 56 -28 38 q -16 85 -28 71 q 14 111 -4 100 q 40 126 22 117 q 69 136 58 136 q 82 97 74 115 q 104 65 90 79 q 140 42 118 50 q 192 33 161 33 q 256 42 226 33 q 308 68 286 51 q 344 108 331 85 q 357 157 357 131 q 347 203 357 185 q 315 238 336 222 q 238 290 275 267 q 169 339 200 313 q 140 373 150 356 q 129 422 129 390 q 138 463 129 439 q 169 513 147 488 q 231 562 192 538 q 331 604 269 586 q 390 616 358 613 q 449 619 421 619 q 496 615 475 619 q 532 603 517 610 q 561 588 549 596 z "},"t":{"ha":472,"x_min":42,"x_max":593,"o":"m 593 213 q 433 88 507 138 q 298 10 360 39 q 189 -30 236 -18 q 111 -42 142 -42 q 74 -35 88 -42 q 53 -18 60 -28 q 44 3 46 -8 q 42 25 42 15 q 51 90 42 47 q 81 197 60 132 q 110 287 97 250 q 136 359 124 324 q 163 434 149 394 q 196 532 176 474 q 165 529 181 531 q 140 528 153 528 q 121 528 128 528 q 105 530 114 528 q 96 543 96 532 q 119 580 96 567 q 160 593 142 593 l 217 593 l 268 731 q 301 791 281 764 q 353 829 321 818 q 394 836 371 836 q 407 824 407 836 q 395 800 400 810 q 385 781 390 790 q 376 760 381 771 q 365 732 371 749 l 313 593 l 407 593 q 448 594 426 593 q 489 596 469 594 q 522 598 508 597 q 540 599 536 599 q 558 589 558 599 q 529 563 558 576 q 495 549 517 556 q 443 538 474 542 q 397 534 422 535 q 349 532 372 533 q 296 531 322 531 q 278 480 290 515 q 249 400 265 444 q 217 306 233 356 q 185 213 200 257 q 162 137 171 169 q 153 92 153 104 q 153 78 153 88 q 156 58 153 68 q 167 41 158 49 q 194 33 176 33 q 296 56 239 33 q 409 113 353 79 q 515 184 465 146 q 592 251 564 222 l 593 213 l 593 213 z "},"u":{"ha":708,"x_min":22,"x_max":763,"o":"m 763 158 q 694 111 739 139 q 590 47 649 83 q 467 -15 515 3 q 394 -33 418 -33 q 372 -24 376 -33 q 368 -3 368 -14 q 374 37 368 11 q 388 94 379 63 q 408 160 397 125 q 428 228 418 194 q 441 273 435 253 q 451 308 447 293 q 461 339 457 325 q 357 236 413 289 q 250 136 310 192 q 125 29 190 81 q 78 -1 97 7 q 50 -8 58 -8 q 22 31 22 -8 q 24 51 22 40 q 30 79 25 63 q 43 120 35 96 q 67 182 51 144 l 142 372 q 176 465 163 425 q 201 528 190 504 q 228 568 213 551 q 262 595 244 585 q 295 610 279 606 q 321 615 311 615 q 331 600 331 615 q 326 568 329 589 q 307 511 322 547 l 222 293 q 210 260 218 281 q 193 219 201 240 q 179 183 185 199 q 174 163 174 167 q 174 151 174 157 q 185 146 175 146 q 229 167 200 146 q 294 221 258 188 q 351 273 326 250 q 399 319 376 296 q 442 367 421 342 q 489 429 464 393 q 505 465 497 444 q 521 506 513 485 q 540 548 529 528 q 565 583 551 568 q 613 617 590 608 q 651 625 636 625 q 666 620 658 625 q 674 600 674 615 q 659 546 674 581 q 604 456 644 511 q 578 386 592 428 q 553 304 565 344 q 538 254 549 289 q 516 183 526 219 q 497 117 506 147 q 489 82 489 88 q 504 58 489 58 q 560 69 531 58 q 621 96 589 79 q 685 133 653 113 q 750 175 718 154 l 763 158 l 763 158 z "},"v":{"ha":575,"x_min":67,"x_max":657,"o":"m 656 610 q 645 575 656 600 q 615 513 635 550 q 566 427 596 475 q 494 325 536 379 q 449 265 468 290 q 406 212 429 239 q 351 152 383 185 q 264 72 318 119 q 201 20 235 44 q 149 -12 168 -4 q 113 -24 131 -21 q 82 -28 96 -28 q 67 -11 67 -28 q 76 33 67 0 q 104 129 86 67 q 148 279 131 219 q 179 392 165 339 q 195 465 190 433 q 203 521 200 497 q 194 546 204 546 q 170 539 179 546 q 154 532 161 532 q 143 546 142 532 q 153 560 143 553 q 192 589 163 568 q 300 633 256 633 q 318 626 314 633 q 322 594 322 618 q 319 566 322 581 q 313 535 317 551 q 280 401 297 465 q 242 267 263 338 q 226 211 235 240 q 208 153 217 182 q 191 101 199 125 q 179 64 183 78 q 252 113 211 78 q 335 197 293 149 q 415 302 376 244 q 482 419 454 360 q 499 462 490 438 q 513 510 507 486 q 524 556 519 535 q 528 589 528 576 q 533 594 532 593 q 537 599 533 596 q 548 606 540 601 q 574 621 556 611 q 608 635 592 631 q 639 640 624 639 q 656 610 657 640 z "},"w":{"ha":935,"x_min":81,"x_max":990,"o":"m 989 610 q 974 561 988 592 q 939 492 961 531 q 888 410 917 453 q 828 325 860 367 q 696 169 771 250 q 532 25 621 88 q 415 -28 454 -28 q 401 -22 403 -28 q 399 -8 399 -15 q 410 37 399 4 q 442 129 422 69 q 460 192 450 156 q 481 269 471 229 q 501 347 492 308 q 519 418 511 386 l 514 419 q 460 336 492 385 q 392 234 429 288 q 313 129 354 181 q 228 38 271 78 q 191 5 208 18 q 158 -15 174 -8 q 126 -26 142 -24 q 96 -28 111 -28 q 81 -11 81 -28 q 89 31 82 4 q 107 100 96 58 q 144 242 125 164 q 182 390 164 321 q 199 469 193 432 q 206 517 206 506 q 203 541 206 536 q 194 546 201 546 q 174 539 188 546 q 154 532 161 532 q 142 544 142 532 q 154 561 142 550 q 183 581 164 569 q 224 605 203 593 q 267 625 246 617 q 300 633 288 633 q 322 594 326 633 q 319 566 321 581 q 313 535 317 551 l 199 69 q 279 151 239 103 q 357 251 319 200 q 426 353 394 303 q 482 440 458 403 q 503 479 492 457 q 526 522 515 501 q 544 558 536 542 q 557 578 553 574 q 572 591 564 586 q 589 600 579 596 q 608 607 600 604 q 629 610 615 610 q 643 606 636 610 q 650 583 650 603 q 646 552 650 572 q 639 518 642 532 q 629 479 636 506 q 613 417 622 453 q 593 340 604 382 q 569 256 582 297 q 551 192 561 226 q 535 129 542 158 q 518 61 526 94 q 643 168 579 101 q 774 342 721 250 q 846 521 826 435 q 857 565 853 547 q 861 589 861 582 q 874 601 863 593 q 901 619 885 610 q 935 634 917 628 q 972 640 954 640 q 985 634 981 640 q 989 610 990 628 z "},"x":{"ha":622,"x_min":-14,"x_max":679,"o":"m 679 164 q 639 120 671 153 q 564 52 607 88 q 472 -11 521 17 q 382 -39 424 -39 q 293 19 331 -39 q 225 197 256 76 q 172 134 201 165 q 110 61 143 103 q 77 19 93 40 q 47 -20 61 -3 q 21 -49 32 -37 q 1 -61 10 -61 q -12 -54 -14 -61 q -10 -33 -10 -47 q 18 6 -4 -22 q 72 72 40 35 q 140 150 103 108 q 213 232 176 192 q 188 321 197 288 q 172 375 178 354 q 163 408 167 396 q 157 431 160 419 q 142 475 149 461 q 131 496 136 489 q 122 508 125 503 q 119 526 119 514 q 132 555 119 538 q 163 589 144 572 q 187 606 174 600 q 207 611 200 611 q 219 610 213 611 q 233 605 226 610 q 244 590 239 600 q 254 558 250 579 q 304 325 281 431 q 360 390 336 363 q 404 440 385 418 q 441 481 424 463 q 476 517 458 499 q 503 544 489 529 q 530 570 517 558 q 555 590 543 582 q 574 597 567 597 q 591 593 582 597 q 600 574 600 589 q 594 549 600 558 q 575 531 588 540 q 544 508 563 521 q 501 472 525 494 q 418 394 465 440 q 315 281 371 349 q 344 179 331 222 q 375 107 358 136 q 413 63 392 78 q 465 49 435 49 q 507 60 482 49 q 559 91 532 72 q 614 133 586 110 q 667 181 642 157 l 679 164 l 679 164 z "},"y":{"ha":646,"x_min":-276,"x_max":668,"o":"m 668 613 q 646 542 668 592 q 610 474 631 508 q 572 411 589 439 q 552 354 564 388 q 523 272 540 321 q 480 155 506 222 q 417 -4 454 88 q 313 -231 368 -125 q 183 -408 258 -336 q 24 -531 100 -487 q -119 -574 -51 -574 q -201 -565 -169 -574 q -249 -543 -232 -556 q -271 -518 -265 -531 q -276 -499 -276 -506 q -263 -463 -271 -485 q -244 -422 -256 -442 q -224 -449 -237 -433 q -193 -477 -211 -464 q -152 -499 -175 -490 q -104 -508 -129 -508 q -60 -508 -83 -508 q -9 -500 -36 -508 q 51 -472 18 -492 q 122 -411 83 -451 q 171 -341 144 -387 q 226 -233 197 -294 q 283 -103 254 -172 q 339 36 311 -33 q 391 169 367 106 q 436 283 415 233 l 432 285 q 318 168 379 225 q 201 67 257 111 q 98 -3 144 24 q 28 -31 51 -31 q 10 -20 14 -31 q 6 4 6 -10 q 10 32 6 14 q 20 71 14 50 q 35 113 26 92 q 50 153 43 135 q 92 261 69 203 q 133 372 114 319 q 169 467 153 425 q 193 528 185 510 q 217 565 201 549 q 251 592 233 581 q 286 610 269 604 q 313 615 303 615 q 322 600 322 615 q 316 567 321 589 q 299 511 311 546 q 224 331 257 413 q 197 260 210 296 q 173 195 183 225 q 156 143 163 165 q 150 113 150 121 q 152 103 150 106 q 163 99 154 100 q 184 106 169 99 q 215 124 199 113 q 249 148 232 135 q 278 172 265 161 q 344 238 315 208 q 394 296 372 268 q 435 351 417 324 q 474 410 454 379 l 513 513 q 536 565 525 544 q 567 603 547 586 q 650 635 606 635 q 668 613 668 635 z "},"z":{"ha":526,"x_min":-6,"x_max":565,"o":"m 565 613 q 562 599 565 604 q 553 582 558 593 q 502 511 546 567 q 388 381 458 456 q 349 341 372 364 q 297 291 325 318 q 240 235 269 264 q 185 178 211 206 q 140 126 160 150 q 110 83 119 101 q 150 91 125 88 q 203 97 175 94 q 260 102 232 100 q 313 104 289 104 q 406 103 371 104 q 457 99 442 101 q 483 86 478 94 q 488 65 488 78 q 483 47 488 58 q 469 24 478 36 q 451 0 461 11 q 431 -18 440 -11 q 394 1 422 -8 q 303 10 365 10 q 212 6 267 10 q 69 -11 157 3 q 47 -15 57 -14 q 24 -15 36 -15 q -6 6 -6 -15 q 31 72 -6 21 q 138 196 67 122 q 192 251 163 222 q 256 311 222 279 q 350 403 314 367 q 409 465 386 440 q 444 508 432 490 q 467 544 457 525 l 414 544 q 313 539 379 544 q 171 518 247 533 q 151 514 158 515 q 138 512 143 513 q 129 511 133 511 q 118 511 125 511 q 104 524 104 511 q 118 544 104 532 q 147 572 132 557 q 207 613 186 606 q 393 633 263 635 l 532 631 q 565 613 565 631 z "},"{":{"ha":464,"x_min":83,"x_max":507,"o":"m 507 1032 q 500 1023 507 1025 q 488 1019 493 1021 q 442 994 464 1013 q 408 953 419 975 q 397 922 403 944 q 384 869 390 899 q 372 805 378 839 q 360 740 365 771 q 346 661 353 700 q 330 588 339 622 q 311 527 321 554 q 290 485 301 500 q 244 434 272 453 q 165 406 217 415 l 164 400 q 242 356 218 388 q 275 290 267 324 q 281 225 283 256 q 276 183 278 194 l 240 -49 q 235 -115 235 -83 q 242 -169 235 -146 q 263 -207 249 -193 q 301 -221 278 -221 q 311 -220 306 -221 q 317 -231 317 -219 q 311 -240 317 -240 q 300 -240 306 -240 q 193 -203 238 -240 q 149 -96 149 -167 q 157 -28 149 -72 q 175 70 165 17 q 193 178 185 124 q 201 276 201 232 q 196 313 201 294 q 178 345 190 331 q 145 369 165 360 q 96 378 125 378 q 85 381 88 378 q 83 388 83 385 q 101 415 83 413 q 160 426 131 418 q 215 471 189 435 q 238 530 228 488 q 257 621 249 572 q 272 717 265 669 q 283 789 278 764 q 294 844 289 818 q 309 894 300 871 q 333 940 318 918 q 374 982 349 961 q 403 1001 385 992 q 440 1019 422 1011 q 474 1033 458 1028 q 493 1039 489 1039 q 501 1039 496 1039 q 507 1032 507 1039 z "},"|":{"ha":201,"x_min":0,"x_max":401,"o":"m 60 -301 l 0 -301 l 340 1114 l 401 1114 l 60 -301 z "},"}":{"ha":464,"x_min":0,"x_max":424,"o":"m 0 -235 q 7 -226 0 -228 q 19 -222 14 -224 q 65 -197 43 -215 q 99 -156 88 -178 q 110 -124 104 -147 q 123 -72 117 -101 q 135 -8 129 -42 q 147 57 142 26 q 160 135 153 96 q 177 209 168 175 q 196 270 186 243 q 217 313 206 297 q 263 363 235 344 q 342 392 290 382 l 343 397 q 265 442 289 410 q 232 508 240 474 q 226 572 224 542 q 231 614 229 603 l 267 846 q 272 912 272 881 q 265 967 272 943 q 244 1004 258 990 q 206 1018 229 1018 q 196 1017 201 1018 q 190 1028 190 1017 q 196 1038 190 1038 q 207 1038 201 1038 q 314 1001 269 1038 q 358 893 358 964 q 350 825 358 869 q 332 727 342 781 q 314 619 322 674 q 306 521 306 564 q 311 485 306 503 q 329 452 317 467 q 362 428 342 438 q 411 419 382 419 q 422 416 419 419 q 424 410 424 413 q 406 382 424 385 q 347 371 376 379 q 292 326 318 363 q 269 267 279 310 q 250 176 258 225 q 235 81 242 128 q 224 8 229 33 q 212 -47 217 -21 q 198 -97 207 -74 q 174 -142 189 -121 q 133 -185 158 -164 q 103 -204 122 -194 q 67 -222 85 -214 q 33 -236 49 -231 q 14 -242 18 -242 q 6 -242 11 -242 q 0 -235 0 -242 z "},"~":{"ha":751,"x_min":72,"x_max":732,"o":"m 732 436 q 526 293 626 293 q 459 309 494 293 q 388 344 424 325 q 317 380 351 364 q 254 396 283 396 q 172 374 215 396 q 86 301 129 353 l 72 319 q 114 367 92 342 q 163 414 136 393 q 224 449 190 435 q 301 463 258 463 q 367 447 328 463 q 447 413 407 432 q 520 379 486 394 q 568 364 554 364 q 599 367 583 364 q 633 379 615 369 q 670 406 650 389 q 714 451 690 424 l 732 436 l 732 436 z "},"":{"ha":819,"x_min":29,"x_max":894,"o":"m 894 942 q 872 862 894 926 q 815 690 850 797 q 794 626 806 663 q 769 551 782 590 q 744 472 757 513 q 721 393 732 431 q 770 392 738 392 q 826 389 803 392 q 783 353 814 364 q 707 338 753 342 q 686 263 696 299 q 668 196 678 231 q 651 133 658 161 q 616 55 636 76 q 568 33 596 33 q 536 53 551 33 q 505 102 521 74 q 472 161 489 131 q 438 211 456 192 q 353 274 393 260 q 290 292 314 289 q 261 247 281 276 q 219 181 242 217 q 170 107 196 144 q 122 39 144 69 q 82 -12 100 8 q 57 -33 64 -32 q 33 -27 38 -31 q 29 -3 29 -24 q 49 51 29 13 q 97 134 69 89 q 152 224 124 179 q 199 300 181 269 q 166 298 182 301 q 118 294 150 294 q 74 305 82 294 q 65 336 65 315 q 94 381 65 368 q 168 394 124 393 q 214 395 189 394 q 264 394 239 396 q 389 543 318 465 q 537 696 460 621 q 693 839 614 771 q 843 958 772 907 q 850 961 846 960 q 869 964 858 964 q 894 942 894 964 m 760 854 q 699 797 739 836 q 608 699 660 758 q 492 562 556 640 q 361 388 429 483 q 487 388 418 390 q 613 389 556 386 q 660 538 632 451 q 717 710 689 624 q 751 815 742 786 q 760 854 760 844 m 642 772 q 469 601 560 700 q 297 392 378 503 l 307 392 q 403 503 350 442 q 509 623 447 554 q 644 771 571 692 l 642 772 m 600 326 q 556 326 572 326 q 524 325 539 325 q 492 325 510 325 q 443 328 474 325 q 492 293 468 311 q 533 258 511 278 q 568 217 554 238 q 572 225 571 222 q 576 237 574 228 q 584 266 579 246 q 600 326 589 286 z "},"":{"ha":825,"x_min":121,"x_max":993,"o":"m 993 906 q 976 874 993 889 q 936 844 960 858 q 887 819 913 831 q 843 799 861 807 l 839 808 q 880 843 872 826 q 888 878 888 860 q 779 908 888 908 q 663 901 717 908 q 557 886 610 894 q 485 703 514 788 q 443 575 457 618 q 471 581 451 578 q 513 588 490 585 q 560 594 536 592 q 600 596 583 596 q 680 593 639 596 q 753 578 721 590 q 806 538 785 565 q 826 461 826 511 q 800 360 826 411 q 732 260 774 308 q 638 168 690 211 q 532 92 585 125 q 463 56 500 71 q 392 30 426 40 q 329 15 357 19 q 286 14 301 11 q 272 0 279 6 q 254 -8 265 -6 l 214 -11 q 196 -5 201 -12 q 190 11 190 3 q 195 70 190 33 q 210 142 200 107 q 238 238 222 189 q 267 328 253 288 q 299 418 282 374 q 306 440 301 426 q 317 472 310 453 q 304 467 310 469 q 282 463 293 463 q 268 465 269 463 q 267 476 267 468 q 278 499 267 488 q 303 521 289 511 q 340 540 318 532 q 367 613 353 574 q 395 695 381 653 q 426 781 410 738 q 458 864 442 824 q 292 818 350 839 q 206 782 233 797 q 169 758 178 767 q 149 750 160 750 q 127 752 133 750 q 121 769 121 754 q 160 798 121 779 q 265 839 200 817 q 411 885 329 861 q 576 927 493 908 q 738 958 660 946 q 872 969 815 969 q 962 957 931 969 q 993 906 993 944 m 715 406 q 701 475 715 451 q 663 508 686 499 q 609 519 639 518 q 549 519 579 519 q 515 517 535 519 q 475 510 494 514 q 440 503 456 507 q 418 496 424 499 q 390 421 404 458 q 367 352 379 389 q 346 283 354 315 q 331 222 338 253 q 318 163 324 192 q 309 111 313 135 q 306 71 306 88 q 331 62 313 60 q 374 64 349 64 q 440 78 403 64 q 514 118 476 93 q 588 176 551 143 q 653 248 625 210 q 698 326 681 286 q 715 406 715 367 z "},"":{"ha":807,"x_min":99,"x_max":818,"o":"m 818 839 q 799 781 818 810 q 750 724 779 751 q 687 671 721 696 q 624 625 653 646 q 575 588 594 604 q 556 561 556 571 q 574 525 556 544 q 619 483 592 506 q 678 433 646 460 q 737 376 710 406 q 782 312 764 346 q 800 242 800 278 q 768 133 800 181 q 683 52 736 85 q 560 3 629 19 q 417 -14 492 -14 q 347 -8 379 -14 q 287 8 314 -1 q 240 27 260 17 q 208 44 219 38 q 167 4 189 19 q 118 -11 146 -11 q 105 -8 111 -11 q 99 3 99 -4 q 102 24 99 11 q 110 50 106 36 q 119 77 114 64 q 126 97 124 90 q 114 119 119 108 q 108 153 108 129 q 115 181 108 171 q 131 194 122 190 q 149 199 140 199 q 163 199 158 199 q 235 418 199 310 q 268 515 250 464 q 305 615 286 565 q 342 713 324 665 q 379 800 361 760 q 424 851 403 835 q 461 875 444 868 q 497 881 481 882 q 469 808 486 854 q 431 703 451 761 q 387 580 410 644 q 343 453 364 515 q 306 344 325 403 q 272 235 288 285 q 236 117 254 175 q 270 83 247 100 q 321 53 293 67 q 379 31 349 40 q 438 22 410 22 q 545 31 497 22 q 628 59 593 39 q 681 113 663 79 q 700 197 700 147 q 683 279 700 244 q 641 341 665 314 q 590 389 617 368 q 542 428 563 410 q 488 476 508 457 q 467 522 467 496 q 477 556 467 542 q 502 583 488 571 q 532 603 517 594 q 558 619 547 613 q 669 707 625 664 q 714 808 714 750 q 676 902 714 874 q 572 931 639 931 q 393 897 485 931 q 214 775 301 863 q 192 742 197 758 q 182 713 186 726 q 172 692 178 700 q 153 683 167 683 q 126 687 138 683 q 114 714 114 690 q 160 794 114 749 q 281 878 207 839 q 447 946 356 918 q 628 974 538 974 q 767 942 715 974 q 818 839 818 911 z "},"":{"ha":685,"x_min":39,"x_max":717,"o":"m 717 140 q 503 -9 588 33 q 381 -51 418 -51 q 321 -34 336 -51 q 306 24 306 -17 q 310 63 306 36 q 324 124 315 89 q 343 198 332 158 q 368 275 354 238 q 428 449 397 357 q 484 623 458 542 q 526 765 510 704 q 542 846 542 826 q 529 876 542 864 q 492 888 517 888 q 442 878 469 888 q 390 856 415 868 q 347 831 365 843 q 322 814 328 818 q 228 727 278 779 q 139 603 178 675 q 122 556 126 581 q 112 513 117 532 q 98 480 107 493 q 69 467 89 467 q 48 472 57 467 q 39 489 39 476 q 76 596 39 539 q 163 706 113 653 q 263 801 213 760 q 343 861 314 843 q 473 933 414 906 q 596 961 532 961 q 640 938 628 961 q 653 878 653 914 q 644 836 653 867 q 624 763 636 806 q 594 669 611 719 q 562 566 578 618 q 531 464 546 514 q 504 375 515 414 q 487 311 499 354 q 463 223 475 268 q 440 141 450 178 q 431 94 431 104 q 428 77 431 89 q 428 53 426 65 q 438 33 431 42 q 467 24 446 24 q 519 36 489 24 q 581 69 549 49 q 644 114 613 89 q 703 163 675 139 l 717 140 l 717 140 z "},"":{"ha":1039,"x_min":103,"x_max":1108,"o":"m 1108 364 q 1088 272 1108 319 q 1032 181 1067 225 q 954 102 997 138 q 865 44 911 67 q 755 2 808 17 q 649 -19 701 -12 q 542 -28 596 -26 q 429 -29 488 -29 q 378 -29 397 -29 q 348 -30 360 -29 q 329 -31 336 -31 q 317 -31 322 -31 q 288 -29 301 -31 q 274 -17 274 -28 q 299 31 274 -10 q 356 139 325 71 q 469 389 415 274 q 565 594 522 504 q 639 747 608 685 q 683 833 669 808 q 629 863 661 847 q 559 890 597 878 q 476 911 521 903 q 381 919 431 919 q 285 906 328 919 q 217 867 242 892 q 189 828 199 847 q 174 794 179 810 q 169 765 169 778 q 168 749 168 753 q 178 711 168 729 q 189 678 189 693 q 172 640 189 660 q 140 619 156 619 q 113 631 124 619 q 103 671 103 642 q 124 787 103 729 q 203 894 144 844 q 255 929 225 914 q 316 956 285 944 q 376 973 347 967 q 426 979 406 979 q 606 961 536 979 q 729 914 675 943 q 757 958 739 929 q 794 1014 775 986 q 833 1063 814 1042 q 865 1083 853 1083 q 880 1083 872 1083 q 888 1071 888 1082 q 874 1035 888 1057 q 840 985 860 1014 q 822 956 832 971 q 801 927 811 940 q 785 903 792 914 q 776 889 778 893 q 901 794 840 847 q 1007 676 961 742 q 1081 533 1053 611 q 1108 364 1108 456 m 1006 328 q 985 470 1006 401 q 927 599 964 539 q 839 711 890 660 q 726 803 788 763 q 674 708 704 767 q 612 581 644 650 q 546 438 579 513 q 483 294 513 363 q 431 167 454 225 q 396 72 407 108 q 429 69 410 71 q 472 68 446 68 q 538 68 499 68 q 615 67 567 68 q 715 67 663 65 q 819 79 768 69 q 904 111 869 89 q 953 157 933 129 q 984 215 972 185 q 1001 274 996 244 q 1006 328 1006 304 z "},"":{"ha":758,"x_min":67,"x_max":853,"o":"m 853 931 q 844 890 853 908 q 821 859 835 872 q 790 837 807 846 q 758 824 774 828 l 750 828 q 767 860 765 844 q 769 888 769 876 q 740 934 769 915 q 650 953 710 953 q 540 933 588 953 q 459 883 492 914 q 410 815 426 853 q 393 739 393 776 q 423 649 393 682 q 488 599 453 617 q 553 572 524 581 q 583 550 583 563 q 567 519 583 533 q 528 501 551 506 q 409 483 469 501 q 301 430 349 465 q 222 341 253 394 q 192 217 192 288 q 203 138 192 175 q 238 74 214 101 q 301 32 263 47 q 393 17 339 17 q 533 38 465 17 q 656 86 600 58 q 751 142 711 114 q 811 186 792 171 l 826 167 q 753 114 804 147 q 635 47 703 81 q 485 -10 567 14 q 321 -35 404 -35 q 131 18 194 -35 q 67 163 67 71 q 90 265 67 217 q 148 353 113 313 q 226 426 183 394 q 310 481 269 458 q 383 517 350 504 q 429 531 415 529 q 391 550 414 538 q 347 582 368 563 q 311 628 326 601 q 296 692 296 656 q 333 813 296 756 q 433 912 371 869 q 574 978 494 954 q 736 1003 653 1003 q 778 999 757 1003 q 815 986 799 994 q 842 964 832 978 q 853 931 853 950 z "},"":{"ha":1351,"x_min":11,"x_max":1453,"o":"m 1453 176 q 1419 135 1453 165 q 1328 73 1385 106 q 1201 15 1272 40 q 1056 -10 1131 -10 q 969 23 1003 -10 q 936 119 936 56 q 947 219 936 165 q 972 324 957 274 q 1001 413 986 374 q 1025 471 1017 453 l 1022 476 q 963 406 1000 453 q 883 306 925 360 q 802 202 842 253 q 736 118 763 151 q 677 58 701 76 q 638 39 653 39 q 626 41 632 39 q 621 53 621 43 q 635 106 621 63 q 672 211 649 149 q 717 329 693 265 q 764 459 740 393 q 809 588 788 525 q 847 700 831 650 q 781 649 818 679 q 710 589 743 618 q 632 518 671 554 q 596 424 619 478 q 544 313 572 369 q 487 201 517 256 q 431 108 457 147 q 393 58 414 85 q 349 10 372 32 q 301 -25 326 -11 q 254 -39 276 -39 q 224 -26 231 -39 q 217 6 217 -12 q 240 82 217 31 q 297 190 264 133 q 367 300 331 247 q 431 381 404 353 l 519 475 q 537 528 529 494 q 551 599 544 561 q 560 672 557 636 q 564 733 564 708 q 550 846 564 803 q 489 889 536 889 q 417 871 456 889 q 339 824 378 853 q 263 762 300 796 q 200 694 226 728 q 153 630 178 668 q 106 553 128 592 q 70 480 85 514 q 56 426 56 446 q 58 408 56 419 q 59 387 60 397 q 53 369 58 376 q 33 363 47 363 q 11 385 11 363 q 14 412 11 392 q 22 446 17 432 q 100 597 50 522 q 200 731 150 672 q 408 914 311 857 q 572 971 506 971 q 650 928 628 971 q 672 822 672 885 q 663 679 672 743 q 644 575 654 615 q 686 607 663 589 q 731 644 706 622 q 785 692 757 665 q 838 740 813 717 q 887 782 864 764 q 928 810 910 800 q 961 821 947 821 q 970 817 965 821 q 972 804 975 813 l 754 203 l 758 200 l 1082 617 q 1113 672 1101 651 q 1133 708 1124 693 q 1153 740 1143 724 q 1183 781 1164 756 q 1233 819 1207 811 q 1269 828 1258 828 q 1285 818 1285 828 q 1286 797 1286 808 q 1278 776 1286 790 q 1260 745 1271 763 q 1239 710 1250 728 q 1219 678 1228 692 q 1178 600 1197 639 q 1150 539 1160 561 q 1122 463 1139 511 q 1088 361 1104 415 q 1059 254 1071 307 q 1047 167 1047 201 q 1071 75 1047 100 q 1133 50 1094 50 q 1251 71 1199 50 q 1342 117 1304 92 q 1421 183 1386 146 q 1434 192 1429 189 q 1446 194 1439 194 q 1453 176 1453 194 m 504 417 q 449 351 483 397 q 383 253 415 306 q 326 147 350 200 q 303 60 303 94 q 319 38 303 38 q 347 59 331 38 q 383 115 364 81 q 420 192 401 150 q 456 277 439 235 q 486 356 474 319 q 504 417 499 393 z "},"":{"ha":728,"x_min":3,"x_max":778,"o":"m 778 875 q 713 725 778 800 q 546 582 647 650 q 578 568 558 578 q 616 540 597 558 q 649 490 635 521 q 663 415 663 460 q 638 302 663 357 q 574 199 614 247 q 484 113 535 151 q 378 45 433 74 q 270 1 324 17 q 172 -14 217 -14 q 42 19 81 -14 q 3 103 3 51 q 16 153 3 132 q 48 188 29 174 q 88 210 67 203 q 125 219 108 218 l 128 215 q 104 172 113 196 q 96 128 96 149 q 131 58 96 82 q 233 33 167 33 q 360 67 303 33 q 458 153 417 101 q 521 265 499 204 q 543 381 543 326 q 479 510 543 482 q 460 516 471 514 q 439 519 449 518 q 408 533 408 524 q 413 547 408 543 q 424 554 417 550 q 463 572 442 563 q 524 606 483 581 q 574 643 549 621 q 622 694 600 665 q 658 756 644 722 q 672 828 672 790 q 645 911 672 886 q 571 936 618 936 q 497 925 535 936 q 425 894 460 914 q 363 850 386 874 q 324 808 339 826 q 298 776 308 789 q 278 764 288 764 q 260 765 264 764 q 256 786 256 767 q 269 819 256 801 q 306 853 283 836 q 356 888 328 871 q 415 922 385 906 q 528 965 468 950 q 633 981 589 981 q 743 955 708 981 q 778 875 778 929 z "},"":{"ha":1032,"x_min":33,"x_max":1081,"o":"m 1081 144 q 867 -5 951 38 q 744 -47 782 -47 q 709 -40 722 -47 q 690 -21 696 -32 q 682 5 683 -10 q 681 33 681 19 q 695 131 681 68 q 733 276 710 194 q 785 451 756 357 q 844 639 814 544 q 812 599 826 617 q 780 560 797 581 q 742 515 763 540 q 691 456 721 490 q 619 372 661 421 q 518 257 576 324 q 452 183 482 217 q 394 119 422 149 q 337 62 365 89 q 276 6 308 35 q 235 -18 265 -6 q 190 -31 210 -29 q 161 -11 171 -31 q 157 38 156 7 q 208 194 160 67 q 274 358 247 292 q 319 473 300 425 q 352 555 339 521 q 377 620 365 589 q 401 687 389 651 q 429 774 413 722 q 440 806 436 794 q 444 826 443 818 q 446 839 446 833 q 446 851 446 844 q 440 878 446 867 q 410 890 435 890 q 361 881 388 890 q 312 858 335 871 q 271 833 289 846 q 247 817 253 821 q 191 769 221 794 q 133 703 161 743 q 113 658 118 682 q 104 613 108 633 q 92 580 100 593 q 64 567 83 567 q 42 572 51 567 q 33 589 33 576 q 58 663 33 622 q 119 742 83 703 q 193 813 154 781 q 261 864 232 846 q 391 936 332 908 q 514 964 450 964 q 539 956 531 964 q 551 938 547 949 q 556 912 556 926 q 557 883 557 897 q 526 748 557 857 q 411 431 494 639 q 375 337 392 383 q 344 251 358 290 q 322 185 331 213 q 314 149 314 158 q 322 133 313 135 q 384 172 339 133 q 500 289 429 210 q 548 345 514 306 q 627 439 582 385 q 724 558 672 493 q 825 689 776 622 q 864 742 850 722 q 887 774 878 761 q 903 799 896 788 q 921 828 910 810 q 959 873 942 860 q 996 897 976 886 q 1029 905 1010 904 q 1056 906 1049 906 q 1067 893 1067 906 q 1060 876 1065 886 q 1043 842 1054 867 q 1007 763 1024 801 q 974 682 990 724 q 940 592 957 640 q 900 486 922 544 q 868 391 886 449 q 833 273 850 333 q 806 158 817 213 q 794 69 794 103 q 795 56 794 64 q 799 42 796 49 q 809 32 801 36 q 831 28 817 28 q 883 40 853 28 q 944 73 913 53 q 1008 118 976 93 q 1067 167 1039 143 l 1081 144 l 1081 144 z "},"":{"ha":1049,"x_min":33,"x_max":1114,"o":"m 1113 1203 q 1097 1167 1113 1192 q 1051 1114 1082 1142 q 992 1065 1021 1086 q 936 1031 964 1044 q 842 995 888 1007 q 765 983 797 983 q 708 992 732 982 q 685 1018 683 1003 q 688 1033 685 1024 q 694 1049 692 1042 q 717 1083 703 1068 q 756 1097 732 1097 q 770 1093 764 1097 q 790 1084 776 1089 q 826 1075 803 1079 q 890 1071 849 1071 q 965 1094 922 1071 q 1039 1154 1007 1117 q 1063 1200 1056 1172 q 1097 1225 1068 1225 q 1113 1203 1114 1225 m 1081 144 q 867 -5 951 38 q 744 -47 782 -47 q 709 -40 722 -47 q 690 -21 696 -32 q 682 5 683 -10 q 681 33 681 19 q 695 131 681 68 q 733 276 710 194 q 785 451 756 357 q 844 639 814 544 q 812 599 826 617 q 780 560 797 581 q 742 515 763 540 q 691 456 721 490 q 619 372 661 421 q 518 257 576 324 q 452 183 482 217 q 394 119 422 149 q 337 62 365 89 q 276 6 308 35 q 235 -18 265 -6 q 190 -31 210 -29 q 161 -11 171 -31 q 157 38 156 7 q 208 194 160 67 q 274 358 247 292 q 319 473 300 425 q 352 555 339 521 q 377 620 365 589 q 401 687 389 651 q 429 774 413 722 q 440 806 436 794 q 444 826 443 818 q 446 839 446 833 q 446 851 446 844 q 440 878 446 867 q 410 890 435 890 q 361 881 388 890 q 312 858 335 871 q 271 833 289 846 q 247 817 253 821 q 191 769 221 794 q 133 703 161 743 q 113 658 118 682 q 104 613 108 633 q 92 580 100 593 q 64 567 83 567 q 42 572 51 567 q 33 589 33 576 q 58 663 33 622 q 119 742 83 703 q 193 813 154 781 q 261 864 232 846 q 391 936 332 908 q 514 964 450 964 q 539 956 531 964 q 551 938 547 949 q 556 912 556 926 q 557 883 557 897 q 526 748 557 857 q 411 431 494 639 q 375 337 392 383 q 344 251 358 290 q 322 185 331 213 q 314 149 314 158 q 322 133 313 135 q 384 172 339 133 q 500 289 429 210 q 548 345 514 306 q 627 439 582 385 q 724 558 672 493 q 825 689 776 622 q 864 742 850 722 q 887 774 878 761 q 903 799 896 788 q 921 828 910 810 q 959 873 942 860 q 996 897 976 886 q 1029 905 1010 904 q 1056 906 1049 906 q 1067 893 1067 906 q 1060 876 1065 886 q 1043 842 1054 867 q 1007 763 1024 801 q 974 682 990 724 q 940 592 957 640 q 900 486 922 544 q 868 391 886 449 q 833 273 850 333 q 806 158 817 213 q 794 69 794 103 q 795 56 794 64 q 799 42 796 49 q 809 32 801 36 q 831 28 817 28 q 883 40 853 28 q 944 73 913 53 q 1008 118 976 93 q 1067 167 1039 143 l 1081 144 l 1081 144 z "},"":{"ha":850,"x_min":39,"x_max":904,"o":"m 904 919 q 892 874 904 897 q 861 831 881 851 q 817 792 842 810 q 769 763 793 774 l 764 771 q 788 803 778 786 q 797 838 797 821 q 769 863 797 863 q 703 842 744 863 q 617 776 663 821 q 553 713 586 747 q 493 649 521 678 q 428 579 460 613 q 438 558 432 571 q 447 533 442 547 q 458 501 451 519 q 481 432 468 468 q 505 361 493 396 q 528 294 517 326 q 550 235 540 261 q 624 83 585 142 q 708 25 663 25 q 780 42 747 25 q 861 100 813 60 l 871 71 q 740 -28 800 0 q 622 -57 681 -57 q 578 -47 601 -57 q 531 -14 556 -37 q 483 49 507 10 q 439 149 460 89 q 406 244 422 194 q 376 338 390 294 q 350 417 361 382 q 333 467 339 451 q 291 406 322 447 q 229 288 260 365 q 209 235 218 261 q 193 188 200 208 q 179 139 185 163 q 168 101 172 118 q 158 74 164 83 q 142 46 151 57 q 109 16 131 31 q 68 1 88 1 q 39 26 39 1 q 47 61 39 33 q 67 132 54 89 q 98 231 81 175 q 135 349 115 286 q 172 469 153 407 q 209 592 190 531 q 246 709 228 653 q 281 814 264 765 q 293 848 286 829 q 307 885 300 867 q 321 918 314 903 q 333 942 328 933 q 356 963 342 954 q 386 978 371 972 q 416 988 401 985 q 440 990 431 990 q 446 972 446 990 q 441 953 446 965 q 429 925 436 940 q 415 894 422 910 q 403 864 408 878 q 368 765 389 828 q 326 635 347 701 q 286 509 304 568 q 260 421 268 450 l 264 419 l 319 494 q 328 530 322 508 q 357 575 333 551 q 379 589 367 585 q 399 593 392 593 q 462 663 433 632 q 517 722 490 694 q 568 776 543 750 q 621 829 593 801 q 680 879 649 857 q 742 917 711 901 q 802 942 774 933 q 854 950 831 950 q 868 949 860 950 q 885 946 876 949 q 899 937 893 943 q 904 919 904 931 z "},"":{"ha":839,"x_min":14,"x_max":910,"o":"m 910 182 q 846 131 883 160 q 739 61 808 101 q 674 24 701 39 q 626 -1 647 8 q 590 -15 606 -11 q 558 -19 574 -19 q 530 -12 540 -19 q 513 5 519 -6 q 505 29 507 15 q 503 56 503 43 q 508 112 503 78 q 521 185 513 146 q 540 266 529 224 q 563 349 551 308 q 622 550 588 444 l 615 554 q 576 497 603 536 q 515 410 549 457 q 447 317 482 364 q 383 236 413 269 q 277 118 322 164 q 197 46 232 72 q 133 10 161 19 q 79 0 104 0 q 28 22 43 0 q 14 83 14 44 q 24 127 14 106 q 47 164 35 149 q 77 188 58 179 q 111 203 96 197 q 113 177 113 192 q 118 150 114 163 q 132 128 122 138 q 158 119 142 119 q 201 128 179 119 q 251 157 224 136 q 312 213 278 178 q 392 303 346 249 q 477 413 436 357 q 551 517 518 468 q 607 606 583 567 q 642 664 631 644 q 664 735 651 694 q 690 815 676 775 q 719 890 704 854 q 747 944 733 925 q 810 998 782 985 q 857 1011 839 1011 q 871 1006 868 1011 q 874 985 874 1000 q 865 942 874 971 q 842 880 856 914 q 813 808 828 846 q 783 739 797 771 q 754 659 771 711 q 719 544 738 607 q 682 414 700 481 q 649 290 664 347 q 626 192 635 233 q 617 142 617 151 q 615 122 617 133 q 617 98 614 110 q 627 78 619 86 q 654 69 635 69 q 762 107 699 69 q 900 199 825 144 l 910 182 l 910 182 z "},"":{"ha":1138,"x_min":-35,"x_max":1218,"o":"m 1218 189 q 1181 162 1199 175 q 1144 135 1164 149 q 1100 105 1125 121 q 1042 69 1075 89 q 963 24 996 42 q 905 -3 929 7 q 865 -18 881 -14 q 839 -22 850 -22 q 799 -3 806 -22 q 792 33 792 17 q 799 75 792 46 q 816 144 806 104 q 840 230 826 183 q 869 322 854 276 q 947 560 904 431 l 942 561 q 800 381 888 490 q 569 106 713 271 q 542 75 558 93 q 508 40 525 57 q 476 13 492 24 q 450 1 460 1 q 428 10 432 1 q 424 38 424 19 q 438 110 424 54 q 472 241 451 167 q 516 397 493 315 q 556 544 539 478 l 578 632 l 571 635 q 548 597 565 625 q 506 531 531 569 q 453 447 482 492 q 395 360 424 403 q 341 281 367 318 q 299 222 315 244 q 203 106 244 151 q 130 35 163 61 q 72 -1 97 8 q 22 -11 46 -11 q -10 -2 1 -11 q -26 19 -21 7 q -33 46 -32 32 q -35 68 -35 60 q -7 157 -35 118 q 53 213 21 196 l 61 211 q 60 179 60 196 q 65 148 61 163 q 77 124 69 133 q 100 114 85 114 q 128 122 111 114 q 167 148 144 129 q 221 199 190 167 q 292 283 251 232 q 371 393 326 328 q 458 528 415 458 q 539 662 501 597 q 597 769 576 726 q 614 816 608 799 q 624 844 619 833 q 632 865 628 856 q 644 889 636 874 q 675 921 656 908 q 711 933 694 933 q 747 932 735 933 q 758 911 758 931 q 739 817 758 865 q 700 706 719 768 q 657 565 679 640 q 616 423 635 490 q 584 304 597 356 q 567 235 571 253 q 563 219 565 231 q 558 197 560 208 q 556 176 556 185 q 560 167 556 167 q 590 192 564 167 q 653 262 615 218 q 737 363 690 306 q 831 482 783 419 q 922 608 878 544 q 997 728 965 671 q 1019 793 1010 765 q 1038 843 1029 821 q 1055 883 1046 865 q 1078 919 1064 901 q 1119 955 1099 947 q 1161 963 1140 963 q 1179 949 1176 963 q 1182 917 1182 936 q 1172 870 1182 901 q 1147 803 1161 839 q 1116 735 1132 768 q 1088 681 1100 701 q 1063 610 1079 658 q 1028 504 1047 563 q 988 383 1008 446 q 951 267 968 321 q 923 176 933 214 q 913 132 913 139 q 910 113 913 124 q 910 94 908 103 q 919 81 911 86 q 947 75 926 75 q 998 88 968 75 q 1062 119 1028 100 q 1133 163 1096 139 q 1204 211 1169 188 l 1218 189 l 1218 189 z "},"":{"ha":790,"x_min":-7,"x_max":863,"o":"m 863 183 q 785 112 826 149 q 689 39 744 75 q 636 7 658 19 q 597 -12 614 -6 q 567 -20 581 -18 q 539 -22 553 -22 q 499 -12 514 -22 q 475 13 483 -1 q 464 45 467 28 q 461 78 461 63 q 467 142 461 103 q 483 226 474 181 q 506 320 493 272 q 530 411 518 368 q 552 490 542 454 q 569 544 563 525 q 467 485 518 510 q 374 443 422 461 q 285 425 325 425 q 258 426 269 425 q 239 428 246 426 q 224 432 231 429 q 209 383 218 415 q 189 310 200 350 q 165 227 178 271 q 142 145 153 183 q 120 78 131 107 q 104 40 110 50 q 65 0 86 11 q 32 -11 44 -11 q -1 0 6 -11 q -7 35 -7 11 q 2 74 -7 43 q 24 142 11 104 q 49 219 36 181 q 71 281 63 257 l 142 463 q 130 483 135 471 q 125 519 125 496 q 131 544 125 532 q 145 566 136 556 q 165 582 154 576 q 189 588 176 588 q 236 726 214 663 q 255 780 246 753 q 272 830 264 807 q 288 869 281 853 q 300 892 296 885 q 330 927 317 915 q 354 943 343 939 q 373 947 365 947 q 388 947 381 947 q 399 928 399 947 q 385 872 399 908 q 353 786 372 836 l 264 553 q 279 532 268 540 q 308 517 289 524 q 358 511 326 511 q 436 524 397 511 q 507 553 475 536 q 560 586 539 569 q 586 611 582 603 q 606 675 597 639 q 625 743 614 711 q 656 827 642 794 q 683 879 671 860 q 706 908 696 899 q 725 924 717 918 q 757 942 740 935 q 782 949 774 949 q 794 943 793 949 q 794 926 794 938 q 786 894 794 918 q 763 831 778 869 q 729 741 749 792 q 689 631 710 690 q 646 500 668 571 q 606 358 624 429 q 577 221 589 286 q 565 107 565 156 q 566 91 565 101 q 571 71 567 81 q 583 54 575 61 q 608 47 592 47 q 663 60 635 47 q 720 94 690 72 q 782 144 750 115 q 849 206 814 174 l 863 183 l 863 183 z "},"":{"ha":939,"x_min":115,"x_max":926,"o":"m 926 739 q 920 644 926 697 q 897 532 914 592 q 851 407 881 472 q 774 274 821 342 q 562 56 678 136 q 315 -25 446 -25 q 225 -4 263 -25 q 163 50 188 17 q 127 125 139 83 q 115 208 115 167 q 149 419 115 321 q 229 595 182 518 q 329 726 276 672 q 421 803 382 779 q 551 939 468 894 q 724 983 635 983 q 818 962 779 983 q 881 905 857 940 q 916 826 906 869 q 926 739 926 782 m 818 711 q 813 780 818 742 q 790 851 807 818 q 742 907 774 885 q 660 929 711 929 q 595 919 625 929 q 542 894 565 910 q 503 860 519 878 q 479 825 488 842 q 563 864 517 849 q 642 879 610 879 q 684 876 671 879 q 697 858 697 872 q 688 847 697 847 q 667 851 676 847 q 642 856 658 856 q 598 851 622 856 q 549 836 574 846 q 501 813 524 826 q 463 782 479 799 q 461 763 460 771 q 460 744 463 756 q 442 726 456 731 q 418 722 429 722 q 406 732 408 722 q 407 750 404 742 q 351 681 381 721 q 296 585 321 642 q 254 454 271 529 q 238 281 238 379 q 246 197 238 238 q 274 123 254 156 q 326 71 293 90 q 407 51 358 51 q 548 97 482 51 q 674 226 614 143 q 735 335 708 274 q 780 461 761 396 q 808 591 799 526 q 818 711 818 656 z "},"":{"ha":888,"x_min":71,"x_max":936,"o":"m 936 161 q 722 12 807 54 q 600 -31 638 -31 q 540 -13 556 -31 q 525 44 525 4 q 542 135 525 69 q 588 296 560 201 q 652 522 626 429 q 692 674 678 614 q 711 767 706 735 q 717 808 717 799 q 703 828 717 828 q 658 803 686 828 q 603 747 631 778 q 536 667 571 711 q 467 585 503 633 q 397 479 432 536 q 331 362 363 422 q 272 247 299 301 q 224 148 244 193 q 192 76 203 103 q 174 56 186 68 q 148 33 163 44 q 118 15 133 22 q 89 7 103 7 q 73 14 74 7 q 71 35 72 21 q 75 57 71 42 q 85 92 79 72 q 99 132 92 111 q 111 171 106 153 q 149 283 128 221 q 193 409 171 346 q 235 528 215 472 q 267 621 256 585 q 278 656 269 631 q 297 710 288 682 q 313 763 306 739 q 319 794 319 788 q 317 828 319 824 q 304 832 314 832 q 224 792 275 832 q 92 672 172 753 l 83 700 q 294 878 204 818 q 419 938 383 938 q 442 931 433 938 q 450 906 450 925 q 442 850 450 875 q 424 788 435 825 q 406 728 417 763 q 383 656 396 694 q 357 578 371 618 q 329 500 343 538 q 263 314 297 411 l 269 308 q 449 597 363 478 q 605 790 535 715 q 725 900 675 865 q 799 935 775 935 q 834 910 829 935 q 839 853 839 886 q 827 783 839 833 q 797 666 815 732 q 760 528 779 600 q 724 396 740 457 q 706 332 718 375 q 682 244 694 289 q 660 162 669 199 q 650 115 650 125 q 648 98 650 110 q 648 74 646 86 q 658 53 650 63 q 686 44 665 44 q 738 57 708 44 q 800 90 768 69 q 863 135 832 110 q 922 183 894 160 l 936 161 l 936 161 z "},"":{"ha":893,"x_min":58,"x_max":983,"o":"m 983 808 q 938 665 983 735 q 817 540 892 596 q 647 447 742 483 q 453 403 551 410 q 413 283 431 332 q 389 189 396 235 q 384 126 382 149 q 386 83 386 103 q 377 58 386 78 q 361 28 368 38 q 328 -8 346 7 q 283 -22 310 -22 q 265 -12 275 -22 q 254 21 254 -3 q 272 133 254 69 q 314 264 290 197 q 328 303 319 281 q 343 344 336 325 q 360 393 351 368 q 301 403 322 394 q 279 426 279 411 q 282 455 279 439 q 300 472 285 471 q 318 461 313 472 q 339 443 324 450 q 364 436 353 436 q 378 436 369 435 q 448 627 413 529 q 528 844 483 725 q 567 870 547 863 q 603 881 588 878 q 639 881 621 883 q 612 806 632 858 q 566 690 592 754 q 514 559 540 626 q 469 439 488 492 q 615 468 542 440 q 746 541 688 496 q 841 647 804 586 q 878 775 878 707 q 824 889 878 847 q 657 931 769 931 q 504 917 582 931 q 356 878 426 903 q 229 821 286 854 q 139 750 172 788 q 125 724 128 738 q 120 700 122 711 q 114 682 118 689 q 97 675 110 675 q 70 678 82 675 q 58 706 58 682 q 84 750 58 722 q 156 809 110 778 q 265 872 203 840 q 401 931 328 904 q 556 973 475 957 q 719 989 636 989 q 844 976 793 989 q 926 938 894 963 q 970 881 957 914 q 983 808 983 847 z "},"":{"ha":663,"x_min":69,"x_max":746,"o":"m 746 903 q 696 796 746 847 q 678 779 690 789 q 653 760 667 769 q 624 744 639 751 q 596 738 608 738 q 588 747 588 738 q 623 795 610 767 q 636 858 636 824 q 619 889 636 881 q 578 897 601 897 q 490 875 536 897 q 398 812 443 853 q 312 715 353 771 q 240 592 271 660 q 190 450 208 525 q 172 296 172 375 q 215 113 172 179 q 354 47 257 47 q 479 71 421 47 q 583 123 538 94 q 658 175 628 151 q 697 199 688 199 q 704 178 708 199 q 681 152 703 172 q 619 106 658 132 q 526 50 579 79 q 410 -1 472 21 q 335 -21 374 -14 q 261 -28 296 -28 q 124 27 179 -28 q 69 189 69 82 q 83 329 69 260 q 132 488 96 399 q 282 744 193 638 q 478 917 371 851 q 571 960 526 946 q 651 975 615 975 q 685 972 668 975 q 715 961 701 969 q 737 939 728 953 q 746 903 746 925 z "},"":{"ha":1211,"x_min":71,"x_max":1256,"o":"m 1256 161 q 1004 8 1104 57 q 860 -42 904 -42 q 835 -25 840 -42 q 832 10 829 -8 q 840 51 833 22 q 856 117 846 79 q 880 201 867 156 q 907 296 893 247 q 930 374 917 331 q 958 465 943 418 q 987 557 972 511 q 1013 642 1001 603 q 1031 709 1024 681 q 1040 749 1039 738 q 1042 767 1040 760 q 1033 775 1043 775 q 1002 749 1024 775 q 953 694 981 724 q 910 644 938 679 q 847 561 882 608 q 774 459 813 514 q 700 350 735 404 q 654 269 678 317 q 610 176 631 221 q 576 98 590 131 q 560 63 561 65 q 512 17 538 31 q 458 3 486 3 q 451 10 451 3 q 453 31 451 21 q 458 55 454 40 q 470 92 463 69 q 489 150 478 114 l 643 643 q 666 722 658 689 q 675 771 674 756 q 667 788 675 785 q 620 758 654 788 q 536 667 586 728 q 474 582 507 632 q 406 475 440 532 q 338 358 371 418 q 276 245 304 299 q 225 147 247 192 q 192 76 203 103 q 174 56 186 68 q 148 33 163 44 q 118 15 133 22 q 89 7 103 7 q 73 14 74 7 q 71 35 72 21 q 75 57 71 42 q 85 92 79 72 q 99 132 92 111 q 111 171 106 153 q 149 283 128 221 q 193 409 171 346 q 235 528 215 472 q 267 621 256 585 q 278 656 269 631 q 297 710 288 682 q 313 763 306 739 q 319 794 319 788 q 317 828 319 824 q 304 832 314 832 q 224 792 275 832 q 92 672 172 753 l 83 700 q 294 878 204 818 q 419 938 383 938 q 442 931 433 938 q 450 906 450 925 q 442 850 450 875 q 424 788 435 825 q 406 728 417 763 q 383 656 396 694 q 357 578 371 618 q 329 500 343 538 q 263 314 297 411 l 269 308 q 453 614 368 493 q 607 806 539 735 q 724 906 675 878 q 799 935 772 935 q 818 930 813 935 q 824 901 824 925 q 813 849 824 888 q 787 759 803 811 q 752 648 771 707 q 715 535 733 589 q 683 438 697 481 q 663 374 668 394 l 667 374 q 827 592 754 492 q 960 765 900 692 q 1069 878 1021 838 q 1157 918 1118 918 q 1178 908 1175 918 q 1182 883 1182 897 q 1174 844 1182 874 q 1155 773 1167 814 q 1128 683 1143 732 q 1099 583 1114 633 q 1069 484 1083 533 q 1043 396 1054 435 q 1026 332 1038 375 q 1001 244 1014 289 q 979 162 989 199 q 969 115 969 125 q 967 101 969 110 q 965 83 965 92 q 969 69 965 75 q 986 64 974 64 q 1038 74 1008 64 q 1101 100 1068 83 q 1170 138 1135 117 q 1242 183 1206 160 l 1256 161 l 1256 161 z "},"":{"ha":865,"x_min":35,"x_max":963,"o":"m 963 949 q 952 899 963 925 q 927 847 942 874 q 895 794 913 819 q 865 747 878 768 q 791 532 826 635 q 713 339 756 429 q 506 67 631 165 q 231 -32 381 -32 q 141 -21 172 -32 q 111 11 110 -10 q 116 26 111 14 q 138 39 121 39 q 157 32 150 39 q 172 17 164 25 q 190 3 179 10 q 219 -4 200 -4 q 324 9 278 -4 q 411 51 371 22 q 489 128 451 81 q 568 244 526 175 q 607 319 589 279 q 644 406 625 358 q 685 508 664 453 q 733 626 707 563 l 729 628 q 683 580 714 608 q 612 519 651 551 q 528 453 572 486 q 446 392 485 419 q 420 376 436 385 q 386 361 404 368 q 349 349 368 354 q 314 344 331 344 q 290 358 296 344 q 285 399 285 371 q 294 440 285 411 q 318 506 304 469 q 348 581 332 543 q 376 650 364 619 q 405 720 392 685 q 427 787 418 756 q 442 842 436 818 q 447 882 447 867 q 442 909 447 897 q 411 921 436 921 q 363 911 389 921 q 313 889 336 901 q 272 864 290 876 q 249 847 254 851 q 192 799 222 825 q 135 733 163 774 q 115 688 119 713 q 106 644 110 664 q 93 610 101 624 q 65 597 85 597 q 44 602 53 597 q 35 619 35 607 q 60 693 35 653 q 120 772 85 733 q 194 844 156 811 q 263 894 233 876 q 392 967 333 939 q 515 994 451 994 q 540 987 532 994 q 553 968 549 979 q 558 942 557 957 q 558 914 558 928 q 551 869 558 897 q 534 808 544 840 q 512 741 524 775 q 489 676 500 707 q 467 617 479 651 q 443 551 454 583 q 424 494 432 519 q 417 464 417 469 q 435 449 417 449 q 453 452 446 449 q 475 463 461 456 q 547 508 506 475 q 630 581 588 540 q 709 665 672 621 q 768 746 746 710 q 793 816 781 785 q 818 874 806 847 q 861 939 842 922 q 944 971 897 969 q 963 949 963 971 z "},"":{"ha":1135,"x_min":128,"x_max":1125,"o":"m 1125 614 q 1112 523 1125 568 q 1076 437 1099 478 q 1024 360 1053 396 q 961 297 994 325 q 778 185 882 231 q 557 140 674 140 q 544 83 550 114 q 532 33 539 53 q 526 19 529 25 q 519 7 524 14 q 498 -22 514 -6 q 456 -57 482 -39 q 435 -67 446 -64 q 415 -72 425 -69 q 386 -53 388 -72 q 392 -27 386 -47 q 408 20 399 -7 q 427 78 417 47 q 446 139 438 110 q 208 203 289 139 q 128 390 128 268 q 182 573 128 493 q 319 708 236 653 q 500 793 401 763 q 689 828 599 824 q 728 926 711 885 q 756 979 746 967 q 770 994 761 986 q 793 1006 779 1001 q 831 1013 808 1010 q 865 1015 853 1015 q 874 1010 872 1015 q 875 1003 875 1006 q 863 974 875 1000 q 838 918 851 949 q 800 839 821 882 l 828 839 q 1049 786 974 839 q 1125 614 1125 733 m 1007 603 q 951 750 1007 706 q 806 794 896 794 l 782 794 q 709 598 738 675 q 663 469 681 521 q 633 381 644 417 q 610 308 622 344 q 587 240 597 271 q 568 181 576 208 q 724 202 654 181 q 860 283 793 224 q 973 439 939 353 q 1007 603 1007 525 m 669 783 q 520 756 596 781 q 383 681 444 731 q 283 559 322 632 q 244 389 244 486 q 294 238 244 294 q 458 178 344 181 q 481 253 469 217 q 504 325 492 289 q 579 538 539 425 q 669 783 619 650 z "},"":{"ha":701,"x_min":8,"x_max":767,"o":"m 767 163 q 708 113 743 142 q 633 56 674 83 q 547 8 592 28 q 456 -11 501 -11 q 342 80 386 -11 q 275 360 299 171 q 213 279 251 329 q 128 139 175 229 q 101 78 113 111 q 81 19 90 46 q 62 -26 71 -8 q 44 -44 53 -44 q 16 -32 24 -44 q 8 -1 8 -19 q 35 53 14 13 q 90 150 57 94 q 167 272 124 206 q 261 404 210 338 q 228 634 240 549 q 214 747 217 719 q 202 799 210 783 q 186 819 194 814 q 166 825 176 825 q 156 842 156 825 q 160 862 156 850 q 170 888 164 874 q 185 916 176 901 q 203 942 194 931 q 226 965 214 957 q 244 972 238 972 q 258 972 250 972 q 272 965 265 971 q 285 944 279 958 q 296 904 292 931 q 309 810 303 863 q 321 705 315 758 q 331 600 326 651 q 343 508 336 549 q 416 609 378 558 q 491 706 454 660 q 558 792 528 753 q 610 856 589 831 q 672 928 642 896 q 717 960 701 960 q 736 954 726 960 q 746 929 746 949 q 740 898 746 910 q 720 874 733 886 q 687 844 707 861 q 638 797 667 826 q 584 740 619 779 q 508 653 549 701 q 426 551 467 604 q 356 454 385 499 q 388 274 371 349 q 424 153 404 200 q 468 83 444 106 q 522 61 492 61 q 581 73 549 61 q 644 103 613 85 q 703 142 675 121 q 753 185 732 164 l 767 163 l 767 163 z "},"":{"ha":1024,"x_min":33,"x_max":1074,"o":"m 1074 914 q 1067 897 1072 907 q 1050 863 1061 888 q 1013 781 1031 822 q 978 693 996 739 q 941 596 960 647 q 900 486 922 544 q 867 390 886 449 q 830 268 847 331 q 801 149 813 206 q 789 58 789 92 q 797 -17 789 19 q 813 -84 804 -53 q 828 -142 821 -115 q 836 -192 836 -169 q 813 -299 836 -246 q 751 -398 789 -351 q 666 -482 714 -444 q 568 -544 618 -519 l 560 -531 q 625 -484 590 -511 q 689 -424 660 -457 q 737 -351 718 -390 q 756 -265 756 -311 q 744 -194 756 -232 q 718 -118 732 -157 q 692 -41 704 -79 q 681 33 681 -3 q 695 131 681 68 q 733 276 710 194 q 785 451 756 357 q 844 639 814 544 q 794 576 817 606 q 737 504 771 546 q 651 401 703 463 q 514 244 599 340 q 449 172 478 204 q 392 113 419 140 q 336 60 364 86 q 276 6 308 35 q 258 -7 269 -1 q 235 -18 247 -12 q 213 -27 222 -24 q 190 -31 203 -31 q 165 -15 174 -31 q 157 26 157 0 q 170 85 157 42 q 208 194 183 129 q 274 358 247 292 q 319 473 300 425 q 352 555 339 521 q 377 620 365 589 q 401 687 389 651 q 429 774 413 722 q 440 806 436 794 q 444 826 443 818 q 446 839 446 833 q 446 851 446 844 q 440 878 446 867 q 410 890 435 890 q 361 881 388 890 q 312 858 335 871 q 271 833 289 846 q 247 817 253 821 q 191 769 221 794 q 133 703 161 743 q 113 658 118 682 q 104 613 108 633 q 92 580 100 593 q 64 567 83 567 q 42 572 51 567 q 33 589 33 576 q 58 663 33 622 q 119 742 83 703 q 193 813 154 781 q 261 864 232 846 q 391 936 332 908 q 514 964 450 964 q 551 940 546 964 q 557 883 557 915 q 524 744 557 851 q 411 431 490 636 q 376 337 393 383 q 344 251 358 290 q 322 185 331 213 q 314 149 314 158 q 322 133 313 135 q 384 172 339 133 q 500 289 429 210 q 548 345 514 306 q 627 439 582 385 q 724 558 672 493 q 825 689 776 622 q 865 744 850 722 q 890 784 879 767 q 908 816 900 801 q 928 849 917 831 q 966 894 949 881 q 1003 918 983 907 q 1036 926 1017 925 q 1063 926 1056 926 q 1074 914 1074 926 z "},"":{"ha":911,"x_min":-25,"x_max":979,"o":"m 979 949 q 969 899 979 925 q 944 847 958 874 q 912 794 929 819 q 882 747 894 768 q 849 659 869 710 q 806 550 829 608 q 760 430 783 492 q 719 308 738 368 q 690 194 701 249 q 678 99 678 140 q 678 85 678 93 q 681 69 678 76 q 693 56 685 61 q 718 50 701 50 q 772 63 744 50 q 830 97 800 75 q 892 147 860 118 q 958 208 924 176 l 972 186 q 895 115 936 151 q 799 42 854 78 q 704 -12 738 1 q 643 -25 671 -25 q 608 -16 622 -25 q 587 8 594 -7 q 576 38 579 22 q 574 69 574 54 q 592 189 574 119 q 636 334 610 258 q 693 486 663 410 q 750 626 724 563 l 746 628 q 699 580 731 608 q 628 519 668 551 q 545 453 589 486 q 463 392 501 419 q 437 376 453 385 q 403 361 421 368 q 366 349 385 354 q 331 344 347 344 q 307 358 313 344 q 301 399 301 371 q 311 440 301 411 q 335 506 321 469 q 365 581 349 543 q 393 650 381 619 q 422 720 408 685 q 444 787 435 756 q 458 842 453 818 q 464 882 464 867 q 458 909 464 897 q 428 921 453 921 q 378 911 406 921 q 326 889 351 901 q 283 864 301 876 q 258 847 264 851 q 164 760 214 813 q 75 636 114 708 q 58 590 63 614 q 48 546 53 565 q 34 513 43 526 q 6 500 25 500 q -16 505 -7 500 q -25 522 -25 510 q 12 629 -25 572 q 99 740 49 686 q 199 835 149 793 q 279 894 250 876 q 409 967 350 939 q 532 994 468 994 q 557 987 549 994 q 569 968 565 979 q 574 942 574 957 q 575 914 575 928 q 568 869 575 897 q 551 808 561 840 q 528 741 540 775 q 506 676 517 707 q 483 617 496 651 q 460 551 471 583 q 441 494 449 519 q 433 464 433 469 q 451 449 433 449 q 470 452 463 449 q 492 463 478 456 q 563 508 522 475 q 647 581 604 540 q 726 665 689 621 q 785 746 763 710 q 810 816 797 785 q 835 874 822 847 q 878 939 858 922 q 961 971 914 969 q 979 949 979 971 z "},"":{"ha":1444,"x_min":-22,"x_max":1467,"o":"m 1467 142 q 1253 -8 1338 35 q 1131 -50 1168 -50 q 1095 -42 1108 -50 q 1076 -24 1082 -35 q 1068 2 1069 -12 q 1067 31 1067 17 q 1079 125 1067 65 q 1113 260 1092 185 q 1160 421 1133 335 q 1218 593 1188 507 q 1163 519 1196 564 q 1089 420 1129 474 q 1003 308 1049 367 q 913 195 958 250 q 822 92 867 140 q 740 11 778 44 q 703 -10 729 1 q 654 -25 678 -22 q 628 -2 635 -25 q 621 43 621 21 q 633 124 621 67 q 667 257 646 181 q 715 422 688 333 q 774 596 743 510 q 715 521 751 567 q 635 421 679 475 q 540 308 590 367 q 441 192 490 249 q 344 88 392 136 q 260 6 297 39 q 243 -6 253 0 q 218 -18 233 -11 q 174 -31 193 -29 q 144 -11 154 -31 q 140 38 139 7 q 192 194 143 67 q 257 358 231 292 q 303 473 283 425 q 335 555 322 521 q 360 620 349 589 q 384 687 372 651 q 413 774 396 722 q 423 806 419 794 q 428 826 426 818 q 429 839 429 833 q 429 851 429 844 q 424 878 429 867 q 393 890 418 890 q 312 866 357 890 q 222 805 267 842 q 139 723 178 768 q 78 636 100 678 q 60 590 65 614 q 51 546 56 565 q 37 513 46 526 q 8 500 28 500 q -13 505 -4 500 q -22 522 -22 510 q 8 606 -22 556 q 81 706 39 656 q 168 798 124 756 q 242 858 213 840 q 373 933 313 903 q 497 964 433 964 q 522 956 514 964 q 535 938 531 949 q 540 912 539 926 q 540 883 540 897 q 509 748 540 857 q 394 431 478 639 q 358 337 375 383 q 328 251 342 290 q 306 185 314 213 q 297 149 297 158 q 306 133 294 133 q 364 171 322 133 q 465 275 406 208 q 597 434 524 342 q 753 638 671 526 q 794 698 778 671 q 822 748 810 725 q 842 790 833 771 q 863 828 851 810 q 901 873 883 860 q 938 897 918 886 q 971 905 951 904 q 997 906 990 906 q 1008 893 1008 906 q 1001 876 1007 886 q 985 842 996 867 q 949 763 965 801 q 915 682 932 724 q 881 592 899 640 q 842 486 864 544 q 822 426 832 461 q 800 351 811 390 q 779 272 789 311 q 762 201 769 233 q 749 147 754 169 q 744 121 744 125 q 753 106 744 106 q 810 147 769 106 q 910 260 851 188 q 1042 428 968 332 q 1197 635 1115 524 q 1238 695 1222 668 q 1266 745 1254 722 q 1287 788 1278 768 q 1307 825 1296 807 q 1345 870 1328 857 q 1382 894 1363 883 q 1415 902 1396 901 q 1442 903 1435 903 q 1453 890 1453 903 q 1446 874 1451 883 q 1429 839 1440 864 q 1393 760 1410 799 q 1360 679 1376 721 q 1326 590 1343 638 q 1286 483 1308 542 q 1254 388 1272 446 q 1219 270 1236 331 q 1192 155 1203 210 q 1181 67 1181 100 q 1181 53 1181 61 q 1185 40 1182 46 q 1195 29 1188 33 q 1217 25 1203 25 q 1269 38 1239 25 q 1331 70 1299 50 q 1394 115 1363 90 q 1453 164 1425 140 l 1467 142 l 1467 142 z "},"":{"ha":1410,"x_min":-6,"x_max":1469,"o":"m 1469 890 q 1463 874 1468 883 q 1446 839 1457 864 q 1410 760 1426 799 q 1376 679 1393 721 q 1342 590 1360 638 q 1303 483 1325 542 q 1271 401 1289 446 q 1236 307 1253 356 q 1208 206 1219 258 q 1197 100 1197 153 q 1205 18 1197 54 q 1221 -49 1213 -18 q 1237 -103 1229 -79 q 1244 -150 1244 -128 q 1216 -260 1244 -204 q 1147 -365 1188 -317 q 1061 -447 1106 -412 q 985 -490 1017 -481 l 968 -489 q 1033 -441 999 -468 q 1097 -381 1068 -414 q 1145 -308 1126 -347 q 1164 -224 1164 -269 q 1152 -153 1164 -190 q 1127 -77 1140 -115 q 1102 -1 1114 -39 q 1090 71 1090 36 q 1101 192 1090 135 q 1132 309 1113 249 q 1178 438 1151 369 q 1235 593 1204 507 q 1179 519 1213 564 q 1106 420 1146 474 q 1020 308 1065 367 q 929 195 975 250 q 839 92 883 140 q 757 11 794 44 q 720 -10 746 1 q 671 -25 694 -22 q 644 -2 651 -25 q 638 43 638 21 q 650 124 638 67 q 683 257 663 181 q 732 422 704 333 q 790 596 760 510 q 732 521 768 567 q 651 421 696 475 q 557 308 607 367 q 458 192 507 249 q 361 88 408 136 q 276 6 314 39 q 260 -6 269 0 q 235 -18 250 -11 q 190 -31 210 -29 q 161 -11 171 -31 q 157 38 156 7 q 208 194 160 67 q 274 358 247 292 q 319 473 300 425 q 352 555 339 521 q 377 620 365 589 q 401 687 389 651 q 429 774 413 722 q 440 806 436 794 q 444 826 443 818 q 446 839 446 833 q 446 851 446 844 q 440 878 446 867 q 410 890 435 890 q 328 866 374 890 q 239 805 283 842 q 156 723 194 768 q 94 636 117 678 q 77 590 82 614 q 67 546 72 565 q 53 513 63 526 q 25 500 44 500 q 3 505 13 500 q -6 522 -6 510 q 25 606 -6 556 q 98 706 56 656 q 185 798 140 756 q 258 858 229 840 q 390 933 329 903 q 514 964 450 964 q 539 956 531 964 q 551 938 547 949 q 556 912 556 926 q 557 883 557 897 q 526 748 557 857 q 411 431 494 639 q 375 337 392 383 q 344 251 358 290 q 322 185 331 213 q 314 149 314 158 q 322 133 311 133 q 381 171 339 133 q 481 275 422 208 q 614 434 540 342 q 769 638 688 526 q 810 698 794 671 q 838 748 826 725 q 859 790 850 771 q 879 828 868 810 q 917 873 900 860 q 954 897 935 886 q 988 905 968 904 q 1014 906 1007 906 q 1025 893 1025 906 q 1018 876 1024 886 q 1001 842 1013 867 q 965 763 982 801 q 932 682 949 724 q 898 592 915 640 q 858 486 881 544 q 838 426 849 461 q 817 351 828 390 q 796 272 806 311 q 778 201 786 233 q 766 147 771 169 q 761 121 761 125 q 769 106 761 106 q 827 147 786 106 q 926 260 868 188 q 1058 428 985 332 q 1214 635 1132 524 q 1255 695 1239 668 q 1283 745 1271 722 q 1303 788 1294 768 q 1324 825 1313 807 q 1362 870 1344 857 q 1399 894 1379 883 q 1432 902 1413 901 q 1458 903 1451 903 q 1469 890 1469 903 z "},"":{"ha":807,"x_min":67,"x_max":804,"o":"m 706 378 q 701 424 706 401 q 687 464 697 446 q 658 492 676 482 q 611 503 640 503 q 538 485 575 503 q 469 439 501 467 l 461 458 q 579 547 518 517 q 685 576 640 576 q 772 546 740 576 q 804 444 804 515 q 783 335 804 390 q 724 228 761 279 q 641 133 688 178 q 545 56 594 89 q 447 5 496 24 q 357 -14 397 -14 q 313 -8 336 -14 q 271 14 290 -3 q 239 60 251 31 q 226 139 226 90 q 237 235 226 182 q 264 342 247 288 q 300 452 281 397 q 339 553 319 507 q 374 635 358 600 q 396 686 389 669 q 465 842 436 778 q 500 931 493 907 q 408 924 451 931 q 324 901 364 917 q 244 859 283 885 q 167 797 206 833 q 144 765 150 782 q 134 735 138 749 q 125 714 131 722 q 106 706 119 706 q 78 709 90 706 q 67 736 67 713 q 94 787 67 760 q 164 842 121 814 q 263 895 207 869 q 374 941 318 921 q 483 973 431 961 q 575 985 536 985 q 598 978 589 985 q 607 957 607 972 q 597 924 607 949 q 575 871 586 899 q 543 800 560 839 q 508 715 529 765 q 463 607 486 665 q 416 487 439 549 q 374 365 393 425 q 344 253 356 306 q 332 161 332 200 q 356 88 332 117 q 426 60 381 60 q 538 90 486 60 q 626 167 589 121 q 685 270 664 214 q 706 378 706 326 z "},"":{"ha":967,"x_min":3,"x_max":981,"o":"m 981 800 q 970 728 981 771 q 945 637 960 686 q 913 535 931 588 q 882 435 896 483 q 843 265 857 344 q 822 119 829 186 q 814 1 815 53 q 811 -86 813 -51 q 772 -73 789 -85 q 742 -42 754 -61 q 723 -1 729 -24 q 717 44 717 22 q 723 131 717 81 q 739 237 729 182 q 760 345 749 292 q 783 442 772 399 q 802 508 788 461 q 832 609 817 556 q 859 710 847 663 q 871 779 871 758 q 864 822 871 807 q 833 836 857 836 q 765 825 807 836 q 678 796 724 814 q 585 755 632 778 q 501 707 539 732 q 440 658 464 682 q 417 617 417 635 q 442 544 417 574 q 497 486 467 514 q 553 425 528 458 q 578 342 578 392 q 574 293 578 313 q 562 256 571 274 q 538 220 553 239 q 500 174 522 201 q 417 99 469 136 q 308 31 365 61 q 193 -17 250 1 q 94 -36 136 -36 q 3 69 3 -36 q 15 169 3 114 q 47 286 28 224 q 90 416 67 349 q 136 553 114 483 q 164 632 146 583 q 201 733 182 681 q 241 834 221 785 q 275 917 261 883 q 334 964 303 953 q 381 975 365 975 q 388 971 388 975 q 389 961 389 967 q 374 920 389 954 q 344 844 360 886 q 323 787 336 822 q 290 699 310 751 q 244 571 271 646 q 183 394 218 496 q 163 331 175 369 q 141 251 151 292 q 124 174 131 211 q 117 114 117 136 q 118 83 117 97 q 126 59 119 69 q 144 43 132 49 q 179 38 157 38 q 294 65 242 38 q 385 133 347 93 q 443 219 422 174 q 464 303 464 265 q 442 385 464 351 q 392 445 419 418 q 343 499 365 472 q 321 560 321 525 q 356 633 321 594 q 446 708 390 671 q 569 779 501 746 q 703 838 638 813 q 826 878 769 863 q 914 893 882 893 q 939 890 926 893 q 960 878 951 888 q 975 851 969 869 q 981 800 981 832 z "},"":{"ha":667,"x_min":78,"x_max":657,"o":"m 657 444 q 635 335 657 390 q 576 228 613 279 q 493 133 540 178 q 396 56 446 89 q 297 5 346 24 q 208 -14 249 -14 q 160 -8 183 -14 q 119 14 138 -3 q 89 60 100 31 q 78 139 78 90 q 101 287 78 203 q 153 451 124 371 q 210 597 182 532 q 247 686 238 661 q 295 810 278 767 q 323 874 313 853 q 341 906 333 896 q 361 928 349 915 q 415 969 382 951 q 472 986 449 986 q 481 974 481 986 l 394 800 q 356 716 378 765 q 310 609 333 667 q 263 489 286 551 q 223 367 240 426 q 194 253 206 307 q 183 161 183 200 q 206 90 183 117 q 272 64 229 64 q 388 94 335 64 q 478 169 440 124 q 538 271 517 215 q 558 378 558 326 q 554 424 558 401 q 540 464 550 446 q 511 492 529 482 q 464 503 493 503 q 391 485 428 503 q 322 439 354 467 l 314 458 q 432 547 371 517 q 538 576 493 576 q 625 546 593 576 q 657 444 657 515 z "},"":{"ha":799,"x_min":35,"x_max":806,"o":"m 806 749 q 801 701 806 732 q 790 633 797 669 q 771 557 782 596 q 746 488 760 518 l 781 486 q 797 483 794 485 q 801 472 800 481 q 796 456 800 465 q 776 443 792 447 q 751 438 761 439 q 721 436 740 438 q 679 355 708 404 q 610 251 650 306 q 522 146 571 197 q 421 60 472 94 q 303 -1 365 22 q 167 -25 240 -25 q 72 -3 110 -25 q 35 69 35 18 q 53 115 35 93 q 103 142 71 136 q 113 100 106 121 q 133 62 119 79 q 169 33 147 44 q 222 22 190 22 q 315 44 264 22 q 421 115 367 65 q 528 242 475 164 q 624 435 581 321 q 540 428 603 435 q 397 406 478 422 q 336 388 365 399 q 282 367 307 378 q 238 349 257 357 q 208 342 219 342 q 197 360 197 342 q 201 382 197 371 q 217 406 206 393 q 278 442 239 429 q 375 464 318 456 q 463 474 415 469 q 551 481 511 478 q 647 485 599 483 q 672 585 663 529 q 682 692 682 640 q 677 756 682 719 q 655 824 672 792 q 604 879 638 857 q 514 901 571 901 q 374 879 449 901 q 229 796 300 857 q 175 738 193 764 q 147 692 157 711 q 128 661 136 672 q 107 650 121 650 q 80 653 92 650 q 68 681 68 657 q 92 727 68 699 q 156 788 115 756 q 251 853 197 821 q 366 913 306 886 q 490 956 426 939 q 614 972 554 972 q 715 951 678 972 q 773 899 753 931 q 799 827 793 867 q 806 749 806 788 z "},"":{"ha":1160,"x_min":-7,"x_max":1225,"o":"m 1225 758 q 1194 603 1225 689 q 1113 427 1164 517 q 993 252 1061 338 q 850 100 925 167 q 697 -7 775 33 q 547 -47 618 -47 q 475 -37 507 -47 q 421 -6 443 -28 q 389 53 399 17 q 382 142 379 89 q 406 284 388 217 q 447 414 425 351 q 367 381 415 396 q 260 367 318 367 q 215 371 229 367 q 200 375 207 372 q 163 252 176 306 q 139 158 149 199 q 121 88 129 117 q 100 42 113 60 q 63 1 81 14 q 32 -11 44 -11 q -1 0 6 -11 q -7 35 -7 11 q 1 73 -7 43 q 22 141 10 103 q 46 217 33 179 q 67 281 58 256 l 103 397 q 97 415 99 408 q 97 428 96 422 q 99 442 97 435 q 100 461 100 450 q 106 483 100 471 q 120 505 111 494 q 140 522 129 515 q 164 529 151 529 q 224 697 197 621 q 247 761 235 729 q 269 820 258 793 q 288 866 279 847 q 300 892 296 885 q 330 927 317 915 q 354 943 343 939 q 373 947 365 947 q 388 947 381 947 q 399 928 399 947 q 385 874 397 914 q 353 786 372 835 l 239 494 q 254 467 243 479 q 283 447 264 456 q 333 439 301 439 q 399 444 372 439 q 444 459 426 450 q 472 479 461 468 q 492 500 483 490 q 569 644 531 578 q 648 761 608 711 q 728 842 688 811 q 814 881 769 874 q 1067 950 942 950 q 1225 758 1225 950 m 1106 689 q 1101 751 1106 718 q 1081 812 1096 785 q 1042 857 1067 839 q 975 875 1017 875 q 920 873 949 875 q 858 858 892 871 q 840 822 854 844 q 808 774 826 800 q 770 722 790 749 q 733 672 750 694 q 656 571 696 621 q 572 481 615 521 q 558 438 569 471 q 533 360 546 404 q 511 269 521 317 q 501 182 501 221 q 530 65 501 101 q 628 28 558 28 q 733 60 678 28 q 840 144 788 92 q 941 265 893 197 q 1026 407 989 333 q 1084 553 1063 481 q 1106 689 1106 626 z "},"":{"ha":893,"x_min":24,"x_max":919,"o":"m 919 149 q 832 86 879 117 q 736 31 785 56 q 642 -10 688 6 q 561 -25 596 -25 q 513 -4 529 -25 q 497 50 497 17 q 502 113 497 81 q 513 176 507 146 q 525 233 519 207 q 531 278 531 260 q 531 319 531 303 q 511 338 531 335 q 390 173 449 240 q 279 63 331 106 q 185 2 228 21 q 113 -17 143 -17 q 43 13 63 -17 q 24 83 24 42 q 27 116 24 103 q 36 142 31 129 q 72 175 51 164 q 108 189 92 186 q 110 146 108 167 q 120 108 113 125 q 142 82 128 92 q 181 72 157 72 q 270 106 224 72 q 358 184 317 139 q 433 276 400 229 q 482 349 465 322 q 426 360 458 350 q 363 394 393 369 q 313 460 333 418 q 292 569 292 503 q 334 739 292 665 q 434 863 376 813 q 549 939 492 913 q 639 965 607 965 q 691 952 669 965 q 726 919 713 939 q 744 876 739 900 q 750 832 750 853 q 722 690 750 763 q 658 556 693 617 q 567 417 618 485 q 583 411 575 414 q 599 401 592 408 q 612 378 607 393 q 617 339 617 364 q 613 289 617 317 q 606 233 610 261 q 598 176 601 204 q 594 128 594 149 q 592 103 594 118 q 594 74 590 88 q 608 49 597 60 q 644 39 619 39 q 709 51 675 39 q 777 83 743 64 q 845 124 811 101 q 911 167 879 147 l 919 149 l 919 149 m 672 757 q 664 835 672 807 q 643 878 656 864 q 617 897 631 893 q 592 901 603 901 q 522 885 558 901 q 456 833 486 868 q 406 744 425 799 q 386 614 386 689 q 401 526 386 561 q 438 469 415 492 q 488 438 461 447 q 539 426 515 428 q 590 507 565 463 q 632 597 614 551 q 661 685 650 643 q 672 757 672 726 z "},"":{"ha":482,"x_min":103,"x_max":578,"o":"m 578 758 q 549 726 578 742 q 474 704 519 711 q 396 694 429 697 q 390 694 393 694 q 385 693 388 693 l 379 693 l 231 -83 q 215 -106 228 -96 q 185 -125 201 -117 q 154 -139 169 -133 q 133 -144 139 -144 q 124 -142 126 -144 q 121 -129 121 -140 q 128 -73 121 -117 q 147 35 135 -29 q 174 181 158 100 q 208 348 190 261 q 243 522 225 435 q 278 689 261 610 q 188 689 222 689 q 128 692 153 689 q 111 695 119 693 q 103 707 103 697 q 110 731 103 722 q 126 747 117 739 q 152 757 138 757 q 190 757 167 757 l 293 757 q 328 922 314 856 q 346 997 343 988 q 362 1001 350 999 q 387 1005 374 1003 q 412 1008 400 1007 q 428 1008 424 1008 q 438 1005 436 1008 q 438 996 439 1001 l 392 757 l 424 757 q 501 760 465 757 q 550 763 538 763 q 578 758 578 763 z "},"":{"ha":519,"x_min":106,"x_max":478,"o":"m 478 886 q 458 791 478 839 q 402 704 438 743 q 318 640 367 665 q 214 615 269 615 q 161 628 182 615 q 128 659 140 640 q 110 699 115 678 q 106 740 106 721 q 128 847 106 793 q 204 946 151 900 q 276 992 244 981 q 322 1007 307 1004 q 356 1016 342 1014 q 388 1018 369 1018 q 453 983 428 1018 q 478 886 478 949 m 401 850 q 386 925 401 903 q 347 950 371 947 q 333 951 343 950 q 314 951 324 951 q 244 930 271 951 q 204 880 218 908 q 185 824 190 851 q 181 786 181 797 q 184 744 181 765 q 197 707 188 724 q 221 680 206 690 q 258 669 236 669 q 304 676 279 669 q 351 701 329 682 q 387 756 372 721 q 401 850 401 792 z "},"":{"ha":504,"x_min":35,"x_max":658,"o":"m 654 1039 q 657 1029 658 1039 q 652 1003 656 1019 q 644 968 649 988 q 633 929 639 949 q 611 885 625 897 q 586 872 597 872 q 561 871 571 868 q 542 866 551 868 q 519 861 532 864 q 474 855 497 857 q 429 851 450 853 q 381 850 404 850 l 349 742 l 235 346 q 211 260 224 306 q 188 161 199 214 q 179 111 183 139 q 171 67 175 83 q 163 43 168 56 q 153 22 158 31 q 135 6 146 15 q 111 -12 124 -4 q 86 -27 99 -21 q 65 -33 74 -33 q 44 -29 54 -33 q 35 -17 35 -25 q 38 10 35 -4 q 50 54 42 25 q 86 190 72 136 q 111 286 100 243 q 134 372 122 329 q 163 475 146 414 q 191 573 175 519 q 221 674 207 626 q 253 782 236 728 q 261 815 256 793 q 269 849 267 836 q 253 849 261 849 q 236 850 244 849 q 217 864 218 850 q 243 888 217 875 q 271 897 256 893 q 304 906 286 901 q 341 910 322 908 q 375 911 360 911 q 430 911 399 911 q 489 913 461 911 q 556 915 522 914 q 561 937 558 925 q 567 960 564 949 q 575 983 571 972 q 605 1020 583 1001 q 654 1039 626 1039 z "},"":{"ha":588,"x_min":-56,"x_max":601,"o":"m 601 883 q 595 868 597 874 q 591 859 593 863 q 586 852 589 856 q 576 843 583 849 q 550 822 561 829 q 524 806 539 814 q 523 851 529 826 q 499 899 517 876 q 452 935 481 921 q 388 950 424 950 q 340 946 364 950 q 298 928 317 942 q 268 888 279 914 q 257 817 257 861 q 265 748 257 776 q 291 694 274 719 q 335 641 308 668 q 399 578 363 614 q 457 520 431 546 q 503 469 483 494 q 533 415 522 443 q 544 347 544 386 q 523 265 544 314 q 454 176 501 215 l 418 147 q 347 108 381 118 q 365 84 357 94 q 377 62 372 74 q 385 36 382 50 q 388 1 388 22 q 369 -76 388 -32 q 316 -158 351 -119 q 230 -224 281 -197 q 115 -251 179 -251 q 1 -221 49 -251 q -56 -128 -47 -190 q -49 -113 -51 -118 q -45 -105 -47 -108 q -40 -99 -43 -101 q -31 -89 -37 -96 q -10 -71 -19 -78 q 7 -60 0 -64 q 22 -51 15 -54 q 24 -96 17 -72 q 51 -139 32 -119 q 98 -172 69 -158 q 163 -185 126 -185 q 221 -178 193 -185 q 269 -154 249 -171 q 302 -112 290 -137 q 314 -49 314 -86 q 301 18 314 -10 q 267 68 288 46 q 223 109 247 90 q 176 149 199 128 q 126 197 151 174 q 82 247 101 221 q 51 305 63 274 q 39 376 39 336 q 49 457 39 414 q 78 540 58 500 q 129 614 99 581 q 203 665 160 647 q 191 698 196 682 q 186 743 186 714 q 203 838 186 790 q 251 922 219 885 q 328 983 283 960 q 431 1007 374 1007 q 545 975 496 1007 q 601 883 594 943 m 463 318 q 447 371 460 344 q 414 422 433 397 q 371 471 394 447 q 325 515 347 494 q 270 567 296 543 q 225 621 244 592 q 139 565 174 610 q 110 450 104 521 q 122 382 113 410 q 147 328 131 354 q 189 276 164 303 q 251 211 214 249 q 269 193 261 201 q 286 175 278 185 q 317 173 303 174 q 338 172 331 172 q 383 181 358 172 q 428 210 408 190 q 455 247 444 225 q 463 318 465 269 z "},"":{"ha":485,"x_min":85,"x_max":421,"o":"m 421 326 q 408 261 421 292 q 372 208 394 231 q 318 171 349 185 q 253 157 288 157 q 186 170 217 157 q 133 206 156 183 q 98 260 111 229 q 85 326 85 292 q 98 392 85 361 q 134 445 111 422 q 188 481 157 468 q 254 494 219 494 q 319 481 289 494 q 372 445 349 468 q 408 392 394 422 q 421 326 421 361 z "},"":{"ha":518,"x_min":111,"x_max":522,"o":"m 354 -103 l 288 -103 l 456 919 l 522 919 l 354 -103 m 176 -103 l 111 -103 l 226 618 q 165 688 183 646 q 158 783 147 731 q 279 919 179 889 l 344 919 l 176 -103 z "},"":{"ha":1131,"x_min":50,"x_max":1075,"o":"m 1075 651 q 1023 374 1075 497 q 882 163 971 250 q 674 28 793 75 q 419 -18 554 -18 q 240 20 311 -18 q 126 115 168 58 q 67 238 85 172 q 50 360 50 304 q 82 584 50 485 q 167 758 114 683 q 290 886 221 833 q 435 972 360 939 q 585 1021 510 1006 q 725 1036 660 1036 q 871 1009 806 1036 q 981 932 936 982 q 1051 810 1026 882 q 1075 651 1075 739 m 1006 626 q 977 796 1006 726 q 900 908 949 865 q 786 969 851 950 q 647 988 721 988 q 599 983 640 988 q 500 958 558 978 q 376 899 442 938 q 253 794 310 861 q 160 626 197 726 q 122 382 122 525 q 149 223 122 293 q 217 105 175 153 q 312 32 258 57 q 419 7 365 7 q 622 41 518 7 q 812 149 726 75 q 951 340 897 222 q 1006 626 1006 458 m 814 711 q 781 626 814 664 q 710 558 749 588 q 638 503 671 528 q 606 461 606 479 q 625 400 606 433 q 668 331 644 367 q 704 277 686 300 q 740 235 722 254 q 761 213 753 219 q 769 203 769 206 q 761 193 769 196 q 740 190 753 190 q 672 220 704 190 q 614 290 640 250 q 587 335 600 313 q 563 376 574 357 q 547 413 553 396 q 540 439 540 429 q 543 451 540 446 q 558 468 546 457 q 599 497 568 476 q 663 547 629 518 q 722 612 696 576 q 747 685 747 647 q 629 761 747 761 q 570 756 604 761 q 502 739 536 750 q 438 710 468 728 q 389 669 407 693 q 381 654 383 663 q 376 638 379 646 q 370 625 374 631 q 358 619 367 619 q 346 620 350 619 q 342 636 342 621 q 368 677 342 650 q 440 730 394 704 q 543 775 485 756 q 664 794 601 794 q 739 788 710 794 q 785 769 768 781 q 808 742 801 757 q 814 711 814 726 m 601 731 q 558 607 581 672 q 516 483 536 542 q 481 381 496 425 q 460 321 465 336 q 457 309 458 317 q 453 290 456 301 q 445 260 449 271 q 435 239 442 250 q 406 210 426 225 q 374 196 386 196 q 356 207 356 196 q 363 241 356 219 q 379 286 371 263 q 397 336 388 311 q 422 404 406 361 q 465 519 439 447 q 535 710 492 590 q 558 725 546 721 q 581 731 571 729 q 601 731 592 732 z "},"":{"ha":1171,"x_min":64,"x_max":1089,"o":"m 1089 679 q 1037 397 1089 525 q 896 176 985 268 q 688 33 807 85 q 433 -18 568 -18 q 253 20 325 -18 q 140 114 182 58 q 81 233 99 169 q 64 346 64 296 q 94 569 64 469 q 174 745 124 668 q 290 877 224 822 q 428 967 356 932 q 573 1019 500 1003 q 711 1036 646 1036 q 861 1019 792 1036 q 981 960 931 1001 q 1060 849 1032 918 q 1089 679 1089 781 m 1019 654 q 987 822 1019 757 q 900 923 954 886 q 776 974 846 960 q 633 988 707 988 q 588 982 626 988 q 493 956 549 976 q 375 897 438 936 q 260 788 313 857 q 172 617 207 719 q 136 368 136 514 q 163 215 136 282 q 231 101 189 147 q 326 31 272 56 q 433 7 379 7 q 636 45 532 7 q 826 163 740 83 q 965 364 911 242 q 1019 654 1019 486 m 788 767 q 754 699 788 733 q 724 676 746 690 q 686 661 703 661 q 681 668 681 661 q 713 738 713 693 q 701 758 713 753 q 674 763 689 763 q 582 731 631 763 q 492 647 533 700 q 424 526 451 594 q 397 382 397 457 q 426 267 397 308 q 521 225 454 225 q 606 240 567 225 q 676 273 646 256 q 727 306 707 290 q 754 321 747 321 q 760 307 763 321 q 743 290 758 303 q 701 261 728 278 q 639 226 675 244 q 560 193 603 207 q 508 181 535 186 q 458 176 482 176 q 365 211 401 176 q 328 314 328 246 q 337 402 328 358 q 371 503 346 446 q 472 667 411 599 q 606 775 532 735 q 669 803 638 794 q 724 813 700 813 q 767 803 746 813 q 788 767 788 794 z "},"":{"ha":1549,"x_min":81,"x_max":1510,"o":"m 1510 663 q 1467 633 1488 647 q 1408 594 1447 618 q 1331 553 1356 563 q 1293 543 1306 543 q 1270 553 1274 543 q 1267 574 1267 564 q 1270 597 1267 581 q 1280 636 1274 614 q 1294 685 1286 658 q 1311 738 1303 711 q 1356 874 1331 799 l 1351 875 q 1272 772 1321 835 q 1139 615 1222 710 q 1123 598 1132 608 q 1105 578 1114 588 q 1086 562 1096 568 q 1071 556 1076 556 q 1059 561 1061 556 q 1057 576 1057 567 q 1065 618 1057 586 q 1085 692 1074 650 q 1109 781 1096 735 q 1132 865 1122 828 l 1144 915 l 1140 917 q 1117 878 1136 908 q 1073 810 1097 847 q 1024 738 1049 774 q 985 682 1000 701 q 931 616 954 642 q 889 575 907 590 q 856 554 871 560 q 828 549 842 549 q 810 553 817 549 q 800 566 803 558 q 797 581 797 574 q 796 594 796 589 q 811 644 796 622 q 844 676 826 667 l 850 675 q 852 640 849 658 q 872 621 856 621 q 910 640 885 621 q 982 717 936 658 q 1026 779 1001 742 q 1076 856 1051 817 q 1122 933 1101 896 q 1156 994 1143 969 q 1165 1021 1161 1011 q 1170 1037 1168 1031 q 1175 1049 1172 1043 q 1182 1063 1178 1054 q 1200 1081 1189 1074 q 1221 1088 1211 1088 q 1241 1087 1235 1088 q 1247 1075 1247 1086 q 1236 1021 1247 1049 q 1214 957 1225 993 q 1189 878 1201 921 q 1166 797 1176 835 q 1148 728 1156 758 q 1138 689 1140 699 q 1135 680 1138 686 q 1133 667 1133 674 q 1132 656 1132 661 q 1135 650 1132 650 q 1167 682 1139 650 q 1235 762 1196 714 q 1315 865 1274 810 q 1383 969 1356 921 q 1406 1036 1397 1013 q 1429 1079 1414 1060 q 1453 1099 1440 1094 q 1476 1104 1465 1104 q 1487 1097 1485 1104 q 1489 1078 1489 1089 q 1483 1051 1489 1069 q 1469 1013 1478 1033 q 1451 974 1461 993 q 1435 943 1442 956 q 1422 903 1431 931 q 1401 842 1413 875 q 1378 773 1390 808 q 1357 707 1367 738 q 1341 656 1347 676 q 1335 631 1335 635 q 1333 609 1335 619 q 1356 599 1332 599 q 1420 623 1379 599 q 1501 675 1461 647 l 1510 663 l 1510 663 m 794 647 q 643 557 703 585 q 556 529 583 529 q 541 538 544 529 q 539 558 538 547 q 555 622 542 574 q 585 726 568 669 q 606 798 593 757 q 632 878 619 839 q 654 949 644 918 q 664 992 664 981 q 665 1003 664 999 q 660 1007 667 1007 q 641 992 654 1007 q 613 960 628 976 q 587 929 604 950 q 549 881 569 908 q 504 822 528 854 q 460 758 481 790 q 433 710 447 739 q 406 656 418 682 q 385 610 393 629 q 375 589 376 590 q 314 554 351 554 q 310 558 310 554 q 310 570 310 564 q 314 585 311 576 q 322 606 317 593 q 333 640 326 619 l 425 929 q 444 1004 444 985 q 440 1014 444 1013 q 361 943 421 1014 q 303 863 335 913 q 242 763 272 814 q 188 666 213 711 q 154 597 164 621 q 128 572 147 588 q 92 557 108 557 q 82 561 82 557 q 81 574 82 565 q 90 607 82 582 q 106 653 99 632 q 128 719 115 682 q 155 792 142 756 q 180 863 168 829 q 199 917 192 896 q 206 938 200 922 q 217 969 211 953 q 226 1000 222 986 q 231 1018 231 1014 q 229 1038 231 1035 q 221 1040 228 1040 q 93 947 190 1040 l 89 963 q 215 1067 161 1032 q 290 1101 269 1101 q 310 1083 310 1101 q 305 1051 310 1065 q 293 1014 300 1036 q 268 938 285 985 q 236 846 251 890 q 196 736 217 793 l 200 733 q 311 913 260 842 q 403 1025 363 983 q 474 1083 444 1067 q 519 1100 504 1100 q 531 1098 528 1100 q 535 1081 535 1096 q 528 1050 535 1072 q 513 997 522 1028 q 491 932 503 967 q 469 866 479 897 q 449 809 458 835 q 438 772 440 783 l 440 772 q 537 900 493 842 q 617 1001 581 958 q 682 1067 653 1043 q 735 1090 711 1090 q 748 1084 746 1090 q 750 1071 750 1078 q 740 1028 750 1061 q 717 953 731 996 q 690 865 704 911 q 667 785 676 819 q 656 747 663 772 q 641 696 649 722 q 628 648 633 669 q 622 621 622 626 q 619 602 622 614 q 632 590 617 590 q 701 611 660 590 q 786 660 743 632 l 794 647 l 794 647 z "},"":{"ha":832,"x_min":35,"x_max":867,"o":"m 867 910 q 850 878 867 893 q 810 849 833 863 q 760 823 786 835 q 717 803 735 811 l 713 813 q 753 847 746 831 q 761 882 761 864 q 653 913 761 913 q 603 911 621 913 q 573 908 586 910 q 545 902 560 906 q 504 894 531 899 q 460 740 488 824 q 407 558 433 656 q 472 569 435 564 q 536 574 510 574 q 614 567 574 574 q 688 540 654 561 q 742 478 721 518 q 763 369 763 438 q 724 197 763 290 q 622 23 685 104 q 478 -112 558 -58 q 315 -167 399 -167 q 227 -152 257 -167 q 197 -115 197 -137 q 201 -95 197 -107 q 221 -83 204 -83 q 241 -93 233 -83 q 257 -114 249 -103 q 276 -135 265 -125 q 307 -144 288 -144 q 401 -122 356 -144 q 484 -64 446 -100 q 553 19 522 -28 q 606 118 585 67 q 640 220 628 169 q 651 314 651 271 q 639 413 651 375 q 603 472 626 451 q 550 501 581 493 q 485 508 519 508 q 438 505 465 508 q 386 496 410 501 q 376 463 382 483 q 363 421 369 443 q 351 378 357 399 q 343 344 346 357 q 299 144 315 221 q 267 38 282 68 q 230 -2 251 7 q 196 -11 208 -11 q 170 -1 174 -11 q 167 32 167 8 q 172 65 167 40 q 187 124 178 90 q 206 197 196 158 q 228 271 217 235 q 247 335 236 301 q 267 397 257 368 q 283 447 276 426 q 292 471 290 467 q 274 465 283 468 q 257 463 264 463 q 243 465 244 463 q 242 476 242 468 q 249 493 242 485 q 267 510 257 501 q 290 525 278 518 q 313 536 303 532 q 374 749 351 663 q 406 872 396 835 q 234 823 297 847 q 136 778 171 799 q 88 746 101 758 q 63 733 74 733 q 41 735 47 733 q 35 753 35 738 q 70 783 35 763 q 164 828 106 803 q 297 878 222 853 q 451 925 372 904 q 607 960 531 946 q 746 974 683 974 q 835 961 804 974 q 867 910 867 949 z "},"":{"ha":594,"x_min":-17,"x_max":569,"o":"m 568 572 q 560 525 567 554 q 542 460 553 496 q 518 383 531 424 q 494 304 506 343 q 397 0 449 146 q 278 -258 344 -146 q 191 -362 240 -321 q 94 -426 142 -404 q 47 -440 63 -440 q 35 -432 35 -440 q 50 -417 35 -421 q 76 -407 65 -414 q 115 -380 97 -394 q 149 -344 132 -365 q 184 -294 167 -324 q 221 -219 201 -264 q 265 -109 244 -169 q 308 24 286 -49 q 369 221 344 142 q 408 351 393 300 q 431 428 424 401 q 438 469 438 456 q 437 481 438 476 q 421 486 436 486 q 391 471 413 486 q 342 429 369 456 q 281 368 314 403 q 218 296 249 333 q 152 194 179 249 q 106 100 125 140 q 72 34 86 58 q 45 -3 57 10 q 23 -19 33 -15 q 1 -24 13 -24 q -15 -12 -12 -24 q -17 3 -17 -1 q -11 40 -17 18 q 10 94 -6 63 q 31 149 21 118 q 47 196 40 179 q 101 351 74 272 q 153 500 125 419 q 207 656 181 581 q 225 704 215 682 q 178 703 200 703 q 142 701 156 703 q 122 700 131 700 q 106 700 113 700 q 86 703 90 700 q 82 715 82 707 q 91 743 83 732 q 110 761 99 754 q 138 770 124 768 q 176 772 151 772 l 249 772 q 288 877 269 829 q 317 958 306 925 q 331 984 322 974 q 356 1006 339 994 q 385 1022 371 1017 q 410 1029 399 1026 q 435 1033 424 1032 q 447 1019 447 1033 q 426 969 436 994 q 408 923 418 947 q 390 875 399 899 q 372 823 381 849 q 351 771 363 797 l 400 771 l 526 776 q 551 767 551 778 q 522 740 549 754 q 458 719 510 733 q 338 704 407 704 l 326 704 q 250 503 289 604 q 174 303 211 403 l 178 303 q 317 444 254 388 q 427 536 381 501 q 505 585 474 571 q 551 599 536 599 q 566 591 563 599 q 568 572 569 583 z "},"":{"ha":763,"x_min":17,"x_max":746,"o":"m 17 554 l 425 554 l 568 917 l 622 917 l 482 554 l 746 554 l 746 492 l 457 492 l 360 240 l 746 240 l 746 176 l 335 176 l 192 -182 l 138 -182 l 279 176 l 17 176 l 17 240 l 304 240 l 403 492 l 17 492 l 17 554 z "},"":{"ha":685,"x_min":39,"x_max":754,"o":"m 754 1226 q 738 1200 754 1221 q 697 1151 722 1179 q 640 1093 671 1124 q 579 1036 608 1063 q 567 1028 576 1033 q 550 1022 557 1022 q 542 1025 543 1022 q 542 1033 542 1028 q 551 1054 542 1038 q 574 1093 560 1071 q 601 1139 588 1115 q 626 1179 615 1163 q 671 1228 646 1211 q 738 1246 696 1246 q 752 1242 750 1246 q 754 1226 754 1238 m 717 140 q 503 -9 588 33 q 381 -51 418 -51 q 321 -34 336 -51 q 306 24 306 -17 q 310 63 306 36 q 324 124 315 89 q 343 198 332 158 q 368 275 354 238 q 428 449 397 357 q 484 623 458 542 q 526 765 510 704 q 542 846 542 826 q 529 876 542 864 q 492 888 517 888 q 442 878 469 888 q 390 856 415 868 q 347 831 365 843 q 322 814 328 818 q 228 727 278 779 q 139 603 178 675 q 122 556 126 581 q 112 513 117 532 q 98 480 107 493 q 69 467 89 467 q 48 472 57 467 q 39 489 39 476 q 76 596 39 539 q 163 706 113 653 q 263 801 213 760 q 343 861 314 843 q 473 933 414 906 q 596 961 532 961 q 640 938 628 961 q 653 878 653 914 q 644 836 653 867 q 624 763 636 806 q 594 669 611 719 q 562 566 578 618 q 531 464 546 514 q 504 375 515 414 q 487 311 499 354 q 463 223 475 268 q 440 141 450 178 q 431 94 431 104 q 428 77 431 89 q 428 53 426 65 q 438 33 431 42 q 467 24 446 24 q 519 36 489 24 q 581 69 549 49 q 644 114 613 89 q 703 163 675 139 l 717 140 l 717 140 z "},"":{"ha":457,"x_min":90,"x_max":519,"o":"m 519 924 q 503 897 519 918 q 462 849 488 876 q 405 790 436 821 q 344 733 374 760 q 332 725 342 731 q 315 719 322 719 q 308 722 308 719 q 307 731 307 725 q 316 751 307 735 q 339 790 325 768 q 367 836 353 813 q 392 876 381 860 q 436 926 411 908 q 503 943 461 943 q 517 939 515 943 q 519 924 519 935 m 481 171 q 450 144 469 160 q 408 111 431 128 q 363 78 386 94 q 324 51 340 63 q 209 -13 249 3 q 149 -29 169 -29 q 125 -24 133 -29 q 113 -12 117 -19 q 110 4 110 -6 q 110 25 110 14 q 115 53 110 32 q 130 102 121 74 q 151 164 139 131 q 174 229 163 197 q 222 369 201 310 q 242 457 242 428 q 239 474 242 464 q 221 485 236 485 q 203 483 213 485 q 182 474 194 481 q 151 453 169 467 q 107 417 133 439 q 93 424 99 415 q 90 431 90 428 q 189 516 149 485 q 256 564 229 547 q 300 585 283 581 q 328 590 317 590 q 340 590 333 590 q 353 584 347 589 q 362 569 358 579 q 365 539 365 558 q 345 447 365 508 q 296 301 325 386 q 279 256 290 286 q 258 193 268 225 q 240 133 247 161 q 232 93 232 104 q 239 67 232 75 q 257 60 246 60 q 307 74 279 60 q 364 108 335 88 q 420 150 393 128 q 468 188 447 172 l 481 171 l 481 171 z "},"":{"ha":990,"x_min":36,"x_max":954,"o":"m 424 400 q 347 510 390 475 q 242 546 304 546 q 175 533 206 546 q 122 495 144 519 q 87 436 100 471 q 74 360 74 401 q 121 215 74 268 q 229 161 168 161 q 343 219 293 161 q 424 400 376 260 m 508 315 q 558 226 533 261 q 608 172 582 192 q 661 144 633 151 q 719 136 689 136 q 797 152 761 136 q 859 197 833 168 q 900 266 885 225 q 915 357 915 307 q 856 522 915 458 q 724 588 797 588 q 642 564 676 588 q 579 488 607 540 q 508 315 561 454 m 443 453 q 543 599 489 558 q 694 640 599 640 q 879 561 801 640 q 954 357 954 483 q 881 153 954 235 q 717 72 808 72 q 592 122 650 72 q 489 267 554 154 q 393 145 444 182 q 268 108 342 108 q 104 178 171 108 q 36 358 36 247 q 99 539 36 469 q 244 607 161 607 q 347 576 304 607 q 443 453 390 547 z "},"":{"ha":668,"x_min":76,"x_max":658,"o":"m 658 475 q 638 449 657 457 q 583 433 618 440 q 519 429 568 431 q 408 426 471 428 q 396 385 401 406 q 383 345 390 367 q 369 303 376 324 q 360 281 367 294 q 344 256 354 268 q 317 235 333 244 q 275 226 300 226 q 244 246 244 226 q 257 284 244 257 q 285 351 269 311 q 297 383 290 364 q 310 425 303 403 l 215 424 q 143 422 167 422 q 104 421 119 421 q 86 438 86 421 q 96 459 86 450 q 121 474 106 468 q 155 482 136 479 q 193 485 174 485 q 232 484 208 485 q 278 483 256 483 l 331 483 q 345 521 340 504 q 360 564 350 538 q 387 635 375 610 q 424 667 399 660 q 451 674 436 671 q 482 676 467 676 q 492 672 490 676 q 493 658 493 667 q 485 633 493 651 q 461 576 476 615 q 447 534 451 551 q 431 485 442 517 l 464 485 q 509 485 482 485 q 563 488 536 486 q 608 490 589 489 q 632 490 628 490 q 654 485 650 490 q 658 475 658 481 m 478 171 q 466 156 478 164 q 437 140 454 147 q 399 128 419 133 q 363 119 379 122 q 263 113 326 114 q 138 111 199 111 q 119 110 129 111 q 99 110 110 110 q 84 112 92 110 q 76 125 76 114 q 87 149 76 139 q 113 167 97 160 q 147 177 128 174 q 183 181 167 181 l 324 181 q 403 183 369 181 q 450 186 436 186 q 475 181 472 186 q 478 171 478 176 z "},"":{"ha":763,"x_min":17,"x_max":746,"o":"m 17 -47 l 746 -47 l 746 -110 l 17 -110 l 17 -47 m 744 167 l 17 476 l 17 532 l 744 840 l 744 771 l 100 504 l 744 236 l 744 167 z "},"":{"ha":763,"x_min":17,"x_max":746,"o":"m 17 -47 l 746 -47 l 746 -110 l 17 -110 l 17 -47 m 17 840 l 744 531 l 744 475 l 17 167 l 17 236 l 661 503 l 17 771 l 17 840 z "},"":{"ha":421,"x_min":21,"x_max":540,"o":"m 379 821 q 356 759 379 785 q 286 733 333 733 q 240 792 240 733 q 263 859 240 833 q 338 886 285 885 q 370 874 361 888 q 379 821 379 860 m 540 228 q 490 191 518 211 q 434 150 463 171 q 377 110 406 129 q 324 75 349 90 q 225 19 267 40 q 153 -12 183 -1 q 105 -27 124 -24 q 76 -31 86 -31 q 46 -24 57 -31 q 29 -7 35 -17 q 22 15 24 3 q 21 36 21 26 q 24 68 21 47 q 34 114 28 89 q 48 167 40 139 q 64 218 56 194 q 128 408 96 314 q 185 572 161 503 q 202 599 189 585 q 240 622 215 613 q 270 630 256 628 q 294 632 285 632 q 306 617 306 632 q 299 593 306 611 q 284 550 293 575 q 265 495 275 525 q 244 438 254 465 q 208 331 228 388 q 172 226 189 275 q 144 140 156 176 q 133 92 133 104 q 136 56 133 69 q 163 42 139 42 q 247 67 193 42 q 356 128 300 93 q 463 201 413 164 q 538 261 513 238 l 540 228 l 540 228 z "},"":{"ha":781,"x_min":-12,"x_max":774,"o":"m 774 221 q 754 172 774 210 q 702 92 735 133 q 628 19 669 51 q 542 -14 586 -14 q 501 9 514 -14 q 489 64 489 32 q 490 93 489 78 q 492 121 490 108 q 494 142 493 133 q 497 150 496 150 l 492 150 q 445 87 468 117 q 399 35 422 57 q 352 -1 376 13 q 299 -14 328 -14 q 214 42 243 -14 q 194 226 185 99 l 190 226 q 159 142 176 192 q 126 37 142 93 q 101 -78 111 -19 q 90 -193 90 -137 q 97 -241 90 -229 q 108 -262 104 -253 q 76 -317 97 -290 q 29 -344 54 -344 q 7 -338 15 -344 q -6 -322 -1 -332 q -11 -301 -10 -312 q -12 -279 -12 -289 q -9 -243 -12 -265 q 0 -196 -6 -221 q 13 -147 6 -171 q 25 -106 19 -122 q 60 -6 39 -62 q 106 116 82 51 q 154 251 129 181 q 200 390 179 321 l 246 539 q 258 575 250 551 q 279 614 265 599 q 368 653 314 651 q 381 639 379 653 q 365 590 372 614 q 351 549 358 571 q 342 513 344 526 q 326 444 335 489 q 308 350 317 400 q 294 255 300 300 q 288 188 288 210 q 289 145 288 167 q 296 106 290 124 q 313 76 301 88 q 343 65 324 65 q 396 85 369 65 q 443 135 422 106 q 479 196 464 164 q 500 251 494 228 l 569 522 q 582 565 576 546 q 599 597 588 583 q 621 617 608 610 q 647 628 633 625 q 672 633 660 632 q 692 635 683 635 q 704 621 704 635 q 697 594 704 614 q 682 550 690 575 q 665 501 674 525 q 653 463 657 476 q 622 335 636 396 q 599 227 608 275 q 584 148 589 179 q 579 108 579 117 q 604 64 579 64 q 648 81 626 64 q 688 120 669 97 q 721 168 707 143 q 740 210 735 193 q 747 224 743 215 q 761 233 750 233 q 774 221 774 233 z "},"":{"ha":464,"x_min":43,"x_max":553,"o":"m 549 758 q 551 748 553 758 q 547 721 550 738 q 538 683 543 704 q 526 642 532 663 q 501 594 517 607 q 475 581 486 581 q 449 579 460 576 q 428 574 439 576 q 406 569 418 572 q 368 564 382 565 q 344 561 354 563 q 324 559 333 560 q 301 557 314 558 q 265 426 285 504 q 224 263 246 349 q 210 213 217 239 q 197 163 203 186 q 188 123 192 140 q 183 100 183 106 q 185 81 183 89 q 188 65 188 72 q 181 40 188 53 q 144 0 175 26 q 121 -15 139 -4 q 75 -31 103 -25 q 43 -11 44 -31 q 53 35 43 4 q 81 119 68 82 q 108 206 93 156 q 126 272 119 244 q 143 338 133 299 q 160 402 151 369 q 176 465 168 435 q 188 519 183 494 q 193 557 193 543 q 163 556 185 557 q 131 557 142 556 q 111 572 113 558 q 139 597 111 585 q 169 608 153 604 q 204 617 185 613 q 243 621 224 619 q 279 622 263 622 q 333 622 304 622 q 386 624 361 622 q 443 626 414 625 q 449 650 446 638 q 456 674 453 663 q 464 700 460 688 q 496 738 472 718 q 549 758 519 758 z "},"":{"ha":503,"x_min":-89,"x_max":503,"o":"m 503 967 q 496 948 503 963 q 473 897 489 933 q 431 799 457 861 q 369 639 406 738 q 351 591 358 611 q 338 550 344 571 q 322 503 331 529 q 299 439 313 478 q 254 317 275 374 q 212 213 233 261 q 167 122 190 164 q 114 42 143 79 q 75 -1 99 22 q 24 -44 51 -24 q -31 -78 -3 -64 q -79 -92 -58 -92 q -87 -87 -87 -92 q -89 -79 -87 -83 q -81 -73 -89 -78 q -63 -61 -74 -68 q -42 -47 -53 -54 q -25 -32 -32 -39 q 6 4 -7 -12 q 29 38 19 21 q 47 74 39 54 q 67 121 56 93 q 121 261 86 168 q 210 506 156 354 l 328 831 q 343 872 338 856 q 351 894 349 888 q 369 932 361 918 q 385 953 378 946 q 401 965 393 961 q 422 972 410 968 q 453 977 429 975 q 494 979 478 979 q 503 967 503 979 z "},"":{"ha":663,"x_min":69,"x_max":746,"o":"m 746 903 q 696 796 746 847 q 678 779 690 789 q 653 760 667 769 q 624 744 639 751 q 596 738 608 738 q 588 747 588 738 q 623 795 610 767 q 636 858 636 824 q 619 889 636 881 q 578 897 601 897 q 490 875 536 897 q 398 812 443 853 q 312 715 353 771 q 239 592 271 660 q 193 464 211 532 q 351 469 278 461 q 414 479 383 472 q 470 494 444 486 q 515 507 496 501 q 546 511 535 513 q 556 493 557 511 q 549 471 554 482 q 531 449 543 460 q 465 419 506 428 q 367 408 425 411 q 278 409 326 408 q 190 413 231 410 l 182 413 q 172 296 172 354 q 215 113 172 179 q 354 47 257 47 q 479 71 421 47 q 583 123 538 94 q 658 175 628 151 q 697 199 688 199 q 704 178 708 199 q 681 152 703 172 q 619 106 658 132 q 526 50 579 79 q 410 -1 472 21 q 335 -21 374 -14 q 261 -28 296 -28 q 124 27 179 -28 q 69 189 69 82 q 83 329 69 260 q 132 488 96 399 q 282 744 193 638 q 478 917 371 851 q 571 960 526 946 q 651 975 615 975 q 685 972 668 975 q 715 961 701 969 q 737 939 728 953 q 746 903 746 925 z "},"":{"ha":446,"x_min":36,"x_max":613,"o":"m 611 1108 q 591 1056 608 1079 q 538 1033 574 1033 q 503 1044 513 1033 q 494 1083 493 1054 q 513 1141 497 1119 q 572 1163 529 1163 q 605 1149 597 1163 q 611 1108 613 1136 m 458 1108 q 438 1056 456 1079 q 385 1033 421 1033 q 350 1044 360 1033 q 342 1083 340 1054 q 360 1141 344 1119 q 419 1163 376 1163 q 452 1149 444 1163 q 458 1108 460 1136 m 497 967 q 493 956 497 964 q 481 928 489 947 q 458 876 472 910 q 422 789 443 843 q 386 695 403 740 q 351 601 369 650 q 313 495 333 551 q 269 368 293 439 q 238 275 254 324 q 206 172 221 226 q 188 101 196 136 q 169 43 181 67 q 154 23 165 36 q 128 -3 143 10 q 96 -26 113 -17 q 65 -36 79 -36 q 44 -33 53 -36 q 36 -17 36 -31 q 42 13 36 -8 q 57 58 49 35 q 73 105 65 82 q 85 139 81 128 q 141 306 111 215 q 210 506 171 397 q 290 727 260 644 q 333 842 321 810 q 363 912 353 888 q 376 942 372 936 q 402 963 388 954 q 446 976 417 971 q 466 979 454 979 q 489 979 478 979 q 496 975 494 979 q 497 967 497 971 z "},"":{"ha":440,"x_min":19,"x_max":529,"o":"m 463 821 q 440 759 463 785 q 369 733 418 733 q 332 749 340 733 q 324 792 324 764 q 331 833 324 815 q 349 863 338 851 q 421 886 369 886 q 453 873 444 886 q 463 821 463 860 m 296 821 q 274 759 296 785 q 203 733 251 733 q 165 749 174 733 q 157 792 157 764 q 164 833 157 815 q 182 863 171 851 q 254 886 203 886 q 287 873 278 886 q 296 821 296 860 m 529 189 q 369 81 444 124 q 235 14 294 39 q 134 -21 175 -11 q 76 -31 93 -31 q 46 -24 57 -31 q 28 -8 35 -18 q 21 13 22 1 q 19 36 19 25 q 28 103 19 64 q 60 208 38 143 q 128 410 96 318 q 185 572 161 503 q 203 598 189 585 q 240 622 217 611 q 269 631 256 629 q 294 632 283 632 q 306 617 306 632 q 300 596 306 613 q 286 554 294 579 q 267 499 278 529 q 244 438 256 468 q 205 328 225 383 q 169 226 185 274 q 142 140 153 178 q 132 83 132 103 q 135 53 132 65 q 163 42 139 42 q 234 56 192 42 q 325 93 276 69 q 424 147 374 117 q 521 208 475 176 l 529 189 l 529 189 z "},"":{"ha":1111,"x_min":14,"x_max":1093,"o":"m 644 -31 q 597 -25 619 -31 q 555 -3 574 -19 q 525 44 536 14 q 514 122 514 74 q 519 171 514 142 q 531 233 524 200 q 547 303 538 267 q 568 375 557 339 q 622 550 592 457 l 615 554 q 576 497 603 536 q 515 410 549 457 q 447 317 482 364 q 383 236 413 269 q 277 118 322 164 q 197 46 232 72 q 133 10 161 19 q 79 0 106 0 q 33 17 51 0 q 14 69 14 35 q 24 120 14 97 q 49 160 35 143 q 81 188 64 176 q 111 203 99 199 q 113 176 111 190 q 119 149 114 161 q 134 128 125 136 q 158 119 143 119 q 198 128 176 119 q 247 157 219 136 q 310 213 275 178 q 392 303 346 249 q 477 413 436 357 q 551 517 518 468 q 607 606 583 567 q 642 664 631 644 q 664 735 651 694 q 690 815 676 775 q 719 890 704 854 q 747 944 733 925 q 810 998 782 985 q 857 1011 839 1011 q 871 1006 868 1011 q 874 985 874 1000 q 865 942 874 971 q 842 880 856 914 q 813 808 828 846 q 783 739 797 771 q 754 667 771 711 q 719 568 738 622 q 683 455 701 514 q 651 339 665 396 q 628 231 638 282 q 619 144 619 181 q 642 69 619 96 q 717 43 665 43 q 832 74 781 43 q 919 151 883 106 q 975 250 956 197 q 994 347 994 303 q 976 439 994 404 q 900 474 957 474 q 827 456 864 474 q 758 410 790 438 l 750 429 q 868 517 807 488 q 974 547 929 547 q 1061 517 1029 547 q 1093 415 1093 486 q 1074 324 1093 374 q 1020 224 1054 274 q 942 129 986 175 q 848 48 897 83 q 746 -9 799 13 q 644 -31 693 -31 z "},"":{"ha":831,"x_min":0,"x_max":789,"o":"m 789 308 q 769 228 789 278 q 713 133 750 178 q 655 72 685 101 q 591 19 625 42 q 520 -18 557 -4 q 444 -32 483 -32 q 385 -6 403 -32 q 368 49 368 21 q 369 88 368 68 q 375 131 371 107 q 386 189 379 156 q 406 269 393 222 l 419 325 l 414 328 q 358 260 390 303 q 285 169 325 217 q 206 85 240 117 q 143 35 171 53 q 94 10 115 17 q 54 4 72 4 q 11 28 22 4 q 0 82 0 53 q 2 104 0 90 q 8 133 4 118 q 17 163 11 149 q 32 186 24 176 q 58 205 43 197 q 88 217 74 213 q 89 191 89 208 q 92 156 89 174 q 102 126 94 139 q 126 114 110 114 q 147 115 136 114 q 175 126 158 117 q 215 157 192 136 q 274 217 239 178 q 332 283 307 254 q 376 336 357 313 q 409 379 394 360 q 436 418 424 399 q 467 506 450 464 q 503 585 483 549 q 528 605 513 597 q 560 618 544 613 q 590 626 576 624 q 611 628 604 628 q 626 608 626 628 q 615 567 626 600 q 590 494 604 535 q 562 411 576 454 q 542 339 547 368 q 617 378 574 363 q 697 394 661 394 q 765 376 740 394 q 789 308 789 357 m 679 233 q 665 287 679 268 q 629 312 651 306 q 581 314 607 318 q 532 299 556 310 q 522 267 529 294 q 506 204 514 239 q 490 136 497 169 q 483 89 483 103 q 525 40 483 40 q 583 58 556 40 q 633 105 611 76 q 667 167 654 133 q 679 233 679 201 z "},"":{"ha":1063,"x_min":-7,"x_max":1065,"o":"m 967 347 q 948 439 967 404 q 872 474 929 474 q 799 456 836 474 q 731 410 763 438 l 722 429 q 840 517 779 488 q 946 547 901 547 q 1033 517 1001 547 q 1065 415 1065 486 q 1045 324 1065 374 q 991 224 1025 274 q 913 129 957 175 q 818 48 868 83 q 716 -9 768 13 q 617 -31 664 -31 q 563 -25 589 -31 q 517 -3 538 -19 q 485 44 497 14 q 472 122 472 74 q 484 218 472 158 q 512 340 496 278 q 544 459 528 403 q 569 544 560 515 q 465 485 517 510 q 372 443 421 461 q 285 425 322 425 q 258 426 269 425 q 239 428 246 426 q 224 432 231 429 q 210 383 219 415 q 190 310 201 350 q 167 226 179 269 q 142 145 154 183 q 120 78 131 107 q 104 40 110 50 q 65 0 86 11 q 32 -11 44 -11 q -1 0 6 -11 q -7 35 -7 11 q 2 74 -7 43 q 24 142 11 104 q 49 219 36 181 q 71 281 63 257 l 142 463 q 130 483 135 471 q 125 519 125 496 q 131 541 125 529 q 145 563 136 553 q 165 581 154 574 q 189 588 176 588 q 236 726 214 663 q 255 780 246 753 q 272 830 264 807 q 288 869 281 853 q 300 892 296 885 q 330 927 317 915 q 354 943 343 939 q 373 947 365 947 q 388 947 381 947 q 399 928 399 947 q 385 874 397 914 q 353 786 372 835 l 264 553 q 279 532 268 540 q 308 517 289 524 q 358 511 326 511 q 436 524 397 511 q 507 553 475 536 q 560 586 539 569 q 586 611 582 603 q 606 675 597 639 q 625 743 614 711 q 656 827 642 794 q 683 880 671 860 q 706 910 696 900 q 725 924 717 919 q 758 941 742 933 q 782 949 774 949 q 794 943 793 949 q 794 926 794 938 q 788 893 794 918 q 767 829 781 868 q 733 740 753 790 q 689 631 714 689 q 650 504 669 571 q 615 372 631 438 q 588 248 599 307 q 578 144 578 189 q 601 72 578 100 q 675 43 624 43 q 792 74 739 43 q 885 151 846 106 q 945 250 924 197 q 967 347 967 303 z "},"":{"ha":804,"x_min":-4,"x_max":761,"o":"m 761 308 q 743 228 761 278 q 685 133 725 178 q 629 75 660 104 q 563 22 599 46 q 488 -17 528 -1 q 403 -32 447 -32 q 348 -6 363 -32 q 333 50 333 19 q 346 140 333 90 q 390 268 358 190 q 325 249 363 257 q 256 236 288 242 q 178 226 217 231 q 170 182 176 210 q 153 125 164 154 q 131 69 143 96 q 104 29 118 43 q 63 -1 81 6 q 29 -8 46 -8 q 1 0 6 -8 q -4 26 -4 8 q 0 47 -4 32 q 10 81 4 63 q 24 120 17 100 q 36 158 31 140 l 60 232 q 49 247 50 243 q 47 268 47 250 q 62 294 47 283 q 100 308 76 306 l 113 339 q 148 428 135 394 q 169 485 161 463 q 183 520 178 507 q 194 547 188 533 q 218 581 204 568 q 247 602 232 594 q 276 613 261 610 q 300 615 290 615 q 310 600 310 615 q 294 556 308 589 q 267 486 279 522 l 200 292 q 267 292 231 289 q 335 299 297 294 q 411 319 372 304 q 463 426 439 385 q 514 506 488 467 q 545 547 528 526 q 580 583 563 568 q 614 608 597 599 q 644 618 631 618 q 657 615 651 618 q 663 604 663 611 q 645 568 663 593 q 608 511 628 543 q 587 472 596 490 q 569 435 578 454 q 551 392 561 415 q 526 336 540 369 q 556 358 538 347 q 593 376 574 368 q 633 390 613 385 q 669 394 653 394 q 737 375 713 394 q 761 308 761 356 m 651 233 q 638 287 651 268 q 605 313 625 306 q 560 317 585 321 q 513 303 536 314 q 473 197 490 246 q 456 89 456 149 q 465 55 456 69 q 497 40 474 40 q 557 58 529 40 q 606 105 585 76 q 639 167 626 133 q 651 233 651 201 z "},"":{"ha":319,"x_min":-308,"x_max":379,"o":"m 379 821 q 356 759 379 785 q 286 733 333 733 q 240 792 240 733 q 263 859 240 833 q 338 886 285 885 q 370 874 361 888 q 379 821 379 860 m 315 617 q 309 590 315 610 q 294 545 303 571 q 274 491 285 519 q 254 438 263 463 q 215 326 236 385 q 175 219 194 268 q 132 106 153 163 q 58 -78 101 22 q -50 -267 15 -179 q -147 -373 -99 -332 q -244 -436 -196 -414 q -293 -449 -274 -449 q -308 -437 -308 -449 q -291 -422 -308 -426 q -262 -411 -274 -418 q -185 -342 -219 -381 q -121 -251 -151 -303 q -62 -133 -90 -199 q 0 15 -33 -68 q 49 144 21 68 q 106 301 78 221 q 158 453 135 381 q 194 572 182 526 q 213 600 197 585 q 250 622 228 615 q 279 630 265 628 q 304 632 293 632 q 315 617 315 632 z "},"":{"ha":690,"x_min":-12,"x_max":754,"o":"m 750 925 q 752 892 754 914 q 735 851 750 871 q 709 826 726 840 q 672 806 692 811 q 664 852 672 826 q 633 897 656 878 q 533 936 592 936 q 460 925 496 936 q 394 891 424 914 q 344 834 364 868 q 322 756 325 800 q 342 662 318 703 q 401 584 365 621 q 480 513 438 547 q 557 442 522 479 q 609 364 592 406 q 624 286 626 322 q 581 157 618 215 q 484 56 543 99 q 350 -10 425 14 q 196 -33 275 -33 q 128 -26 165 -33 q 60 -3 92 -18 q 8 38 29 13 q -11 96 -12 63 q 22 169 -8 139 q 100 201 51 200 q 103 134 97 165 q 127 80 108 103 q 179 44 146 57 q 265 31 213 31 q 376 52 329 31 q 453 105 422 74 q 500 172 485 136 q 518 236 515 208 q 503 310 521 272 q 444 382 485 347 q 392 430 418 406 q 343 476 365 454 q 303 515 321 497 q 276 543 286 533 q 218 703 211 614 q 251 810 222 758 q 328 903 281 863 q 439 967 376 943 q 571 992 501 992 q 690 972 644 992 q 750 925 735 951 z "},"":{"ha":825,"x_min":29,"x_max":746,"o":"m 719 228 l 668 210 l 685 325 l 325 325 q 263 325 308 325 q 167 324 217 325 q 78 323 118 324 q 29 321 38 322 q 61 370 40 357 q 93 386 82 383 q 151 387 104 386 q 264 388 199 388 q 404 388 329 388 q 548 388 479 388 q 670 389 617 389 q 746 390 724 389 l 719 228 z "},"":{"ha":763,"x_min":57,"x_max":761,"o":"m 711 1268 l 761 1268 l 550 -53 l 214 639 l 79 578 l 57 621 l 260 724 l 535 165 l 711 1268 z "},"":{"ha":763,"x_min":21,"x_max":743,"o":"m 743 371 q 693 234 740 283 q 579 185 646 185 q 476 206 547 185 l 325 268 q 175 311 221 311 q 95 282 128 311 q 50 186 63 253 l 21 186 q 33 265 21 231 q 68 323 46 300 q 119 358 90 346 q 176 372 147 371 q 238 364 206 372 q 435 289 306 343 q 495 265 468 274 q 542 250 522 256 q 586 244 558 244 q 672 276 638 244 q 714 371 707 308 l 743 371 m 743 704 q 693 568 740 617 q 579 519 646 519 q 511 529 544 519 q 325 601 475 540 q 175 644 221 644 q 95 615 128 644 q 50 521 63 585 l 21 521 q 34 598 21 564 q 69 656 47 632 q 120 692 92 679 q 178 706 149 704 q 238 696 208 706 q 322 668 274 686 q 435 622 371 650 q 542 582 504 592 q 586 578 560 578 q 672 610 638 578 q 714 704 707 642 l 743 704 z "},"":{"ha":850,"x_min":18,"x_max":832,"o":"m 671 56 l 401 711 l 103 56 l 671 56 m 832 0 l 18 0 l 443 940 l 832 0 z "},"":{"ha":472,"x_min":88,"x_max":522,"o":"m 519 596 q 500 569 519 585 q 455 534 481 554 q 401 488 429 514 q 357 431 374 461 q 363 376 357 404 q 374 322 368 347 q 385 278 381 297 q 390 250 390 258 q 379 221 388 232 q 360 200 371 210 q 343 185 349 190 q 335 178 338 181 q 331 176 333 176 q 324 176 329 176 q 295 208 304 176 q 279 285 286 239 q 271 356 274 318 q 279 425 268 393 q 340 493 304 460 q 412 551 376 526 q 476 592 447 576 q 511 607 504 607 q 522 605 522 607 q 519 596 521 603 m 381 632 q 348 595 379 621 q 281 538 317 569 q 219 482 247 508 q 176 428 192 456 q 178 368 174 400 q 187 308 182 336 q 197 259 192 281 q 201 229 201 238 q 194 202 199 211 q 178 183 189 193 q 161 169 167 174 q 153 162 156 164 q 149 160 151 160 q 142 160 147 160 q 126 171 132 160 q 114 199 119 182 q 105 239 108 217 q 99 285 101 261 q 90 356 93 318 q 99 425 88 393 q 167 499 124 460 q 253 569 210 538 q 331 622 296 601 q 372 643 365 643 q 381 632 381 643 z "},"":{"ha":472,"x_min":-32,"x_max":403,"o":"m -29 193 q -10 219 -29 203 q 35 255 10 235 q 89 301 61 275 q 133 358 117 326 q 128 413 133 385 q 116 467 122 442 q 105 511 110 492 q 100 539 100 531 q 111 568 103 557 q 131 589 119 579 q 147 603 142 599 q 155 610 153 608 q 159 613 157 613 q 167 613 161 613 q 195 581 186 613 q 211 504 204 550 q 219 433 217 471 q 211 364 222 396 q 150 295 186 328 q 78 238 114 263 q 15 197 43 213 q -21 182 -14 182 q -31 184 -32 182 q -29 193 -31 186 m 110 157 q 142 194 111 168 q 210 251 174 219 q 271 307 243 281 q 314 361 299 333 q 313 420 317 389 q 303 480 308 451 q 294 530 299 508 q 289 560 289 551 q 297 587 292 578 q 313 606 301 596 q 329 620 324 615 q 337 627 335 625 q 341 629 339 629 q 349 629 343 629 q 365 618 358 629 q 376 590 371 607 q 385 549 382 572 q 392 504 389 526 q 400 433 397 471 q 392 364 403 396 q 324 290 367 328 q 238 219 281 251 q 160 167 194 188 q 118 146 125 146 q 110 157 110 146 z "},"":{"ha":1181,"x_min":101,"x_max":1074,"o":"m 1074 64 q 1047 1 1071 28 q 982 -24 1024 -24 q 942 -11 954 -24 q 936 35 936 -1 q 960 106 939 82 q 1033 129 981 126 q 1068 114 1058 129 q 1074 64 1074 101 m 669 64 q 643 1 667 28 q 578 -24 619 -24 q 538 -11 550 -24 q 532 35 532 -1 q 556 106 535 82 q 629 129 576 126 q 664 114 654 129 q 669 64 669 101 m 239 64 q 213 1 236 28 q 147 -24 189 -24 q 107 -11 119 -24 q 101 35 101 -1 q 125 106 104 82 q 199 129 146 126 q 233 114 224 129 q 239 64 239 101 z "},"":{"ha":660,"x_min":0,"x_max":0,"o":""},"":{"ha":856,"x_min":35,"x_max":935,"o":"m 935 189 q 858 117 899 154 q 761 44 817 81 q 708 13 731 25 q 667 -6 685 0 q 635 -15 649 -12 q 611 -17 622 -17 q 571 -8 586 -17 q 548 13 556 0 q 538 42 540 26 q 536 72 536 57 q 546 136 536 92 q 568 233 556 181 q 590 334 581 285 q 600 413 600 383 q 599 453 600 433 q 589 488 599 472 q 556 513 579 503 q 489 522 533 522 q 465 520 479 522 q 437 515 451 518 q 409 507 422 511 q 388 499 396 503 q 374 451 382 482 q 358 397 365 421 q 331 292 344 346 q 306 190 318 238 q 283 105 294 142 q 263 53 272 68 q 228 7 247 25 q 185 -11 208 -11 q 164 -1 168 -11 q 160 21 160 8 q 167 58 160 33 q 186 117 175 83 q 211 193 197 151 q 238 281 225 235 q 263 374 251 332 q 281 441 272 410 q 292 476 289 472 q 274 468 283 474 q 257 463 264 463 q 243 465 244 463 q 242 476 242 468 q 249 493 242 485 q 267 510 257 501 q 290 525 278 518 q 313 536 303 532 q 374 749 351 663 q 406 872 396 835 q 234 823 297 847 q 136 778 171 799 q 88 746 101 758 q 63 733 74 733 q 41 735 47 733 q 35 753 35 738 q 70 783 35 763 q 164 828 106 803 q 297 878 222 853 q 451 925 372 904 q 607 960 531 946 q 746 974 683 974 q 835 961 804 974 q 867 910 867 949 q 851 877 867 893 q 814 847 836 861 q 765 822 792 833 q 717 803 739 811 l 713 813 q 753 847 746 831 q 761 882 761 864 q 653 913 761 913 q 603 911 621 913 q 573 908 586 910 q 545 902 560 906 q 504 894 531 899 q 465 740 488 824 q 407 558 442 656 q 463 571 435 564 q 536 578 490 578 q 656 549 613 578 q 700 450 700 521 q 690 358 700 411 q 669 256 681 306 q 647 165 657 206 q 638 113 638 125 q 638 97 638 107 q 643 76 639 86 q 656 60 647 67 q 681 53 664 53 q 735 65 707 53 q 792 99 763 78 q 854 150 822 121 q 921 211 886 179 l 935 189 l 935 189 z "},"":{"ha":682,"x_min":-17,"x_max":765,"o":"m 765 161 q 628 67 692 104 q 514 8 564 29 q 430 -22 464 -14 q 382 -31 396 -31 q 351 -24 363 -31 q 335 -7 340 -17 q 328 15 329 3 q 326 36 326 26 q 335 100 326 58 q 365 208 344 142 q 417 375 397 308 q 438 469 438 442 q 437 481 438 476 q 421 486 436 486 q 391 471 413 486 q 342 429 369 456 q 281 368 314 403 q 218 296 249 333 q 152 194 179 249 q 106 100 125 140 q 72 34 86 58 q 45 -3 57 10 q 23 -19 33 -15 q 1 -24 13 -24 q -15 -12 -12 -24 q -17 3 -17 -1 q -11 40 -17 18 q 10 94 -6 63 q 31 149 21 118 q 47 196 40 179 q 101 351 74 272 q 153 500 125 419 q 207 656 181 581 q 225 704 215 682 q 178 703 200 703 q 142 701 156 703 q 122 700 131 700 q 106 700 113 700 q 86 703 90 700 q 82 715 82 707 q 91 743 83 732 q 110 761 99 754 q 138 770 124 768 q 176 772 151 772 l 249 772 q 288 877 269 829 q 317 958 306 925 q 331 984 322 974 q 356 1006 339 994 q 385 1022 371 1017 q 410 1029 399 1026 q 435 1033 424 1032 q 447 1019 447 1033 q 426 969 436 994 q 408 923 418 947 q 390 875 399 899 q 372 823 381 849 q 351 771 363 797 l 400 771 l 526 776 q 551 767 551 778 q 522 740 549 754 q 458 719 510 733 q 338 704 407 704 l 326 704 q 250 503 289 604 q 174 303 211 403 l 178 303 q 317 444 254 388 q 427 536 381 501 q 505 585 474 571 q 551 599 536 599 q 566 591 563 599 q 568 572 569 583 q 560 524 567 554 q 542 458 553 494 q 519 382 532 422 q 494 304 507 342 q 475 244 485 275 q 457 185 465 213 q 443 135 449 158 q 436 100 438 113 q 435 85 436 94 q 438 65 435 75 q 447 49 440 56 q 468 42 454 42 q 592 79 518 42 q 757 181 665 117 l 765 161 l 765 161 z "},"":{"ha":847,"x_min":39,"x_max":904,"o":"m 754 1226 q 738 1200 754 1221 q 697 1151 722 1179 q 640 1093 671 1124 q 579 1036 608 1063 q 567 1028 576 1033 q 550 1022 557 1022 q 542 1025 543 1022 q 542 1033 542 1028 q 551 1054 542 1038 q 574 1093 560 1071 q 601 1139 588 1115 q 626 1179 615 1163 q 671 1228 646 1211 q 738 1246 696 1246 q 752 1242 750 1246 q 754 1226 754 1238 m 904 919 q 892 874 904 897 q 861 831 881 851 q 817 792 842 810 q 769 763 793 774 l 764 771 q 788 803 778 786 q 797 838 797 821 q 769 863 797 863 q 703 842 744 863 q 617 776 663 821 q 553 713 586 747 q 493 649 521 678 q 428 579 460 613 q 438 558 432 571 q 447 533 442 547 q 458 501 451 519 q 481 432 468 468 q 505 361 493 396 q 528 294 517 326 q 550 235 540 261 q 624 83 585 142 q 708 25 663 25 q 780 42 747 25 q 861 100 813 60 l 871 71 q 740 -28 800 0 q 622 -57 681 -57 q 578 -47 601 -57 q 531 -14 556 -37 q 483 49 507 10 q 439 149 460 89 q 406 244 422 194 q 376 338 390 294 q 350 417 361 382 q 333 467 339 451 q 291 406 322 447 q 229 288 260 365 q 209 235 218 261 q 193 188 200 208 q 179 139 185 163 q 168 101 172 118 q 158 74 164 83 q 142 46 151 57 q 109 16 131 31 q 68 1 88 1 q 39 26 39 1 q 47 61 39 33 q 67 132 54 89 q 98 231 81 175 q 135 349 115 286 q 172 469 153 407 q 209 592 190 531 q 246 709 228 653 q 281 814 264 765 q 293 848 286 829 q 307 885 300 867 q 321 918 314 903 q 333 942 328 933 q 356 963 342 954 q 386 978 371 972 q 416 988 401 985 q 440 990 431 990 q 446 972 446 990 q 441 953 446 965 q 429 925 436 940 q 415 894 422 910 q 403 864 408 878 q 368 765 389 828 q 326 635 347 701 q 286 509 304 568 q 260 421 268 450 l 264 419 l 319 494 q 328 530 322 508 q 357 575 333 551 q 379 589 367 585 q 399 593 392 593 q 462 663 433 632 q 517 722 490 694 q 568 776 543 750 q 621 829 593 801 q 680 879 649 857 q 742 917 711 901 q 802 942 774 933 q 854 950 831 950 q 868 949 860 950 q 885 946 876 949 q 899 937 893 943 q 904 919 904 931 z "},"":{"ha":568,"x_min":-19,"x_max":751,"o":"m 617 924 q 601 897 617 918 q 559 849 585 876 q 502 790 533 821 q 442 733 471 760 q 429 725 439 731 q 413 719 419 719 q 405 722 406 719 q 404 731 404 725 q 413 751 404 735 q 436 790 422 768 q 464 836 450 813 q 489 876 478 860 q 533 926 508 908 q 600 943 558 943 q 615 939 613 943 q 617 924 617 935 m 751 110 q 672 49 714 78 q 588 -4 631 19 q 503 -42 546 -28 q 424 -56 461 -56 q 373 -49 397 -56 q 327 -26 349 -43 q 288 24 306 -8 q 257 107 269 56 q 230 231 238 189 q 215 299 222 274 q 194 269 204 283 q 172 228 183 254 q 154 185 163 207 q 139 147 146 164 q 124 110 131 128 q 103 62 111 78 q 86 36 96 46 q 51 13 75 25 q 10 1 26 1 q -13 6 -7 1 q -19 21 -19 10 q -12 47 -19 28 q 11 111 -6 67 q 26 150 19 132 q 38 186 32 168 q 51 224 44 204 q 67 267 58 243 q 125 429 100 358 q 161 529 150 500 q 178 574 171 556 q 196 604 185 593 q 217 622 204 614 q 245 634 231 629 q 274 642 260 639 q 297 644 288 644 q 307 629 307 644 q 297 594 307 619 q 278 547 288 569 q 235 438 254 489 q 200 343 215 388 l 207 342 q 253 391 232 368 q 297 437 274 414 q 347 484 319 460 q 413 539 375 508 q 471 579 440 561 q 532 610 501 597 q 591 628 563 622 q 642 635 619 635 q 656 634 647 635 q 672 630 664 633 q 685 619 679 626 q 690 600 690 613 q 659 536 690 576 q 549 447 628 496 l 540 460 q 576 506 567 479 q 586 546 586 532 q 558 565 586 565 q 494 549 535 565 q 408 497 454 533 q 355 453 378 474 q 317 415 332 432 q 285 379 299 396 l 293 379 q 300 380 296 379 q 307 381 304 381 q 322 376 314 381 q 332 354 329 371 q 348 265 339 315 q 368 169 357 214 q 414 60 383 100 q 497 19 444 19 q 569 31 535 19 q 635 61 604 43 q 693 99 667 79 q 739 135 719 118 l 751 110 l 751 110 z "},"":{"ha":525,"x_min":-31,"x_max":561,"o":"m 561 588 q 528 539 549 554 q 475 513 508 524 q 459 538 471 528 q 431 555 447 549 q 396 564 414 561 q 364 567 378 567 q 319 561 343 567 q 274 543 294 556 q 240 511 253 531 q 226 465 226 492 q 251 413 226 433 q 293 382 269 397 q 340 351 317 367 q 385 322 364 336 q 421 293 406 307 q 449 255 442 274 q 456 213 456 236 q 440 153 456 186 q 394 90 424 121 q 326 31 365 58 q 240 -11 286 4 q 187 -24 213 -21 q 115 -28 161 -28 q 66 -22 90 -28 q 21 -4 42 -15 q -14 22 0 7 q -31 56 -28 38 q -16 85 -28 71 q 14 111 -4 100 q 40 126 22 117 q 69 136 58 136 q 82 97 74 115 q 104 65 90 79 q 140 42 118 50 q 192 33 161 33 q 256 42 226 33 q 308 68 286 51 q 344 108 331 85 q 357 157 357 131 q 347 203 357 185 q 315 238 336 222 q 238 290 275 267 q 169 339 200 313 q 140 373 150 356 q 129 422 129 390 q 138 463 129 439 q 169 513 147 488 q 231 562 192 538 q 331 604 269 586 q 390 616 358 613 q 449 619 421 619 q 496 615 475 619 q 532 603 517 610 q 561 588 549 596 z "},"":{"ha":796,"x_min":119,"x_max":778,"o":"m 778 478 q 749 447 778 461 q 716 434 736 440 q 663 422 696 428 q 630 419 654 421 q 570 417 606 418 q 492 414 535 415 q 403 411 449 413 q 334 409 375 410 q 253 408 293 408 q 183 406 214 407 q 143 406 151 406 q 119 421 119 406 q 127 446 119 433 q 150 465 135 458 q 225 476 181 476 q 269 477 249 478 q 307 478 289 476 q 364 478 325 478 q 449 480 403 479 q 542 481 496 481 q 624 483 589 482 q 661 485 642 483 q 699 487 681 486 q 730 488 717 488 q 750 489 743 489 q 767 488 757 489 q 778 478 778 486 z "},"":{"ha":938,"x_min":106,"x_max":874,"o":"m 874 363 q 846 336 874 350 q 815 322 833 329 q 760 311 796 314 q 690 307 738 308 q 543 303 642 306 q 381 299 443 300 q 285 296 318 297 q 253 296 267 296 q 226 296 239 296 q 198 296 213 296 q 165 296 183 296 q 144 295 153 296 q 129 294 136 294 q 106 310 106 294 q 113 335 106 322 q 136 354 121 347 q 211 365 163 365 q 272 366 247 365 q 321 367 297 367 q 446 369 394 368 q 540 369 497 369 q 625 370 583 369 q 721 372 667 371 q 763 373 740 372 q 804 375 785 374 q 847 378 826 376 q 867 376 861 379 q 874 363 874 374 z "},"":{"ha":472,"x_min":29,"x_max":465,"o":"m 279 864 q 241 731 274 792 q 169 625 208 669 q 92 556 129 581 q 40 531 54 531 q 31 533 29 531 q 32 542 32 535 q 43 556 32 547 q 69 576 54 564 q 101 603 85 588 q 132 638 118 618 q 160 697 151 665 q 171 760 168 729 q 169 795 172 781 q 163 823 167 810 q 157 851 160 836 q 156 885 154 865 q 169 915 157 903 q 192 938 181 928 q 224 961 214 956 q 246 967 235 967 q 275 947 265 967 q 279 864 285 928 m 460 864 q 422 731 454 792 q 349 625 389 669 q 272 556 310 581 q 221 531 235 531 q 211 533 210 531 q 213 542 213 535 q 224 556 213 547 q 250 576 235 564 q 282 603 265 588 q 313 638 299 618 q 340 697 332 665 q 351 760 349 729 q 350 795 353 781 q 344 823 347 810 q 338 851 340 836 q 336 885 335 865 q 349 915 338 903 q 372 938 361 928 q 405 961 394 956 q 426 967 415 967 q 456 947 446 967 q 460 864 465 928 z "},"":{"ha":472,"x_min":7,"x_max":443,"o":"m 193 635 q 231 768 199 707 q 303 874 264 829 q 381 943 343 918 q 432 968 418 968 q 442 966 443 968 q 440 957 440 964 q 429 942 440 950 q 403 922 418 933 q 371 896 388 911 q 340 861 354 881 q 313 801 321 833 q 301 739 304 769 q 303 703 300 718 q 309 676 306 689 q 315 648 313 663 q 317 614 318 633 q 303 583 315 596 q 281 561 292 571 q 248 538 258 543 q 226 532 238 532 q 197 551 207 532 q 193 635 188 571 m 13 635 q 51 768 18 707 q 123 874 83 829 q 200 943 163 918 q 251 968 238 968 q 261 966 263 968 q 260 957 260 964 q 249 942 260 950 q 222 922 238 933 q 190 896 207 911 q 160 861 174 881 q 132 801 140 833 q 121 739 124 769 q 122 703 119 718 q 128 676 125 689 q 135 648 132 663 q 136 614 138 633 q 123 583 135 596 q 100 561 111 571 q 67 538 78 543 q 46 532 57 532 q 17 551 26 532 q 13 635 7 571 z "},"":{"ha":324,"x_min":38,"x_max":293,"o":"m 288 900 q 249 767 282 828 q 177 661 217 706 q 100 592 138 617 q 49 567 63 567 q 39 569 38 567 q 40 578 40 571 q 51 592 40 583 q 78 612 63 600 q 110 639 93 624 q 140 674 126 654 q 168 733 160 701 q 179 796 176 765 q 178 831 181 817 q 172 859 175 846 q 165 887 168 872 q 164 921 163 901 q 177 951 165 939 q 200 974 189 964 q 233 997 222 992 q 254 1003 243 1003 q 283 983 274 1003 q 288 900 293 964 z "},"":{"ha":324,"x_min":51,"x_max":307,"o":"m 57 669 q 95 803 63 742 q 167 908 128 864 q 244 978 207 953 q 296 1003 282 1003 q 306 1001 307 1003 q 304 992 304 999 q 293 976 304 985 q 267 957 282 968 q 235 931 251 946 q 204 896 218 915 q 176 836 185 868 q 165 774 168 804 q 167 738 164 753 q 173 710 169 724 q 179 683 176 697 q 181 649 182 668 q 167 618 179 631 q 144 596 156 606 q 112 572 122 578 q 90 567 101 567 q 61 586 71 567 q 57 669 51 606 z "},"":{"ha":763,"x_min":15,"x_max":747,"o":"m 381 308 q 423 291 406 308 q 440 249 440 274 q 423 207 440 225 q 381 189 406 189 q 339 207 357 189 q 321 249 321 225 q 338 291 321 274 q 381 308 356 308 m 747 433 l 15 433 l 15 490 l 747 490 l 747 433 m 381 729 q 423 712 406 729 q 440 669 440 694 q 423 628 440 646 q 381 611 406 611 q 338 628 356 611 q 321 669 321 646 q 338 712 321 694 q 381 729 356 729 z "},"":{"ha":324,"x_min":-53,"x_max":383,"o":"m 197 25 q 159 -108 192 -47 q 87 -214 126 -169 q 10 -283 47 -258 q -42 -308 -28 -308 q -51 -306 -53 -308 q -50 -297 -50 -304 q -39 -283 -50 -292 q -12 -263 -28 -275 q 19 -236 3 -251 q 50 -201 36 -221 q 78 -142 69 -174 q 89 -79 86 -110 q 88 -44 90 -58 q 81 -16 85 -29 q 75 12 78 -3 q 74 46 72 26 q 87 76 75 64 q 110 99 99 89 q 142 122 132 117 q 164 128 153 128 q 193 108 183 128 q 197 25 203 89 m 378 25 q 340 -108 372 -47 q 267 -214 307 -169 q 190 -283 228 -258 q 139 -308 153 -308 q 129 -306 128 -308 q 131 -297 131 -304 q 142 -283 131 -292 q 168 -263 153 -275 q 200 -236 183 -251 q 231 -201 217 -221 q 258 -142 250 -174 q 269 -79 267 -110 q 268 -44 271 -58 q 262 -16 265 -29 q 256 12 258 -3 q 254 46 253 26 q 267 76 256 64 q 290 99 279 89 q 323 122 313 117 q 344 128 333 128 q 374 108 364 128 q 378 25 383 89 z "},"":{"ha":867,"x_min":35,"x_max":1072,"o":"m 643 1046 q 647 1060 643 1051 q 653 1076 650 1069 q 676 1110 661 1096 q 714 1125 690 1125 q 728 1121 722 1125 q 748 1112 735 1117 q 784 1103 761 1107 q 849 1099 807 1099 q 923 1122 881 1099 q 997 1182 965 1144 q 1021 1228 1014 1200 q 1056 1253 1026 1253 q 1071 1231 1072 1253 q 1056 1194 1071 1219 q 1010 1142 1040 1169 q 951 1093 979 1114 q 894 1058 922 1072 q 801 1023 846 1035 q 724 1011 756 1011 q 666 1020 690 1010 q 643 1046 642 1031 m 963 949 q 952 899 963 925 q 927 847 942 874 q 895 794 913 819 q 865 747 878 768 q 791 532 826 635 q 713 339 756 429 q 506 67 631 165 q 231 -32 381 -32 q 141 -21 172 -32 q 111 11 110 -10 q 116 26 111 14 q 138 39 121 39 q 157 32 150 39 q 172 17 164 25 q 190 3 179 10 q 219 -4 200 -4 q 324 9 278 -4 q 411 51 371 22 q 489 128 451 81 q 568 244 526 175 q 607 319 589 279 q 644 406 625 358 q 685 508 664 453 q 733 626 707 563 l 729 628 q 683 580 714 608 q 612 519 651 551 q 528 453 572 486 q 446 392 485 419 q 420 376 436 385 q 386 361 404 368 q 349 349 368 354 q 314 344 331 344 q 290 358 296 344 q 285 399 285 371 q 294 440 285 411 q 318 506 304 469 q 348 581 332 543 q 376 650 364 619 q 405 720 392 685 q 427 787 418 756 q 442 842 436 818 q 447 882 447 867 q 442 909 447 897 q 411 921 436 921 q 363 911 389 921 q 313 889 336 901 q 272 864 290 876 q 249 847 254 851 q 192 799 222 825 q 135 733 163 774 q 115 688 119 713 q 106 644 110 664 q 93 610 101 624 q 65 597 85 597 q 44 602 53 597 q 35 619 35 607 q 60 693 35 653 q 120 772 85 733 q 194 844 156 811 q 263 894 233 876 q 392 967 333 939 q 515 994 451 994 q 540 987 532 994 q 553 968 549 979 q 558 942 557 957 q 558 914 558 928 q 551 869 558 897 q 534 808 544 840 q 512 741 524 775 q 489 676 500 707 q 467 617 479 651 q 443 551 454 583 q 424 494 432 519 q 417 464 417 469 q 435 449 417 449 q 453 452 446 449 q 475 463 461 456 q 547 508 506 475 q 630 581 588 540 q 709 665 672 621 q 768 746 746 710 q 793 816 781 785 q 818 874 806 847 q 861 939 842 922 q 944 971 897 969 q 963 949 963 971 z "},"":{"ha":693,"x_min":-276,"x_max":785,"o":"m 368 740 q 371 755 368 746 q 376 771 374 764 q 400 813 385 790 q 439 836 415 836 q 451 827 447 836 q 467 808 456 818 q 499 788 478 797 q 561 779 519 779 q 613 790 586 779 q 665 819 640 801 q 707 860 689 836 q 733 908 725 883 q 768 933 742 933 q 783 911 785 933 q 768 873 783 900 q 724 818 753 846 q 646 760 683 782 q 574 726 608 738 q 507 710 539 714 q 449 706 475 706 q 391 715 415 706 q 368 740 367 725 m 668 613 q 646 542 668 592 q 610 474 631 508 q 572 411 589 439 q 552 354 564 388 q 523 272 540 321 q 480 155 506 222 q 417 -4 454 88 q 313 -231 368 -125 q 183 -408 258 -336 q 24 -531 100 -487 q -119 -574 -51 -574 q -201 -565 -169 -574 q -249 -543 -232 -556 q -271 -518 -265 -531 q -276 -499 -276 -506 q -263 -463 -271 -485 q -244 -422 -256 -442 q -224 -449 -237 -433 q -193 -477 -211 -464 q -152 -499 -175 -490 q -104 -508 -129 -508 q -60 -508 -83 -508 q -9 -500 -36 -508 q 51 -472 18 -492 q 122 -411 83 -451 q 171 -341 144 -387 q 226 -233 197 -294 q 283 -103 254 -172 q 339 36 311 -33 q 391 169 367 106 q 436 283 415 233 l 432 285 q 318 168 379 225 q 201 67 257 111 q 98 -3 144 24 q 28 -31 51 -31 q 10 -20 14 -31 q 6 4 6 -10 q 10 32 6 14 q 20 71 14 50 q 35 113 26 92 q 50 153 43 135 q 92 261 69 203 q 133 372 114 319 q 169 467 153 425 q 193 528 185 510 q 217 565 201 549 q 251 592 233 581 q 286 610 269 604 q 313 615 303 615 q 322 600 322 615 q 316 567 321 589 q 299 511 311 546 q 224 331 257 413 q 197 260 210 296 q 173 195 183 225 q 156 143 163 165 q 150 113 150 121 q 152 103 150 106 q 163 99 154 100 q 184 106 169 99 q 215 124 199 113 q 249 148 232 135 q 278 172 265 161 q 344 238 315 208 q 394 296 372 268 q 435 351 417 324 q 474 410 454 379 l 513 513 q 536 565 525 544 q 567 603 547 586 q 650 635 606 635 q 668 613 668 635 z "}}}
